<mxfile host="app.diagrams.net" modified="2021-12-22T14:56:05.651Z" agent="5.0 (Macintosh; Intel Mac OS X 10_15_7) AppleWebKit/537.36 (KHTML, like Gecko) Chrome/96.0.4664.110 Safari/537.36" etag="QWEVMR9PC_ryEFFFM4DH" version="16.0.0" type="github">
  <diagram id="XjSqfUh0faVRYqL8ra_A" name="Page-4">
    <mxGraphModel dx="6991" dy="1020" grid="1" gridSize="10" guides="1" tooltips="1" connect="1" arrows="1" fold="1" page="1" pageScale="1" pageWidth="1100" pageHeight="850" math="0" shadow="0">
      <root>
        <mxCell id="7BcbjyJo5ydgNHTcu2xo-0" />
        <mxCell id="7BcbjyJo5ydgNHTcu2xo-1" parent="7BcbjyJo5ydgNHTcu2xo-0" />
        <mxCell id="1KFaV_7iB4pAQhAyHhLh-0" value="&lt;font style=&quot;font-size: 15px&quot;&gt;&lt;b&gt;&lt;i&gt;GDL Internal ServiceLayer&lt;/i&gt;&lt;/b&gt;&lt;/font&gt;" style="rounded=0;whiteSpace=wrap;html=1;verticalAlign=top;align=left;fillColor=#dae8fc;strokeColor=#6c8ebf;" vertex="1" parent="7BcbjyJo5ydgNHTcu2xo-1">
          <mxGeometry x="-4360" y="520" width="2618.7" height="430" as="geometry" />
        </mxCell>
        <mxCell id="1KFaV_7iB4pAQhAyHhLh-81" value="&lt;font style=&quot;font-size: 15px&quot;&gt;&lt;b&gt;&lt;i&gt;GDL Internal ServiceLayer&lt;/i&gt;&lt;/b&gt;&lt;/font&gt;" style="rounded=0;whiteSpace=wrap;html=1;verticalAlign=top;align=left;fillColor=#dae8fc;strokeColor=#6c8ebf;" vertex="1" parent="7BcbjyJo5ydgNHTcu2xo-1">
          <mxGeometry x="-4380" y="1080" width="2620" height="490" as="geometry" />
        </mxCell>
        <mxCell id="7BcbjyJo5ydgNHTcu2xo-3" value="GREAT DATA LAKES" style="rounded=0;whiteSpace=wrap;html=1;fontFamily=Roboto Mono;fontSource=https%3A%2F%2Ffonts.googleapis.com%2Fcss%3Ffamily%3DRoboto%2BMono;align=left;labelPosition=center;verticalLabelPosition=top;verticalAlign=bottom;dashed=1;dashPattern=1 1;strokeWidth=2;labelBackgroundColor=none;labelBorderColor=none;sketch=0;pointerEvents=0;fillColor=#dae8fc;strokeColor=#6c8ebf;" parent="7BcbjyJo5ydgNHTcu2xo-1" vertex="1">
          <mxGeometry x="420" y="160" width="290" height="390" as="geometry" />
        </mxCell>
        <mxCell id="7BcbjyJo5ydgNHTcu2xo-4" value="ELEVATE" style="rounded=0;whiteSpace=wrap;html=1;fontFamily=Roboto Mono;fontSource=https%3A%2F%2Ffonts.googleapis.com%2Fcss%3Ffamily%3DRoboto%2BMono;align=left;labelPosition=center;verticalLabelPosition=top;verticalAlign=bottom;dashed=1;dashPattern=1 1;strokeWidth=2;labelBackgroundColor=none;labelBorderColor=none;sketch=0;pointerEvents=0;fillColor=#e1d5e7;strokeColor=#9673a6;" parent="7BcbjyJo5ydgNHTcu2xo-1" vertex="1">
          <mxGeometry x="80" y="609.9999999999999" width="290" height="60" as="geometry" />
        </mxCell>
        <mxCell id="7BcbjyJo5ydgNHTcu2xo-5" value="EXCELERATE" style="rounded=0;whiteSpace=wrap;html=1;fontFamily=Roboto Mono;fontSource=https%3A%2F%2Ffonts.googleapis.com%2Fcss%3Ffamily%3DRoboto%2BMono;align=left;labelPosition=center;verticalLabelPosition=top;verticalAlign=bottom;dashed=1;dashPattern=1 1;strokeWidth=2;labelBackgroundColor=none;labelBorderColor=none;sketch=0;pointerEvents=0;fillColor=#d5e8d4;strokeColor=#82b366;" parent="7BcbjyJo5ydgNHTcu2xo-1" vertex="1">
          <mxGeometry x="80" y="519.9999999999998" width="290" height="60" as="geometry" />
        </mxCell>
        <mxCell id="7BcbjyJo5ydgNHTcu2xo-6" value="OD CALC LAKE" style="rounded=0;whiteSpace=wrap;html=1;fontFamily=Roboto Mono;fontSource=https%3A%2F%2Ffonts.googleapis.com%2Fcss%3Ffamily%3DRoboto%2BMono;align=left;labelPosition=center;verticalLabelPosition=top;verticalAlign=bottom;dashed=1;dashPattern=1 1;strokeWidth=2;labelBackgroundColor=none;labelBorderColor=none;sketch=0;pointerEvents=0;fillColor=#ffcccc;strokeColor=#36393d;" parent="7BcbjyJo5ydgNHTcu2xo-1" vertex="1">
          <mxGeometry x="80" y="159.99999999999977" width="290" height="60" as="geometry" />
        </mxCell>
        <mxCell id="7BcbjyJo5ydgNHTcu2xo-7" value="MARKETING" style="rounded=0;whiteSpace=wrap;html=1;fontFamily=Roboto Mono;fontSource=https%3A%2F%2Ffonts.googleapis.com%2Fcss%3Ffamily%3DRoboto%2BMono;align=left;labelPosition=center;verticalLabelPosition=top;verticalAlign=bottom;dashed=1;dashPattern=1 1;strokeWidth=2;labelBackgroundColor=none;labelBorderColor=none;sketch=0;pointerEvents=0;fillColor=#ffff88;strokeColor=#36393d;" parent="7BcbjyJo5ydgNHTcu2xo-1" vertex="1">
          <mxGeometry x="80" y="279.99999999999983" width="290" height="60" as="geometry" />
        </mxCell>
        <mxCell id="QUUbvTBbF0khpcAF6eAY-0" value="REP RESOURCE HUB" style="rounded=0;whiteSpace=wrap;html=1;fontFamily=Roboto Mono;fontSource=https%3A%2F%2Ffonts.googleapis.com%2Fcss%3Ffamily%3DRoboto%2BMono;align=left;labelPosition=center;verticalLabelPosition=top;verticalAlign=bottom;dashed=1;dashPattern=1 1;strokeWidth=2;labelBackgroundColor=none;labelBorderColor=none;sketch=0;pointerEvents=0;fillColor=#ffcc99;strokeColor=#36393d;" parent="7BcbjyJo5ydgNHTcu2xo-1" vertex="1">
          <mxGeometry x="80" y="399.9999999999998" width="290" height="60" as="geometry" />
        </mxCell>
        <mxCell id="QUUbvTBbF0khpcAF6eAY-1" value="DIGITAL ASSET MANAGEMENT" style="shape=hexagon;perimeter=hexagonPerimeter2;whiteSpace=wrap;html=1;fixedSize=1;" parent="7BcbjyJo5ydgNHTcu2xo-1" vertex="1">
          <mxGeometry x="-200" y="40" width="120" height="80" as="geometry" />
        </mxCell>
        <mxCell id="QUUbvTBbF0khpcAF6eAY-2" value="CMS" style="shape=hexagon;perimeter=hexagonPerimeter2;whiteSpace=wrap;html=1;fixedSize=1;" parent="7BcbjyJo5ydgNHTcu2xo-1" vertex="1">
          <mxGeometry x="-680" y="310" width="120" height="80" as="geometry" />
        </mxCell>
        <mxCell id="QUUbvTBbF0khpcAF6eAY-3" value="AUTH" style="shape=hexagon;perimeter=hexagonPerimeter2;whiteSpace=wrap;html=1;fixedSize=1;" parent="7BcbjyJo5ydgNHTcu2xo-1" vertex="1">
          <mxGeometry x="430" y="600" width="120" height="80" as="geometry" />
        </mxCell>
        <mxCell id="QUUbvTBbF0khpcAF6eAY-4" value="eCOM" style="shape=hexagon;perimeter=hexagonPerimeter2;whiteSpace=wrap;html=1;fixedSize=1;" parent="7BcbjyJo5ydgNHTcu2xo-1" vertex="1">
          <mxGeometry x="570" y="600" width="120" height="80" as="geometry" />
        </mxCell>
        <mxCell id="QUUbvTBbF0khpcAF6eAY-5" value="PAYMENTS" style="shape=hexagon;perimeter=hexagonPerimeter2;whiteSpace=wrap;html=1;fixedSize=1;" parent="7BcbjyJo5ydgNHTcu2xo-1" vertex="1">
          <mxGeometry x="710" y="600" width="120" height="80" as="geometry" />
        </mxCell>
        <mxCell id="QUUbvTBbF0khpcAF6eAY-6" value="SALES&lt;br&gt;CRM" style="shape=hexagon;perimeter=hexagonPerimeter2;whiteSpace=wrap;html=1;fixedSize=1;" parent="7BcbjyJo5ydgNHTcu2xo-1" vertex="1">
          <mxGeometry x="-690" y="700" width="120" height="80" as="geometry" />
        </mxCell>
        <mxCell id="QUUbvTBbF0khpcAF6eAY-7" value="Marketing&lt;br&gt;CRM" style="shape=hexagon;perimeter=hexagonPerimeter2;whiteSpace=wrap;html=1;fixedSize=1;" parent="7BcbjyJo5ydgNHTcu2xo-1" vertex="1">
          <mxGeometry x="-690" y="500" width="120" height="80" as="geometry" />
        </mxCell>
        <mxCell id="QUUbvTBbF0khpcAF6eAY-8" value="AI / ML" style="shape=hexagon;perimeter=hexagonPerimeter2;whiteSpace=wrap;html=1;fixedSize=1;" parent="7BcbjyJo5ydgNHTcu2xo-1" vertex="1">
          <mxGeometry x="-870" y="485" width="120" height="80" as="geometry" />
        </mxCell>
        <mxCell id="QUUbvTBbF0khpcAF6eAY-9" value="HOSTING" style="shape=hexagon;perimeter=hexagonPerimeter2;whiteSpace=wrap;html=1;fixedSize=1;" parent="7BcbjyJo5ydgNHTcu2xo-1" vertex="1">
          <mxGeometry x="270" y="760" width="120" height="80" as="geometry" />
        </mxCell>
        <mxCell id="QUUbvTBbF0khpcAF6eAY-10" value="DEPLOYMENT" style="shape=hexagon;perimeter=hexagonPerimeter2;whiteSpace=wrap;html=1;fixedSize=1;" parent="7BcbjyJo5ydgNHTcu2xo-1" vertex="1">
          <mxGeometry x="410" y="760" width="120" height="80" as="geometry" />
        </mxCell>
        <mxCell id="QUUbvTBbF0khpcAF6eAY-11" value="DEVELOPMENT" style="shape=hexagon;perimeter=hexagonPerimeter2;whiteSpace=wrap;html=1;fixedSize=1;" parent="7BcbjyJo5ydgNHTcu2xo-1" vertex="1">
          <mxGeometry x="130" y="760" width="120" height="80" as="geometry" />
        </mxCell>
        <mxCell id="QUUbvTBbF0khpcAF6eAY-12" value="CUSTOMER&lt;br&gt;ENGAGEMENT" style="shape=hexagon;perimeter=hexagonPerimeter2;whiteSpace=wrap;html=1;fixedSize=1;" parent="7BcbjyJo5ydgNHTcu2xo-1" vertex="1">
          <mxGeometry x="-690" y="600" width="120" height="80" as="geometry" />
        </mxCell>
        <mxCell id="QUUbvTBbF0khpcAF6eAY-13" value="ANALYTICS" style="shape=hexagon;perimeter=hexagonPerimeter2;whiteSpace=wrap;html=1;fixedSize=1;" parent="7BcbjyJo5ydgNHTcu2xo-1" vertex="1">
          <mxGeometry x="-840" y="365" width="120" height="80" as="geometry" />
        </mxCell>
        <mxCell id="QUUbvTBbF0khpcAF6eAY-14" value="MONITORING" style="shape=hexagon;perimeter=hexagonPerimeter2;whiteSpace=wrap;html=1;fixedSize=1;" parent="7BcbjyJo5ydgNHTcu2xo-1" vertex="1">
          <mxGeometry x="550" y="760" width="120" height="80" as="geometry" />
        </mxCell>
        <mxCell id="QUUbvTBbF0khpcAF6eAY-15" value="PROJECT MANGEMENT" style="shape=hexagon;perimeter=hexagonPerimeter2;whiteSpace=wrap;html=1;fixedSize=1;" parent="7BcbjyJo5ydgNHTcu2xo-1" vertex="1">
          <mxGeometry x="-160" y="760" width="120" height="80" as="geometry" />
        </mxCell>
        <mxCell id="QUUbvTBbF0khpcAF6eAY-16" value="VERSION&lt;br&gt;CONTROL" style="shape=hexagon;perimeter=hexagonPerimeter2;whiteSpace=wrap;html=1;fixedSize=1;" parent="7BcbjyJo5ydgNHTcu2xo-1" vertex="1">
          <mxGeometry x="-10" y="760" width="120" height="80" as="geometry" />
        </mxCell>
        <mxCell id="QUUbvTBbF0khpcAF6eAY-17" value="CUSTOMER&lt;br&gt;DATA&lt;br&gt;PLATFORM" style="shape=hexagon;perimeter=hexagonPerimeter2;whiteSpace=wrap;html=1;fixedSize=1;" parent="7BcbjyJo5ydgNHTcu2xo-1" vertex="1">
          <mxGeometry x="-850" y="275" width="120" height="80" as="geometry" />
        </mxCell>
        <mxCell id="QUUbvTBbF0khpcAF6eAY-18" value="COMMUNITY" style="shape=hexagon;perimeter=hexagonPerimeter2;whiteSpace=wrap;html=1;fixedSize=1;" parent="7BcbjyJo5ydgNHTcu2xo-1" vertex="1">
          <mxGeometry x="970" y="600" width="120" height="80" as="geometry" />
        </mxCell>
        <mxCell id="QUUbvTBbF0khpcAF6eAY-19" value="VOICE/VIDEO&lt;br&gt;COLLAB" style="shape=hexagon;perimeter=hexagonPerimeter2;whiteSpace=wrap;html=1;fixedSize=1;" parent="7BcbjyJo5ydgNHTcu2xo-1" vertex="1">
          <mxGeometry x="840" y="600" width="120" height="80" as="geometry" />
        </mxCell>
        <mxCell id="QUUbvTBbF0khpcAF6eAY-20" value="DATA VISUALIZATION" style="shape=hexagon;perimeter=hexagonPerimeter2;whiteSpace=wrap;html=1;fixedSize=1;" parent="7BcbjyJo5ydgNHTcu2xo-1" vertex="1">
          <mxGeometry x="800" y="315" width="120" height="80" as="geometry" />
        </mxCell>
        <mxCell id="QUUbvTBbF0khpcAF6eAY-21" value="DATA REPORTS" style="shape=hexagon;perimeter=hexagonPerimeter2;whiteSpace=wrap;html=1;fixedSize=1;" parent="7BcbjyJo5ydgNHTcu2xo-1" vertex="1">
          <mxGeometry x="800" y="420" width="120" height="80" as="geometry" />
        </mxCell>
        <mxCell id="QUUbvTBbF0khpcAF6eAY-22" value="DATA &lt;br&gt;PIPELINES" style="shape=hexagon;perimeter=hexagonPerimeter2;whiteSpace=wrap;html=1;fixedSize=1;" parent="7BcbjyJo5ydgNHTcu2xo-1" vertex="1">
          <mxGeometry x="550" y="180" width="120" height="80" as="geometry" />
        </mxCell>
        <mxCell id="QUUbvTBbF0khpcAF6eAY-48" value="" style="group;" parent="7BcbjyJo5ydgNHTcu2xo-1" vertex="1" connectable="0">
          <mxGeometry x="5.5" y="30" width="234.50075620767518" height="40" as="geometry" />
        </mxCell>
        <mxCell id="QUUbvTBbF0khpcAF6eAY-49" value="&lt;font color=&quot;#172b4d&quot;&gt;&lt;span style=&quot;font-size: 11px ; line-height: 1&quot;&gt;Cloudinary&lt;/span&gt;&lt;/font&gt;" style="whiteSpace=wrap;html=1;fontFamily=Roboto Mono;align=left;fontSize=14;spacingLeft=8;dashed=1;dashPattern=1 1;fontSource=https%3A%2F%2Ffonts.googleapis.com%2Fcss%3Ffamily%3DRoboto%2BMono;spacing=0;spacingBottom=4;" parent="QUUbvTBbF0khpcAF6eAY-48" vertex="1">
          <mxGeometry x="54.50075620767518" width="180" height="40" as="geometry" />
        </mxCell>
        <mxCell id="QUUbvTBbF0khpcAF6eAY-50" value="" style="group;" parent="QUUbvTBbF0khpcAF6eAY-48" vertex="1" connectable="0">
          <mxGeometry width="45" height="40" as="geometry" />
        </mxCell>
        <mxCell id="QUUbvTBbF0khpcAF6eAY-51" value="" style="whiteSpace=wrap;html=1;dashed=1;dashPattern=1 1;fontFamily=Roboto Mono;fontSource=https%3A%2F%2Ffonts.googleapis.com%2Fcss%3Ffamily%3DRoboto%2BMono;strokeWidth=1;align=left;verticalAlign=middle;noLabel=1;connectable=1;allowArrows=1;snapToPoint=1;fontSize=11;" parent="QUUbvTBbF0khpcAF6eAY-50" vertex="1">
          <mxGeometry width="45" height="40" as="geometry" />
        </mxCell>
        <mxCell id="QUUbvTBbF0khpcAF6eAY-52" value="" style="shape=image;verticalLabelPosition=bottom;verticalAlign=top;aspect=fixed;imageAspect=0;image=data:image/svg+xml,PHN2ZyB4bWxucz0iaHR0cDovL3d3dy53My5vcmcvMjAwMC9zdmciIHZpZXdCb3g9IjAgMCAxNzIuOCAxMTMuMTgiPjxkZWZzPjxzdHlsZT4uY2xzLTF7ZmlsbDojMzQ0OGM1O308L3N0eWxlPjwvZGVmcz48ZyBpZD0iTGF5ZXJfMiIgZGF0YS1uYW1lPSJMYXllciAyIj48ZyBpZD0iTGF5ZXJfMS0yIiBkYXRhLW5hbWU9IkxheWVyIDEiPjxwYXRoIGNsYXNzPSJjbHMtMSIgZD0iTTE0MC4yNSw0MC4yN0E1Ny44NCw1Ny44NCwwLDAsMCw4NS41NiwwLDU2Ljc1LDU2Ljc1LDAsMCwwLDM1LjI0LDI5LjlhNDIuNzksNDIuNzksMCwwLDAtMTAuMzMsODFsMS4wOC41aC4wNlY5OS4yM2EzMS45NSwzMS45NSwwLDAsMSwxMy4zMS01OWwzLS4zMSwxLjMxLTIuNzRBNDYsNDYsMCwwLDEsODUuNTYsMTAuODVhNDYuODMsNDYuODMsMCwwLDEsNDUuMTksMzUuNzlsMSw0LjExLDQuMjMuMDdhMjYuNTYsMjYuNTYsMCwwLDEsMjYsMjYuNDRjMCwxMC4xMS01LjgzLDE4LjM2LTE1LjcyLDIyLjU1djExLjU1bC43MS0uMjRjMTUuOTUtNS4yMSwyNS44Ni0xOC4xOSwyNS44Ni0zMy44NkEzNy40OSwzNy40OSwwLDAsMCwxNDAuMjUsNDAuMjdaIi8+PHBhdGggY2xhc3M9ImNscy0xIiBkPSJNNjQuNTYsMTEwbDIuMzgsMi4zOGEuNDcuNDcsMCwwLDEtLjM0LjgxSDQ3Ljg0YTguNTMsOC41MywwLDAsMS04LjU0LTguNTNWNjguMTRhLjQ3LjQ3LDAsMCwwLS40Ny0uNDdIMzQuNzZhLjQ4LjQ4LDAsMCwxLS4zNC0uODFMNTAuMzUsNTAuOTRhLjQ2LjQ2LDAsMCwxLC42NywwTDY2Ljk0LDY2Ljg2YS40Ny40NywwLDAsMS0uMzQuODFINjIuNTNhLjQ3LjQ3LDAsMCwwLS40Ny40N1YxMDRBOC41Myw4LjUzLDAsMCwwLDY0LjU2LDExMFoiLz48cGF0aCBjbGFzcz0iY2xzLTEiIGQ9Ik05OS43NiwxMTBsMi4zOCwyLjM4YS40Ny40NywwLDAsMS0uMzQuODFIODNhOC41Myw4LjUzLDAsMCwxLTguNTQtOC41M1Y3Ny4zMmEuNDcuNDcsMCwwLDAtLjQ3LS40OEg3MGEuNDguNDgsMCwwLDEtLjM0LS44MUw4NS41NSw2MC4xMWEuNDYuNDYsMCwwLDEsLjY3LDBMMTAyLjE0LDc2YS40Ny40NywwLDAsMS0uMzQuODFIOTcuNzNhLjQ3LjQ3LDAsMCwwLS40Ny40OFYxMDRBOC41Myw4LjUzLDAsMCwwLDk5Ljc2LDExMFoiLz48cGF0aCBjbGFzcz0iY2xzLTEiIGQ9Ik0xMzUsMTEwbDIuMzgsMi4zOGEuNDcuNDcsMCwwLDEtLjMzLjgxSDExOC4yNGE4LjU0LDguNTQsMCwwLDEtOC41NC04LjUzVjg2LjQ5YS40Ny40NywwLDAsMC0uNDctLjQ3aC00LjA3YS40Ny40NywwLDAsMS0uMzMtLjgxbDE1LjkyLTE1LjkzYS40OC40OCwwLDAsMSwuNjcsMGwxNS45MiwxNS45M0EuNDcuNDcsMCwwLDEsMTM3LDg2aC00LjA4YS40Ny40NywwLDAsMC0uNDcuNDdWMTA0QTguNTMsOC41MywwLDAsMCwxMzUsMTEwWiIvPjwvZz48L2c+PC9zdmc+;" parent="QUUbvTBbF0khpcAF6eAY-50" vertex="1">
          <mxGeometry x="6.5" y="9.549999999999955" width="32" height="20.9" as="geometry" />
        </mxCell>
        <mxCell id="QUUbvTBbF0khpcAF6eAY-53" value="" style="group;" parent="7BcbjyJo5ydgNHTcu2xo-1" vertex="1" connectable="0">
          <mxGeometry x="-389.99999999999955" y="510" width="234.62075620767496" height="40" as="geometry" />
        </mxCell>
        <mxCell id="QUUbvTBbF0khpcAF6eAY-54" value="&lt;font color=&quot;#172b4d&quot;&gt;&lt;span style=&quot;font-size: 11px ; line-height: 1&quot;&gt;GraphCMS&lt;br&gt;&lt;/span&gt;&lt;/font&gt;" style="whiteSpace=wrap;html=1;fontFamily=Roboto Mono;align=left;fontSize=14;spacingLeft=8;dashed=1;dashPattern=1 1;fontSource=https%3A%2F%2Ffonts.googleapis.com%2Fcss%3Ffamily%3DRoboto%2BMono;spacing=0;spacingBottom=4;" parent="QUUbvTBbF0khpcAF6eAY-53" vertex="1">
          <mxGeometry x="54.62075620767496" width="180" height="40" as="geometry" />
        </mxCell>
        <mxCell id="QUUbvTBbF0khpcAF6eAY-55" value="" style="group;" parent="QUUbvTBbF0khpcAF6eAY-53" vertex="1" connectable="0">
          <mxGeometry width="45" height="40" as="geometry" />
        </mxCell>
        <mxCell id="QUUbvTBbF0khpcAF6eAY-56" value="" style="whiteSpace=wrap;html=1;dashed=1;dashPattern=1 1;fontFamily=Roboto Mono;fontSource=https%3A%2F%2Ffonts.googleapis.com%2Fcss%3Ffamily%3DRoboto%2BMono;strokeWidth=1;fillColor=none;align=left;verticalAlign=middle;noLabel=1;connectable=1;allowArrows=1;snapToPoint=1;fontSize=11;" parent="QUUbvTBbF0khpcAF6eAY-55" vertex="1">
          <mxGeometry width="45" height="40" as="geometry" />
        </mxCell>
        <mxCell id="QUUbvTBbF0khpcAF6eAY-57" value="" style="shape=image;verticalLabelPosition=bottom;verticalAlign=top;aspect=fixed;imageAspect=0;image=data:image/png,iVBORw0KGgoAAAANSUhEUgAAAMgAAADICAIAAAAiOjnJAAALyElEQVR4nOzde1RU9frHcYeZYbgjYqCIooaE5j2lTJP1s0grzSwvpUTknRSU2zDMyJ0ZYAi8kCKKWpAmkaHmhdS0DCzvoj+pTM8hTQspiYNyyQHPOsfWOisXygx+n9mz9/68/mae9SzXe82Me76zR2br5N0JgDUrrhcAYUJYQAJhAQmEBSQQFpBAWEACYQEJhAUkEBaQQFhAAmEBCYQFJBAWkEBYQAJhAQmEBSQQFpBAWEACYQEJhAUkEBaQQFhAAmEBCYQFJBAWkEBYQAJhAQmEBSQQFpBAWEACYQEJhAUkEBaQQFhAAmEBCYRlVjY2Cq5XMBOpXNGF6x1E5OC+Irlcfqai8s6dO1zvQgvPWGbl6uqyIivxaPnOAf19uN6FFsLiwID+Pt+W7VyRleTq6sL1LlQQFjdkMun8uTPPnToQuuhtuVzG9TrsISwude7slKFTn/h2z5TJE2xtbbhehyWExb1+3n02F+RUnNz3+vSXJRKut2EEYVkKzx7dN67P+rQ4v7eXJ9e7MICwLMv4AP9Tx0qTE6IcHOy53uWhICzzMuLqlY2NIipiwf69W8yxDxmEZV5Gv4VycnKg3YQYwgISCAtIICwggbCABMICEggLSCAs87G2liusrY39a56f10JYZjJpYsCpo3s9PLoZ+wCef2gowAMblmbQQF99mtp/7CiuFzErhEXIydFBmxITHDRNKpVyvYu5ISwqU199KTU5ulfPHlwvwg2ExZiVlVVQ4NTgoKl+I4dxvQuXEBZL/mOf0qdpBg305XoR7iEsNvr26aVLVb08MYDrRSwFwnpYMplUGRkSHRmiUBh9jUoEENZDCXhubIYu1vcxb64XsTgIq4N8fPpmaNXjn/fnehELhbBM5tLZWR0bOn/OLEF+H5AV/NOYQCaTzp09c1lsWJcunbnexdIhLKNIJJLRo0asWp7s64u3U0ZBWO17ym+4Pl0z4onBXC/CJwjrQXp6eqQkRU+fOpHrRfgHYbXNzs42MnzB0tA5ArulgtkgrHtJJJI3ZkxOTojy8HBnO7n2jzprudze3s6ov8ZBPyHp7eVZtCU3Py+TbVUGQ8u6/M2DhwVcr/nN2MfgoJ8wODjYR0cuDF30to2C8W1CD315RBmrPV95ge1YC4ew/vPaFzhzSlJ8ZLdubmwnV1fXhIbH79p9gO1YXhB7WKOeHK5PX/bE8EFsxxoMhvUbP0rVraytrWM7mS/EG9aY0SNXZif3Z33Bs6mpOWf1psys3Ju3GthO5hcxhuXq6hKnXjo7eIZMxvgo+vYdn6vj0qt++pntWD4SV1hymWz+vECNanHnzs5sJ589951SpT1cdpTtWP4SUVjjA/zTderHfPqyHdvY2JSYkr0694PW1la2k3lNLGGNGT2y5JN85mO3lezRxOkvX7lq7AOMv+zJ8wukYglLLpezHXjq9DllrO7INydMe5jxlz1xgVRsfvn1emJy1odbSgT/ezgPA2GZoKmpadV7mzKz194S96UEYyAsoxgMho3vF2WvXH/5stFvp8QNYbVv/4HDMZq077+/yPUifIKwHuTChX+oNGml+77kehH+QVhtq62t02Xk5K3fbDAYuN6FlxBWG/aWHpq3UHmj9g+uF+ExHPRrQ/k3J1DVQ0JYQAJhAQmEBSQQFpBAWEACYQEJhAUkEFbHyWTSdxYGTZk8wYTHiOagH8LqoIDnnjl2ZNe7GXEuLqYcn8dBP7ifft590nWxL4z/P64XsWgIywTOzo7qmNAF8wOtWR90Fh6EZRRbG5ulYXPVqlCpFG8ejIKw2vffX8VR9urpwfUifIKwHmTY0Mcz05c9PWoE14vwD8Jqm7tb18T4yDdnvWplhde+jkBYbZg86fmYqBBHRwf2o0VzHQthtWHkiCFUo0VzHQvP80ACYQEJhAUkEBaQQFhAAmEBCYQFJHAdq+MaG5tW5mwo+ngn14tYIoTVQcXbdi9L0F+5co3rRSwUwjLZyVNnlSrtN0dPcb2IRUNYJjhfeWHFqvwtW7fjJpHtQlhGuXHjD236qty8Qq4X4Q2E1Y7btw3rN2zRpq8S7a/idAzCepDP93+lUqf9cOES14vwD8Jq2/c/XFJpdPv2H+Z6Eb5CWPe6efNWQnL2+g2bDYYWtpOHDB5gwm/48Py/B7jy/je79nwx6pnJuXkFbKtyc3NdnaMt+7LExfiweH7QD89Yf6msvKBU6w4eKmc71tpavigkOCYqxMnJke1kC4ewOv1+ozZVuzJ/09aWFsavfU/6DcvPy3y0rxfbsbwg6rCu/VIdn/juR0U7mF/wHDPaLzNdM2TwALZjeUSkYbW2tubmFSSmLGf+qzhevTx1KTFTXjHlFjRCJMawjh47Ha1KPXHyLNux9vZ20RELwxbPtrFRsJ3MR+IK6+rVX+MSM4uKd7J96ZNIJDNffyU5IbJ7d3eWc/lMLGE1NjbpMt7LXrGuoaGR7eQ+vXuuydH6jx3FdizfP+eW2Dp5c70DXzk62isjQxa/E6xQMH7t++JgWYxaV/ndj2zHmpNYnrHYsrKyCgp8LWFZhLt7V7aTL16qUqnT9pQeZDvW/BCWyZ4Z46dPY38p4c/bt/PWfajLyKmrq2c7mRMIywQvvTBu7pyZ4wP82Y5taGhck1dQ+OG2Hy/+k+1kDiEso7i7P5IUFxH05lS2Y+/cuVNU/FlcYubVq7+yncw5hNUOhUIRtujtqMiFjg72bCcfO3FGqdIeO36G7VgLgbAeZMorE7TJMb29PNmOra+/uSQioaj4M75fU3gAhNW2oUMe16drxjw9ku3Y1tbWws2fJqZkV1fXsJ1saRDWvZydHdO1aoqbRJYdOa5Uac9UnGc71jIhrP+RSCQzpk1KSYzu0aMb28lVP/2sic8o2V7KdqwlQ1h/8Rs5VJ+u8RsxlO3Y+vpbmdlrc1ZvbG7+k+1kC4ewOg0a6Bu+ZN6MaZMkEpbHgZubm3fvORgZkyL4t1NtEnVY/bz7pGlVL04Yx3zy9h2l6nh9VdUV5pP5QqRhyeWyWOXiiPD5zH8Vp6KiUhmr/br8GNuxvCPGsF6cMC5Nq+rn3Yft2OrqmqSU5QWbt7W2trKdzEfiCmtA/34ZOvWz48awHdvc3Pzemvf17+bW37zFdjJ/iSUsV1eXOPWS2cGvy2RStpOPn6h4J0xz/vwPbMfynfDDkstkC+YHqmMWm/AtZONcu1Ydl5i59eOdAv5kpsMEHtaggb6Fm1b6+PRlO7axqWlVzobM7DzmB50FQ7Bhde3aJWFZeHDQNKmU8WvftpI9mnj95ctX2Y4VGAGG5dmje2pS9PRpk5hP/qCwOCE5+/r135hPFh5BhWVraxOxZF74knl2drZsJ1+8VBWrSdu9l/dH0c1GOGFNnzoxNUnp6dmd7di6f9Wn61fnri348/ZttpOFTQhh9ezpoU/TTJ70PNuxLS0tHxR+kpS6vKbmd7aTxYDfYdnZ2UaFL1gSOsfW1obt5K/LjkartGfPfcd2rHjwOyxV9KKIpfPYnsi7XvP70sjE7TtEdHaKglSu6ML1Dh136Ksj+w4c7u/bj8lbK4OhJX/jR7PeCj19+v9ZbCdqAvmK/aw3pmTp4x7mrnkC+Fa7RRFIWJ06dXJ7xPXNWa+Fhc55pKtpz8ElO0o3bNrK/CaRIiecsO5ydnJUKReFLAiytm7/oNWZivPKWG1Z+XGzrCYuQgvrrkcf9UpLjZ344rP3+4OGhsb4pKy16wpxdooIv9+8309tbV3xtl1Hvj05ZPAAN7e/3RDm7rfap88MOXioHKcS6AgzrLuqqq5sfH+rTCp7YvhgmUx291vtgW+FrVlbUF9/k+vtBE6YL4X38OrVQ60KO/RVedHHQv5Wu0URRVhgfvjJEyCBsIAEwgISCAtIICwggbCABMICEggLSCAsIIGwgATCAhIIC0ggLCCBsIAEwgISCAtIICwggbCABMICEggLSCAsIIGwgATCAhIIC0ggLCCBsIAEwgISCAtIICwggbCABMICEggLSCAsIIGwgATCAhL/DgAA//8OFzb1PgB4EAAAAABJRU5ErkJggg==;allowArrows=0;connectable=0;" parent="QUUbvTBbF0khpcAF6eAY-55" vertex="1">
          <mxGeometry x="7.5" y="5" width="30" height="30" as="geometry" />
        </mxCell>
        <mxCell id="QUUbvTBbF0khpcAF6eAY-28" value="" style="group;connectable=1;snapToPoint=1;" parent="7BcbjyJo5ydgNHTcu2xo-1" vertex="1" connectable="0">
          <mxGeometry x="-390.00000000000045" y="315" width="233.85075620767498" height="40" as="geometry" />
        </mxCell>
        <mxCell id="QUUbvTBbF0khpcAF6eAY-29" value="" style="group;" parent="QUUbvTBbF0khpcAF6eAY-28" vertex="1" connectable="0">
          <mxGeometry width="45" height="40" as="geometry" />
        </mxCell>
        <mxCell id="QUUbvTBbF0khpcAF6eAY-30" value="" style="shape=image;verticalLabelPosition=bottom;verticalAlign=top;aspect=fixed;imageAspect=0;image=data:image/svg+xml,PHN2ZyB4bWxucz0iaHR0cDovL3d3dy53My5vcmcvMjAwMC9zdmciIHhtbG5zOnhsaW5rPSJodHRwOi8vd3d3LnczLm9yZy8xOTk5L3hsaW5rIiB2aWV3Qm94PSIwLjgzMDAwMDA0MjkxNTM0NDIgMC43MzAwMDAwMTkwNzM0ODYzIDMwLjU1OTk5OTQ2NTk0MjM4MyAzMC41NDAwMDA5MTU1MjczNDQiIHdpZHRoPSIzMC41NTk5OTk0NjU5NDIzODMiIGhlaWdodD0iMzAuNTQwMDAwOTE1NTI3MzQ0Ij48ZGVmcz48Y2xpcFBhdGggaWQ9ImEiPjxwYXRoIGQ9Ik0yMy42Miw4LjI1YS42NC42NCwwLDAsMC0uNzQtLjUxaDBhLjYxLjYxLDAsMCwwLS4zNC4xN2wtMy4zMSwzLjMyLTIuNTYtNUEuNjMuNjMsMCwwLDAsMTUuODIsNmgwYS42Mi42MiwwLDAsMC0uMjcuMjZMMTQuMTMsOSwxMC41NSwyLjMzYS42My42MywwLDAsMC0uODYtLjI1LjYyLjYyLDAsMCwwLS4zMi40Nkw1Ljg4LDI0LjU5bDkuMjIsNS4xN2EyLDIsMCwwLDAsMS44NiwwbDkuMzQtNS4xN1oiIHN0eWxlPSJmaWxsOm5vbmUiLz48L2NsaXBQYXRoPjxsaW5lYXJHcmFkaWVudCBpZD0iYiIgeDE9IjkuODkiIHkxPSIxNS4wNCIgeDI9IjguNjIiIHkyPSIxNC4zNyIgZ3JhZGllbnRUcmFuc2Zvcm09InRyYW5zbGF0ZSgwIDIpIiBncmFkaWVudFVuaXRzPSJ1c2VyU3BhY2VPblVzZSI+PHN0b3Agb2Zmc2V0PSIwIiBzdG9wLWNvbG9yPSIjYTUyYTIyIi8+PHN0b3Agb2Zmc2V0PSIwLjQiIHN0b3AtY29sb3I9IiNhNTJhMjIiIHN0b3Atb3BhY2l0eT0iMC41Ii8+PHN0b3Agb2Zmc2V0PSIwLjgiIHN0b3AtY29sb3I9IiNhNTJhMjIiIHN0b3Atb3BhY2l0eT0iMCIvPjwvbGluZWFyR3JhZGllbnQ+PGxpbmVhckdyYWRpZW50IGlkPSJjIiB4MT0iMTUuMjkiIHkxPSIxMy4yIiB4Mj0iMTQuNzEiIHkyPSIxMi42MyIgZ3JhZGllbnRUcmFuc2Zvcm09InRyYW5zbGF0ZSgwIDIpIiBncmFkaWVudFVuaXRzPSJ1c2VyU3BhY2VPblVzZSI+PHN0b3Agb2Zmc2V0PSIwIiBzdG9wLWNvbG9yPSIjYTUyYTIyIiBzdG9wLW9wYWNpdHk9IjAuOCIvPjxzdG9wIG9mZnNldD0iMC41IiBzdG9wLWNvbG9yPSIjYTUyYTIyIiBzdG9wLW9wYWNpdHk9IjAuMjEiLz48c3RvcCBvZmZzZXQ9IjEiIHN0b3AtY29sb3I9IiNhNTJhMjIiIHN0b3Atb3BhY2l0eT0iMCIvPjwvbGluZWFyR3JhZGllbnQ+PGxpbmVhckdyYWRpZW50IGlkPSJkIiB4MT0iNS4zNSIgeTE9IjQuOTQiIHgyPSIyNi42MyIgeTI9IjI2LjIxIiBncmFkaWVudFRyYW5zZm9ybT0idHJhbnNsYXRlKDAgMikiIGdyYWRpZW50VW5pdHM9InVzZXJTcGFjZU9uVXNlIj48c3RvcCBvZmZzZXQ9IjAiIHN0b3AtY29sb3I9IiNmZmYiIHN0b3Atb3BhY2l0eT0iMC4xIi8+PHN0b3Agb2Zmc2V0PSIxIiBzdG9wLWNvbG9yPSIjZmZmIiBzdG9wLW9wYWNpdHk9IjAiLz48L2xpbmVhckdyYWRpZW50PjwvZGVmcz48dGl0bGU+ZmlsZV90eXBlX2xpZ2h0X2ZpcmViYXNlaG9zdGluZzwvdGl0bGU+PGcgc3R5bGU9ImNsaXAtcGF0aDp1cmwoI2EpIj48cGF0aCBkPSJNNS44OCwyNC41OWwzLjQ5LTIyYS42NC42NCwwLDAsMSwuNy0uNTVoMGEuNjIuNjIsMCwwLDEsLjQ2LjMyTDE0LjEzLDlsMS40Mi0yLjcxQS42My42MywwLDAsMSwxNi40LDZoMGEuNTcuNTcsMCwwLDEsLjI3LjI2bDkuNjIsMTguMzNaIiBzdHlsZT0iZmlsbDojZjlhMDFiIi8+PHBhdGggZD0iTTE3LjcsMi4xNi44My43M1YzMS4yN2w1LjA1LTYuNjhaIiBzdHlsZT0ib3BhY2l0eTowLjExOTk5OTk5NzMxNzc5MDk5O2lzb2xhdGlvbjppc29sYXRlO2ZpbGw6dXJsKCNiKSIvPjxwYXRoIGQ9Ik0xNy44MywxNiwxNC4xLDksNS44OCwyNC41OVoiIHN0eWxlPSJmaWxsOiNmNDdkMjAiLz48cGF0aCBkPSJNLjgzLjczSDMxLjM5VjMxLjI3SC44M1oiIHN0eWxlPSJvcGFjaXR5OjAuMjAwMDAwMDAyOTgwMjMyMjQ7aXNvbGF0aW9uOmlzb2xhdGU7ZmlsbDp1cmwoI2MpIi8+PHBhdGggZD0iTTI2LjI5LDI0LjU5LDIzLjYyLDguMjVhLjY0LjY0LDAsMCwwLS43NC0uNTFoMGEuNjEuNjEsMCwwLDAtLjM0LjE3TDUuODgsMjQuNTlsOS4yMiw1LjE3YTEuODcsMS44NywwLDAsMCwxLjg2LDBaIiBzdHlsZT0iZmlsbDojZmZjYjJhIi8+PHBhdGggZD0iTTIzLjYyLDguMjVhLjY0LjY0LDAsMCwwLS43NC0uNTFoMGEuNjEuNjEsMCwwLDAtLjM0LjE3bC0zLjMxLDMuMzItMi41Ni01QS42My42MywwLDAsMCwxNS44Miw2aDBhLjYyLjYyLDAsMCwwLS4yNy4yNkwxNC4xMyw5LDEwLjU1LDIuMzNhLjYzLjYzLDAsMCwwLS44Ni0uMjUuNjIuNjIsMCwwLDAtLjMyLjQ2TDUuODgsMjQuNTloMGwuMSwwTDE5LjI2LDExLjM5bDMuMzEtMy4zMkEuNjQuNjQsMCwwLDEsMjMuNDYsOGEuMTIuMTIsMCwwLDAsLjA1LjA1LjY4LjY4LDAsMCwxLC4xNy4zNUwyNi4zMSwyNC42aDBaTTUuODgsMjQuNTYsOS4zNywyLjdhLjY0LjY0LDAsMCwxLC43NC0uNTIuNjIuNjIsMCwwLDEsLjQ0LjMxbDMuNTcsNi42NSwxLjQyLTIuNzFhLjYyLjYyLDAsMCwxLC44NS0uMjZoMGEuNTkuNTksMCwwLDEsLjI4LjI2bDIuNTQsNC44NVoiIHN0eWxlPSJmaWxsOiNmZmY7ZmlsbC1vcGFjaXR5OjAuMjAwMDAwMDAyOTgwMjMyMjQiLz48cGF0aCBkPSJNMTcsMjkuNmExLjg5LDEuODksMCwwLDEtMS44NywwTDYsMjQuNDV2LjE0bDkuMjEsNS4xN2EyLDIsMCwwLDAsMS44NywwbDkuMzMtNS4xN3YtLjE0WiIgc3R5bGU9ImZpbGw6I2E1MmEyMjtvcGFjaXR5OjAuMjAwMDAwMDAyOTgwMjMyMjQ7aXNvbGF0aW9uOmlzb2xhdGUiLz48cGF0aCBkPSJNMjMuNjIsOC4yNWEuNjQuNjQsMCwwLDAtLjc0LS41MWgwYS42MS42MSwwLDAsMC0uMzQuMTdsLTMuMzEsMy4zMi0yLjU2LTVBLjYzLjYzLDAsMCwwLDE1LjgyLDZoMGEuNjIuNjIsMCwwLDAtLjI3LjI2TDE0LjEzLDksMTAuNTUsMi4zM2EuNjMuNjMsMCwwLDAtLjg2LS4yNS42Mi42MiwwLDAsMC0uMzIuNDZMNS44OCwyNC41OWw5LjIyLDUuMTdhMiwyLDAsMCwwLDEuODYsMGw5LjM0LTUuMTdaIiBzdHlsZT0iZmlsbDp1cmwoI2QpIi8+PC9nPjxjaXJjbGUgY3g9IjIzLjc1IiBjeT0iMjMuNjMiIHI9IjYuMzciIHN0eWxlPSJmaWxsOiM3Njc2NzYiLz48cGF0aCBkPSJNMjMuNzUsMjAuNDVhMy4xOSwzLjE5LDAsMSwwLDMuMTgsMy4xOGgwQTMuMTgsMy4xOCwwLDAsMCwyMy43NSwyMC40NVptLS4zMiw1LjcxYTIuNTUsMi41NSwwLDAsMS0yLjIzLTIuNTMsMi43OCwyLjc4LDAsMCwxLC4wNy0uNTdsMS41MiwxLjUzdi4zMmEuNjQuNjQsMCwwLDAsLjY0LjY0Wm0yLjItLjgzYS42NS42NSwwLDAsMC0uNjEtLjQ0SDI0LjdWMjRhLjMyLjMyLDAsMCwwLS4zMi0uMzJIMjIuNDdWMjNoLjY0YS4zMi4zMiwwLDAsMCwuMzItLjMydi0uNjNoLjY0YS42NC42NCwwLDAsMCwuNjMtLjY0di0uMTNhMi41NSwyLjU1LDAsMCwxLDEuNDEsMy4zMiwyLjY0LDIuNjQsMCwwLDEtLjQ3Ljc1WiIgc3R5bGU9ImZpbGw6I2ZmZjtmaWxsLXJ1bGU6ZXZlbm9kZCIvPjwvc3ZnPg==;" parent="QUUbvTBbF0khpcAF6eAY-29" vertex="1">
          <mxGeometry x="7.5" y="5" width="30" height="30" as="geometry" />
        </mxCell>
        <mxCell id="QUUbvTBbF0khpcAF6eAY-31" value="" style="whiteSpace=wrap;html=1;dashed=1;dashPattern=1 1;fontFamily=Roboto Mono;fontSource=https%3A%2F%2Ffonts.googleapis.com%2Fcss%3Ffamily%3DRoboto%2BMono;strokeWidth=1;fillColor=none;align=left;verticalAlign=middle;noLabel=1;connectable=1;allowArrows=1;snapToPoint=1;" parent="QUUbvTBbF0khpcAF6eAY-29" vertex="1">
          <mxGeometry width="45" height="40" as="geometry" />
        </mxCell>
        <mxCell id="QUUbvTBbF0khpcAF6eAY-32" value="&lt;font color=&quot;#172b4d&quot;&gt;&lt;span style=&quot;font-size: 11px ; line-height: 1&quot;&gt;Firebase Hosting&lt;/span&gt;&lt;/font&gt;" style="whiteSpace=wrap;html=1;fontFamily=Roboto Mono;align=left;fontSize=14;spacingLeft=8;dashed=1;dashPattern=1 1;fontSource=https%3A%2F%2Ffonts.googleapis.com%2Fcss%3Ffamily%3DRoboto%2BMono;spacing=0;spacingBottom=4;" parent="QUUbvTBbF0khpcAF6eAY-28" vertex="1">
          <mxGeometry x="53.850756207674976" width="180" height="40" as="geometry" />
        </mxCell>
        <mxCell id="QUUbvTBbF0khpcAF6eAY-33" value="" style="group;connectable=1;snapToPoint=1;" parent="7BcbjyJo5ydgNHTcu2xo-1" vertex="1" connectable="0">
          <mxGeometry x="-388.9400000000006" y="377" width="232.79075620767514" height="40" as="geometry" />
        </mxCell>
        <mxCell id="QUUbvTBbF0khpcAF6eAY-34" value="" style="group;" parent="QUUbvTBbF0khpcAF6eAY-33" vertex="1" connectable="0">
          <mxGeometry width="45" height="40" as="geometry" />
        </mxCell>
        <mxCell id="QUUbvTBbF0khpcAF6eAY-35" value="" style="shape=image;verticalLabelPosition=bottom;verticalAlign=top;aspect=fixed;imageAspect=0;image=data:image/svg+xml,PHN2ZyB4bWxucz0iaHR0cDovL3d3dy53My5vcmcvMjAwMC9zdmciIHZpZXdCb3g9IjE2IDQ4IDQ4MCA0MTYiIHdpZHRoPSI0ODAiIGhlaWdodD0iNDE2Ij48cGF0aCBmaWxsLXJ1bGU9ImV2ZW5vZGQiIGQ9Ik0yNTYsNDgsNDk2LDQ2NEgxNloiLz48L3N2Zz4=;" parent="QUUbvTBbF0khpcAF6eAY-34" vertex="1">
          <mxGeometry x="5.190000000000055" y="5" width="34.62" height="30" as="geometry" />
        </mxCell>
        <mxCell id="QUUbvTBbF0khpcAF6eAY-36" value="" style="whiteSpace=wrap;html=1;dashed=1;dashPattern=1 1;fontFamily=Roboto Mono;fontSource=https%3A%2F%2Ffonts.googleapis.com%2Fcss%3Ffamily%3DRoboto%2BMono;strokeWidth=1;fillColor=none;align=left;verticalAlign=middle;noLabel=1;connectable=1;allowArrows=1;snapToPoint=1;" parent="QUUbvTBbF0khpcAF6eAY-34" vertex="1">
          <mxGeometry width="45" height="40" as="geometry" />
        </mxCell>
        <mxCell id="QUUbvTBbF0khpcAF6eAY-37" value="&lt;font color=&quot;#172b4d&quot;&gt;&lt;span style=&quot;font-size: 11px ; line-height: 1&quot;&gt;Vercel Hosting&lt;/span&gt;&lt;/font&gt;" style="whiteSpace=wrap;html=1;fontFamily=Roboto Mono;align=left;fontSize=14;spacingLeft=8;dashed=1;dashPattern=1 1;fontSource=https%3A%2F%2Ffonts.googleapis.com%2Fcss%3Ffamily%3DRoboto%2BMono;spacing=0;spacingBottom=4;" parent="QUUbvTBbF0khpcAF6eAY-33" vertex="1">
          <mxGeometry x="52.790756207675145" width="180" height="40" as="geometry" />
        </mxCell>
        <mxCell id="QUUbvTBbF0khpcAF6eAY-38" value="" style="group;connectable=1;snapToPoint=1;" parent="7BcbjyJo5ydgNHTcu2xo-1" vertex="1" connectable="0">
          <mxGeometry x="-390.00000000000045" y="260" width="233.85075620767498" height="40" as="geometry" />
        </mxCell>
        <mxCell id="QUUbvTBbF0khpcAF6eAY-39" value="&lt;font color=&quot;#172b4d&quot;&gt;&lt;span style=&quot;font-size: 11px ; line-height: 1&quot;&gt;HOSTING&lt;/span&gt;&lt;/font&gt;" style="whiteSpace=wrap;html=1;fontFamily=Roboto Mono;align=left;fontSize=14;spacingLeft=8;dashed=1;dashPattern=1 1;fontSource=https%3A%2F%2Ffonts.googleapis.com%2Fcss%3Ffamily%3DRoboto%2BMono;spacing=0;spacingBottom=4;connectable=0;allowArrows=0;" parent="QUUbvTBbF0khpcAF6eAY-38" vertex="1">
          <mxGeometry x="53.850756207674976" width="180" height="40" as="geometry" />
        </mxCell>
        <mxCell id="QUUbvTBbF0khpcAF6eAY-40" value="" style="group;allowArrows=0;" parent="QUUbvTBbF0khpcAF6eAY-38" vertex="1" connectable="0">
          <mxGeometry width="45" height="40" as="geometry" />
        </mxCell>
        <mxCell id="QUUbvTBbF0khpcAF6eAY-41" value="" style="whiteSpace=wrap;html=1;dashed=1;dashPattern=1 1;fontFamily=Roboto Mono;fontSource=https%3A%2F%2Ffonts.googleapis.com%2Fcss%3Ffamily%3DRoboto%2BMono;strokeWidth=1;align=left;verticalAlign=middle;noLabel=1;connectable=1;allowArrows=1;snapToPoint=1;fillColor=none;" parent="QUUbvTBbF0khpcAF6eAY-40" vertex="1">
          <mxGeometry width="45" height="40" as="geometry" />
        </mxCell>
        <mxCell id="QUUbvTBbF0khpcAF6eAY-42" value="" style="verticalLabelPosition=bottom;html=1;verticalAlign=top;align=center;strokeColor=default;shape=mxgraph.azure.azure_website;pointerEvents=1;aspect=fixed;fontFamily=Roboto Mono;fontSource=https%3A%2F%2Ffonts.googleapis.com%2Fcss%3Ffamily%3DRoboto%2BMono;fillColor=#808080;" parent="QUUbvTBbF0khpcAF6eAY-40" vertex="1">
          <mxGeometry x="6.730000000000018" y="5" width="30" height="30" as="geometry" />
        </mxCell>
        <mxCell id="QUUbvTBbF0khpcAF6eAY-47" value="" style="whiteSpace=wrap;html=1;dashed=1;dashPattern=1 1;fontFamily=Roboto Mono;fontSource=https%3A%2F%2Ffonts.googleapis.com%2Fcss%3Ffamily%3DRoboto%2BMono;strokeWidth=1;fillColor=#FFFFFF;align=left;verticalAlign=middle;noLabel=1;connectable=1;allowArrows=1;snapToPoint=1;" parent="7BcbjyJo5ydgNHTcu2xo-1" vertex="1">
          <mxGeometry x="-389.99500000000035" y="460" width="45" height="40" as="geometry" />
        </mxCell>
        <mxCell id="QUUbvTBbF0khpcAF6eAY-43" value="" style="group;connectable=1;snapToPoint=1;" parent="7BcbjyJo5ydgNHTcu2xo-1" vertex="1" connectable="0">
          <mxGeometry x="-389.99000000000046" y="460" width="232.45075620767494" height="40" as="geometry" />
        </mxCell>
        <mxCell id="QUUbvTBbF0khpcAF6eAY-44" value="&lt;font color=&quot;#172b4d&quot;&gt;&lt;span style=&quot;font-size: 11px ; line-height: 1&quot;&gt;Cloud Run Hosting&lt;/span&gt;&lt;/font&gt;" style="whiteSpace=wrap;html=1;fontFamily=Roboto Mono;align=left;fontSize=14;spacingLeft=8;dashed=1;dashPattern=1 1;fontSource=https%3A%2F%2Ffonts.googleapis.com%2Fcss%3Ffamily%3DRoboto%2BMono;spacing=0;spacingBottom=4;allowArrows=0;" parent="QUUbvTBbF0khpcAF6eAY-43" vertex="1">
          <mxGeometry x="52.45075620767494" width="180" height="40" as="geometry" />
        </mxCell>
        <mxCell id="QUUbvTBbF0khpcAF6eAY-46" value="" style="html=1;strokeColor=none;verticalAlign=top;labelPosition=center;verticalLabelPosition=bottom;align=center;spacingTop=-6;fontSize=11;fontStyle=1;shape=mxgraph.gcp2.hexIcon;prIcon=cloud_run;labelBackgroundColor=none;fontFamily=Roboto Mono;fontSource=https%3A%2F%2Ffonts.googleapis.com%2Fcss%3Ffamily%3DRoboto%2BMono;aspect=fixed;dashed=1;dashPattern=1 1;fillColor=#007FFF;" parent="QUUbvTBbF0khpcAF6eAY-43" vertex="1">
          <mxGeometry width="45.13" height="40" as="geometry" />
        </mxCell>
        <mxCell id="HWghIWy3OGOwD7E_o3oW-0" value="" style="group" parent="7BcbjyJo5ydgNHTcu2xo-1" vertex="1" connectable="0">
          <mxGeometry x="-1854" y="50" width="80" height="80" as="geometry" />
        </mxCell>
        <mxCell id="HWghIWy3OGOwD7E_o3oW-1" value="dashboard" style="rounded=0;whiteSpace=wrap;html=1;fillColor=#FFFFFF;verticalAlign=bottom;strokeColor=#7D7D7D;" parent="HWghIWy3OGOwD7E_o3oW-0" vertex="1">
          <mxGeometry width="80" height="80" as="geometry" />
        </mxCell>
        <mxCell id="HWghIWy3OGOwD7E_o3oW-2" value="" style="pointerEvents=1;shadow=0;dashed=0;html=1;strokeColor=none;labelPosition=center;verticalLabelPosition=bottom;verticalAlign=top;align=center;shape=mxgraph.mscae.intune.dashboard;fillColor=#7D7D7D;" parent="HWghIWy3OGOwD7E_o3oW-0" vertex="1">
          <mxGeometry x="14" y="18" width="50" height="40" as="geometry" />
        </mxCell>
        <mxCell id="HWghIWy3OGOwD7E_o3oW-3" value="" style="group" parent="7BcbjyJo5ydgNHTcu2xo-1" vertex="1" connectable="0">
          <mxGeometry x="-2160" y="50" width="80" height="80" as="geometry" />
        </mxCell>
        <mxCell id="HWghIWy3OGOwD7E_o3oW-4" value="newsletter" style="rounded=0;whiteSpace=wrap;html=1;fillColor=#FFFFFF;verticalAlign=bottom;strokeColor=#7D7D7D;" parent="HWghIWy3OGOwD7E_o3oW-3" vertex="1">
          <mxGeometry width="80" height="80" as="geometry" />
        </mxCell>
        <mxCell id="HWghIWy3OGOwD7E_o3oW-5" value="" style="group" parent="HWghIWy3OGOwD7E_o3oW-3" vertex="1" connectable="0">
          <mxGeometry x="15" y="16" width="50" height="43" as="geometry" />
        </mxCell>
        <mxCell id="HWghIWy3OGOwD7E_o3oW-6" value="" style="aspect=fixed;pointerEvents=1;shadow=0;dashed=0;html=1;strokeColor=none;labelPosition=center;verticalLabelPosition=bottom;verticalAlign=top;align=center;shape=mxgraph.mscae.enterprise.application_blank;fillColor=#7D7D7D;" parent="HWghIWy3OGOwD7E_o3oW-5" vertex="1">
          <mxGeometry width="38.37" height="33" as="geometry" />
        </mxCell>
        <mxCell id="HWghIWy3OGOwD7E_o3oW-7" value="" style="shape=image;html=1;verticalAlign=top;verticalLabelPosition=bottom;labelBackgroundColor=#ffffff;imageAspect=0;aspect=fixed;image=https://cdn2.iconfinder.com/data/icons/essential-web-3/50/mail-envelope-email-newsletter-letter-128.png;imageBackground=#ffffff;" parent="HWghIWy3OGOwD7E_o3oW-5" vertex="1">
          <mxGeometry x="20" y="13" width="30" height="30" as="geometry" />
        </mxCell>
        <mxCell id="HWghIWy3OGOwD7E_o3oW-8" value="" style="group" parent="7BcbjyJo5ydgNHTcu2xo-1" vertex="1" connectable="0">
          <mxGeometry x="-2020" y="170" width="80" height="80" as="geometry" />
        </mxCell>
        <mxCell id="HWghIWy3OGOwD7E_o3oW-9" value="earep.info" style="rounded=0;whiteSpace=wrap;html=1;fillColor=#FFFFFF;verticalAlign=bottom;strokeColor=#7D7D7D;" parent="HWghIWy3OGOwD7E_o3oW-8" vertex="1">
          <mxGeometry width="80" height="80" as="geometry" />
        </mxCell>
        <mxCell id="HWghIWy3OGOwD7E_o3oW-10" value="" style="aspect=fixed;pointerEvents=1;shadow=0;dashed=0;html=1;strokeColor=none;labelPosition=center;verticalLabelPosition=bottom;verticalAlign=top;align=center;shape=mxgraph.mscae.enterprise.website_generic;fillColor=#7D7D7D;" parent="HWghIWy3OGOwD7E_o3oW-8" vertex="1">
          <mxGeometry x="20" y="8" width="53.41" height="47" as="geometry" />
        </mxCell>
        <mxCell id="HWghIWy3OGOwD7E_o3oW-11" value="" style="group" parent="7BcbjyJo5ydgNHTcu2xo-1" vertex="1" connectable="0">
          <mxGeometry x="-2062" y="50" width="80" height="80" as="geometry" />
        </mxCell>
        <mxCell id="HWghIWy3OGOwD7E_o3oW-12" value="analytics" style="rounded=0;whiteSpace=wrap;html=1;fillColor=#FFFFFF;verticalAlign=bottom;strokeColor=#7D7D7D;" parent="HWghIWy3OGOwD7E_o3oW-11" vertex="1">
          <mxGeometry width="80" height="80" as="geometry" />
        </mxCell>
        <mxCell id="HWghIWy3OGOwD7E_o3oW-13" value="" style="aspect=fixed;pointerEvents=1;shadow=0;dashed=0;html=1;strokeColor=none;labelPosition=center;verticalLabelPosition=bottom;verticalAlign=top;align=center;shape=mxgraph.mscae.enterprise.application_blank;fillColor=#7D7D7D;" parent="HWghIWy3OGOwD7E_o3oW-11" vertex="1">
          <mxGeometry x="16.450000000000045" y="12" width="47.09" height="40.5" as="geometry" />
        </mxCell>
        <mxCell id="HWghIWy3OGOwD7E_o3oW-14" value="" style="shape=image;html=1;verticalAlign=top;verticalLabelPosition=bottom;labelBackgroundColor=#ffffff;imageAspect=0;aspect=fixed;image=https://cdn0.iconfinder.com/data/icons/business-collection-2027/56/graph-8-128.png;fillColor=#7D7D7D;fontFamily=Verdana;imageBackground=#ffffff;" parent="HWghIWy3OGOwD7E_o3oW-11" vertex="1">
          <mxGeometry x="40" y="28" width="32" height="32" as="geometry" />
        </mxCell>
        <mxCell id="HWghIWy3OGOwD7E_o3oW-15" value="" style="group;fillColor=#fff2cc;strokeColor=#d6b656;" parent="7BcbjyJo5ydgNHTcu2xo-1" vertex="1" connectable="0">
          <mxGeometry x="-1966" y="50" width="80" height="80" as="geometry" />
        </mxCell>
        <mxCell id="HWghIWy3OGOwD7E_o3oW-16" value="subscribers" style="rounded=0;whiteSpace=wrap;html=1;fillColor=#FFFFFF;verticalAlign=bottom;strokeColor=#7D7D7D;" parent="HWghIWy3OGOwD7E_o3oW-15" vertex="1">
          <mxGeometry width="80" height="80" as="geometry" />
        </mxCell>
        <mxCell id="HWghIWy3OGOwD7E_o3oW-17" value="" style="aspect=fixed;pointerEvents=1;shadow=0;dashed=0;html=1;strokeColor=none;labelPosition=center;verticalLabelPosition=bottom;verticalAlign=top;align=center;shape=mxgraph.mscae.enterprise.application_blank;fillColor=#7D7D7D;" parent="HWghIWy3OGOwD7E_o3oW-15" vertex="1">
          <mxGeometry x="16.450000000000045" y="12" width="47.09" height="40.5" as="geometry" />
        </mxCell>
        <mxCell id="HWghIWy3OGOwD7E_o3oW-18" value="" style="pointerEvents=1;shadow=0;dashed=0;html=1;strokeColor=none;labelPosition=center;verticalLabelPosition=bottom;verticalAlign=top;outlineConnect=0;align=center;shape=mxgraph.office.users.users;fontFamily=Verdana;fillColor=#7D7D7D;" parent="HWghIWy3OGOwD7E_o3oW-15" vertex="1">
          <mxGeometry x="32" y="25" width="37" height="34" as="geometry" />
        </mxCell>
        <mxCell id="HWghIWy3OGOwD7E_o3oW-19" value="" style="group" parent="7BcbjyJo5ydgNHTcu2xo-1" vertex="1" connectable="0">
          <mxGeometry x="-1476" y="200" width="80" height="80" as="geometry" />
        </mxCell>
        <mxCell id="HWghIWy3OGOwD7E_o3oW-20" value="tools" style="rounded=0;whiteSpace=wrap;html=1;fillColor=#FFFFFF;verticalAlign=bottom;strokeColor=#7D7D7D;" parent="HWghIWy3OGOwD7E_o3oW-19" vertex="1">
          <mxGeometry width="80" height="80" as="geometry" />
        </mxCell>
        <mxCell id="HWghIWy3OGOwD7E_o3oW-21" value="" style="group" parent="HWghIWy3OGOwD7E_o3oW-19" vertex="1" connectable="0">
          <mxGeometry x="15" y="16" width="58" height="60" as="geometry" />
        </mxCell>
        <mxCell id="HWghIWy3OGOwD7E_o3oW-22" value="" style="aspect=fixed;pointerEvents=1;shadow=0;dashed=0;html=1;strokeColor=none;labelPosition=center;verticalLabelPosition=bottom;verticalAlign=top;align=center;shape=mxgraph.mscae.enterprise.application_blank;fillColor=#7D7D7D;" parent="HWghIWy3OGOwD7E_o3oW-21" vertex="1">
          <mxGeometry width="48" height="41.28" as="geometry" />
        </mxCell>
        <mxCell id="HWghIWy3OGOwD7E_o3oW-23" value="" style="shape=image;html=1;verticalAlign=top;verticalLabelPosition=bottom;labelBackgroundColor=#ffffff;imageAspect=0;aspect=fixed;image=https://cdn4.iconfinder.com/data/icons/vector-brand-logos/40/Trello-128.png;strokeColor=#7D7D7D;fillColor=#7D7D7D;fontFamily=Verdana;fontColor=#7D7D7D;" parent="HWghIWy3OGOwD7E_o3oW-21" vertex="1">
          <mxGeometry x="18" y="12" width="40" height="40" as="geometry" />
        </mxCell>
        <mxCell id="HWghIWy3OGOwD7E_o3oW-24" value="" style="group" parent="7BcbjyJo5ydgNHTcu2xo-1" vertex="1" connectable="0">
          <mxGeometry x="-1604" y="200" width="80" height="80" as="geometry" />
        </mxCell>
        <mxCell id="HWghIWy3OGOwD7E_o3oW-25" value="dashboard" style="rounded=0;whiteSpace=wrap;html=1;fillColor=#FFFFFF;verticalAlign=bottom;strokeColor=#7D7D7D;" parent="HWghIWy3OGOwD7E_o3oW-24" vertex="1">
          <mxGeometry width="80" height="80" as="geometry" />
        </mxCell>
        <mxCell id="HWghIWy3OGOwD7E_o3oW-26" value="" style="pointerEvents=1;shadow=0;dashed=0;html=1;strokeColor=none;labelPosition=center;verticalLabelPosition=bottom;verticalAlign=top;align=center;shape=mxgraph.mscae.intune.dashboard;fillColor=#7D7D7D;" parent="HWghIWy3OGOwD7E_o3oW-24" vertex="1">
          <mxGeometry x="14" y="18" width="50" height="40" as="geometry" />
        </mxCell>
        <mxCell id="HWghIWy3OGOwD7E_o3oW-27" value="" style="group" parent="7BcbjyJo5ydgNHTcu2xo-1" vertex="1" connectable="0">
          <mxGeometry x="-1648" y="50" width="80" height="80" as="geometry" />
        </mxCell>
        <mxCell id="HWghIWy3OGOwD7E_o3oW-28" value="newsletter" style="rounded=0;whiteSpace=wrap;html=1;fillColor=#FFFFFF;verticalAlign=bottom;strokeColor=#7D7D7D;" parent="HWghIWy3OGOwD7E_o3oW-27" vertex="1">
          <mxGeometry width="80" height="80" as="geometry" />
        </mxCell>
        <mxCell id="HWghIWy3OGOwD7E_o3oW-29" value="" style="group" parent="HWghIWy3OGOwD7E_o3oW-27" vertex="1" connectable="0">
          <mxGeometry x="15" y="16" width="50" height="43" as="geometry" />
        </mxCell>
        <mxCell id="HWghIWy3OGOwD7E_o3oW-30" value="" style="aspect=fixed;pointerEvents=1;shadow=0;dashed=0;html=1;strokeColor=none;labelPosition=center;verticalLabelPosition=bottom;verticalAlign=top;align=center;shape=mxgraph.mscae.enterprise.application_blank;fillColor=#7D7D7D;" parent="HWghIWy3OGOwD7E_o3oW-29" vertex="1">
          <mxGeometry width="38.37" height="33" as="geometry" />
        </mxCell>
        <mxCell id="HWghIWy3OGOwD7E_o3oW-31" value="" style="shape=image;html=1;verticalAlign=top;verticalLabelPosition=bottom;labelBackgroundColor=#ffffff;imageAspect=0;aspect=fixed;image=https://cdn2.iconfinder.com/data/icons/essential-web-3/50/mail-envelope-email-newsletter-letter-128.png;imageBackground=#ffffff;" parent="HWghIWy3OGOwD7E_o3oW-29" vertex="1">
          <mxGeometry x="20" y="13" width="30" height="30" as="geometry" />
        </mxCell>
        <mxCell id="HWghIWy3OGOwD7E_o3oW-32" value="" style="group" parent="7BcbjyJo5ydgNHTcu2xo-1" vertex="1" connectable="0">
          <mxGeometry x="-1750" y="50" width="80" height="80" as="geometry" />
        </mxCell>
        <mxCell id="HWghIWy3OGOwD7E_o3oW-33" value="website" style="rounded=0;whiteSpace=wrap;html=1;fillColor=#FFFFFF;verticalAlign=bottom;strokeColor=#7D7D7D;" parent="HWghIWy3OGOwD7E_o3oW-32" vertex="1">
          <mxGeometry width="80" height="80" as="geometry" />
        </mxCell>
        <mxCell id="HWghIWy3OGOwD7E_o3oW-34" value="" style="aspect=fixed;pointerEvents=1;shadow=0;dashed=0;html=1;strokeColor=none;labelPosition=center;verticalLabelPosition=bottom;verticalAlign=top;align=center;shape=mxgraph.mscae.enterprise.website_generic;fillColor=#7D7D7D;" parent="HWghIWy3OGOwD7E_o3oW-32" vertex="1">
          <mxGeometry x="20" y="8" width="53.41" height="47" as="geometry" />
        </mxCell>
        <mxCell id="HWghIWy3OGOwD7E_o3oW-35" value="" style="group" parent="7BcbjyJo5ydgNHTcu2xo-1" vertex="1" connectable="0">
          <mxGeometry x="-1550" y="50" width="80" height="80" as="geometry" />
        </mxCell>
        <mxCell id="HWghIWy3OGOwD7E_o3oW-36" value="analytics" style="rounded=0;whiteSpace=wrap;html=1;fillColor=#FFFFFF;verticalAlign=bottom;strokeColor=#7D7D7D;" parent="HWghIWy3OGOwD7E_o3oW-35" vertex="1">
          <mxGeometry width="80" height="80" as="geometry" />
        </mxCell>
        <mxCell id="HWghIWy3OGOwD7E_o3oW-37" value="" style="aspect=fixed;pointerEvents=1;shadow=0;dashed=0;html=1;strokeColor=none;labelPosition=center;verticalLabelPosition=bottom;verticalAlign=top;align=center;shape=mxgraph.mscae.enterprise.application_blank;fillColor=#7D7D7D;" parent="HWghIWy3OGOwD7E_o3oW-35" vertex="1">
          <mxGeometry x="16.450000000000045" y="12" width="47.09" height="40.5" as="geometry" />
        </mxCell>
        <mxCell id="HWghIWy3OGOwD7E_o3oW-38" value="" style="shape=image;html=1;verticalAlign=top;verticalLabelPosition=bottom;labelBackgroundColor=#ffffff;imageAspect=0;aspect=fixed;image=https://cdn0.iconfinder.com/data/icons/business-collection-2027/56/graph-8-128.png;fillColor=#7D7D7D;fontFamily=Verdana;imageBackground=#ffffff;" parent="HWghIWy3OGOwD7E_o3oW-35" vertex="1">
          <mxGeometry x="40" y="28" width="32" height="32" as="geometry" />
        </mxCell>
        <mxCell id="HWghIWy3OGOwD7E_o3oW-39" value="" style="group" parent="7BcbjyJo5ydgNHTcu2xo-1" vertex="1" connectable="0">
          <mxGeometry x="-1716" y="200" width="80" height="80" as="geometry" />
        </mxCell>
        <mxCell id="HWghIWy3OGOwD7E_o3oW-40" value="subscribers" style="rounded=0;whiteSpace=wrap;html=1;fillColor=#FFFFFF;verticalAlign=bottom;strokeColor=#7D7D7D;" parent="HWghIWy3OGOwD7E_o3oW-39" vertex="1">
          <mxGeometry width="80" height="80" as="geometry" />
        </mxCell>
        <mxCell id="HWghIWy3OGOwD7E_o3oW-41" value="" style="aspect=fixed;pointerEvents=1;shadow=0;dashed=0;html=1;strokeColor=none;labelPosition=center;verticalLabelPosition=bottom;verticalAlign=top;align=center;shape=mxgraph.mscae.enterprise.application_blank;fillColor=#7D7D7D;" parent="HWghIWy3OGOwD7E_o3oW-39" vertex="1">
          <mxGeometry x="16.450000000000045" y="12" width="47.09" height="40.5" as="geometry" />
        </mxCell>
        <mxCell id="HWghIWy3OGOwD7E_o3oW-42" value="" style="pointerEvents=1;shadow=0;dashed=0;html=1;strokeColor=none;labelPosition=center;verticalLabelPosition=bottom;verticalAlign=top;outlineConnect=0;align=center;shape=mxgraph.office.users.users;fontFamily=Verdana;fillColor=#7D7D7D;" parent="HWghIWy3OGOwD7E_o3oW-39" vertex="1">
          <mxGeometry x="32" y="25" width="37" height="34" as="geometry" />
        </mxCell>
        <mxCell id="HWghIWy3OGOwD7E_o3oW-43" value="MVP" style="rounded=0;whiteSpace=wrap;html=1;fillColor=#FFFFFF;verticalAlign=bottom;strokeColor=#7D7D7D;container=0;" parent="7BcbjyJo5ydgNHTcu2xo-1" vertex="1">
          <mxGeometry x="-1560" y="310" width="80" height="80" as="geometry" />
        </mxCell>
        <mxCell id="HWghIWy3OGOwD7E_o3oW-44" value="" style="aspect=fixed;pointerEvents=1;shadow=0;dashed=0;html=1;strokeColor=none;labelPosition=center;verticalLabelPosition=bottom;verticalAlign=top;align=center;shape=mxgraph.mscae.enterprise.application_blank;fillColor=#7D7D7D;container=0;" parent="7BcbjyJo5ydgNHTcu2xo-1" vertex="1">
          <mxGeometry x="-1545" y="326" width="48" height="41.28" as="geometry" />
        </mxCell>
        <mxCell id="HWghIWy3OGOwD7E_o3oW-45" value="" style="shape=mxgraph.bpmn.service_task;html=1;outlineConnect=0;fontFamily=Verdana;fontColor=#7D7D7D;strokeColor=#FFFFFF;fillColor=#7D7D7D;" parent="7BcbjyJo5ydgNHTcu2xo-1" vertex="1">
          <mxGeometry x="-1521" y="343.28" width="32" height="32" as="geometry" />
        </mxCell>
        <mxCell id="HWghIWy3OGOwD7E_o3oW-46" value="" style="group" parent="7BcbjyJo5ydgNHTcu2xo-1" vertex="1" connectable="0">
          <mxGeometry x="-1180" y="243" width="80" height="80" as="geometry" />
        </mxCell>
        <mxCell id="HWghIWy3OGOwD7E_o3oW-47" value="prototype" style="rounded=0;whiteSpace=wrap;html=1;fillColor=#FFFFFF;verticalAlign=bottom;strokeColor=#7D7D7D;container=0;" parent="HWghIWy3OGOwD7E_o3oW-46" vertex="1">
          <mxGeometry width="80" height="80" as="geometry" />
        </mxCell>
        <mxCell id="HWghIWy3OGOwD7E_o3oW-48" value="" style="aspect=fixed;pointerEvents=1;shadow=0;dashed=0;html=1;strokeColor=none;labelPosition=center;verticalLabelPosition=bottom;verticalAlign=top;align=center;shape=mxgraph.mscae.enterprise.application_blank;fillColor=#7D7D7D;container=0;" parent="HWghIWy3OGOwD7E_o3oW-46" vertex="1">
          <mxGeometry x="15" y="16" width="48" height="41.28" as="geometry" />
        </mxCell>
        <mxCell id="HWghIWy3OGOwD7E_o3oW-49" value="" style="shape=mxgraph.bpmn.service_task;html=1;outlineConnect=0;fontFamily=Verdana;fontColor=#7D7D7D;strokeColor=#FFFFFF;fillColor=#7D7D7D;" parent="HWghIWy3OGOwD7E_o3oW-46" vertex="1">
          <mxGeometry x="39" y="33.27999999999997" width="32" height="32" as="geometry" />
        </mxCell>
        <mxCell id="HWghIWy3OGOwD7E_o3oW-50" value="CANDIDATE" style="rounded=0;whiteSpace=wrap;html=1;fillColor=#FFFFFF;verticalAlign=bottom;strokeColor=#7D7D7D;container=0;" parent="7BcbjyJo5ydgNHTcu2xo-1" vertex="1">
          <mxGeometry x="-1464" y="310" width="80" height="80" as="geometry" />
        </mxCell>
        <mxCell id="HWghIWy3OGOwD7E_o3oW-51" value="" style="aspect=fixed;pointerEvents=1;shadow=0;dashed=0;html=1;strokeColor=none;labelPosition=center;verticalLabelPosition=bottom;verticalAlign=top;align=center;shape=mxgraph.mscae.enterprise.application_blank;fillColor=#7D7D7D;container=0;" parent="7BcbjyJo5ydgNHTcu2xo-1" vertex="1">
          <mxGeometry x="-1449" y="326" width="48" height="41.28" as="geometry" />
        </mxCell>
        <mxCell id="HWghIWy3OGOwD7E_o3oW-52" value="" style="shape=mxgraph.bpmn.service_task;html=1;outlineConnect=0;fontFamily=Verdana;fontColor=#7D7D7D;strokeColor=#FFFFFF;fillColor=#7D7D7D;" parent="7BcbjyJo5ydgNHTcu2xo-1" vertex="1">
          <mxGeometry x="-1425" y="343.28" width="32" height="32" as="geometry" />
        </mxCell>
        <mxCell id="HWghIWy3OGOwD7E_o3oW-53" value="PRODUCT" style="rounded=0;whiteSpace=wrap;html=1;fillColor=#FFFFFF;verticalAlign=bottom;strokeColor=#7D7D7D;container=0;" parent="7BcbjyJo5ydgNHTcu2xo-1" vertex="1">
          <mxGeometry x="-1180" y="470" width="80" height="80" as="geometry" />
        </mxCell>
        <mxCell id="HWghIWy3OGOwD7E_o3oW-54" value="" style="aspect=fixed;pointerEvents=1;shadow=0;dashed=0;html=1;strokeColor=none;labelPosition=center;verticalLabelPosition=bottom;verticalAlign=top;align=center;shape=mxgraph.mscae.enterprise.application_blank;fillColor=#7D7D7D;container=0;" parent="7BcbjyJo5ydgNHTcu2xo-1" vertex="1">
          <mxGeometry x="-1165" y="486" width="48" height="41.28" as="geometry" />
        </mxCell>
        <mxCell id="HWghIWy3OGOwD7E_o3oW-55" value="" style="shape=mxgraph.bpmn.service_task;html=1;outlineConnect=0;fontFamily=Verdana;fontColor=#7D7D7D;strokeColor=#FFFFFF;fillColor=#7D7D7D;" parent="7BcbjyJo5ydgNHTcu2xo-1" vertex="1">
          <mxGeometry x="-1141" y="503.28" width="32" height="32" as="geometry" />
        </mxCell>
        <mxCell id="HWghIWy3OGOwD7E_o3oW-56" value="PRODUCT" style="rounded=0;whiteSpace=wrap;html=1;fillColor=#FFFFFF;verticalAlign=bottom;strokeColor=#7D7D7D;container=0;" parent="7BcbjyJo5ydgNHTcu2xo-1" vertex="1">
          <mxGeometry x="-1368" y="310" width="80" height="80" as="geometry" />
        </mxCell>
        <mxCell id="HWghIWy3OGOwD7E_o3oW-57" value="" style="aspect=fixed;pointerEvents=1;shadow=0;dashed=0;html=1;strokeColor=none;labelPosition=center;verticalLabelPosition=bottom;verticalAlign=top;align=center;shape=mxgraph.mscae.enterprise.application_blank;fillColor=#7D7D7D;container=0;" parent="7BcbjyJo5ydgNHTcu2xo-1" vertex="1">
          <mxGeometry x="-1353" y="326" width="48" height="41.28" as="geometry" />
        </mxCell>
        <mxCell id="HWghIWy3OGOwD7E_o3oW-58" value="" style="shape=mxgraph.bpmn.service_task;html=1;outlineConnect=0;fontFamily=Verdana;fontColor=#7D7D7D;strokeColor=#FFFFFF;fillColor=#7D7D7D;" parent="7BcbjyJo5ydgNHTcu2xo-1" vertex="1">
          <mxGeometry x="-1329" y="343.28" width="32" height="32" as="geometry" />
        </mxCell>
        <mxCell id="HWghIWy3OGOwD7E_o3oW-59" value="" style="group" parent="7BcbjyJo5ydgNHTcu2xo-1" vertex="1" connectable="0">
          <mxGeometry x="-2020" y="275" width="80" height="80" as="geometry" />
        </mxCell>
        <mxCell id="HWghIWy3OGOwD7E_o3oW-60" value="solutions-hub" style="rounded=0;whiteSpace=wrap;html=1;fillColor=#FFFFFF;verticalAlign=bottom;strokeColor=#7D7D7D;" parent="HWghIWy3OGOwD7E_o3oW-59" vertex="1">
          <mxGeometry width="80" height="80" as="geometry" />
        </mxCell>
        <mxCell id="HWghIWy3OGOwD7E_o3oW-61" value="" style="aspect=fixed;pointerEvents=1;shadow=0;dashed=0;html=1;strokeColor=none;labelPosition=center;verticalLabelPosition=bottom;verticalAlign=top;align=center;shape=mxgraph.mscae.enterprise.website_generic;fillColor=#7D7D7D;" parent="HWghIWy3OGOwD7E_o3oW-59" vertex="1">
          <mxGeometry x="20" y="8" width="53.41" height="47" as="geometry" />
        </mxCell>
        <mxCell id="HWghIWy3OGOwD7E_o3oW-62" value="" style="group" parent="7BcbjyJo5ydgNHTcu2xo-1" vertex="1" connectable="0">
          <mxGeometry x="-1830" y="190" width="80" height="80" as="geometry" />
        </mxCell>
        <mxCell id="HWghIWy3OGOwD7E_o3oW-63" value="elevate.deals" style="rounded=0;whiteSpace=wrap;html=1;fillColor=#FFFFFF;verticalAlign=bottom;strokeColor=#7D7D7D;" parent="HWghIWy3OGOwD7E_o3oW-62" vertex="1">
          <mxGeometry width="80" height="80" as="geometry" />
        </mxCell>
        <mxCell id="HWghIWy3OGOwD7E_o3oW-64" value="" style="aspect=fixed;pointerEvents=1;shadow=0;dashed=0;html=1;strokeColor=none;labelPosition=center;verticalLabelPosition=bottom;verticalAlign=top;align=center;shape=mxgraph.mscae.enterprise.website_generic;fillColor=#7D7D7D;" parent="HWghIWy3OGOwD7E_o3oW-62" vertex="1">
          <mxGeometry x="20" y="8" width="53.41" height="47" as="geometry" />
        </mxCell>
        <mxCell id="uIzgDBzPALOjonshk2yQ-1" value="" style="group" parent="7BcbjyJo5ydgNHTcu2xo-1" vertex="1" connectable="0">
          <mxGeometry x="-1280" y="640" width="234.62075620767496" height="40" as="geometry" />
        </mxCell>
        <mxCell id="uIzgDBzPALOjonshk2yQ-2" value="&lt;font color=&quot;#172b4d&quot;&gt;&lt;span style=&quot;font-size: 11px ; line-height: 1&quot;&gt;FILE TYPES&lt;br&gt;&lt;/span&gt;&lt;/font&gt;" style="whiteSpace=wrap;html=1;fontFamily=Roboto Mono;align=left;fontSize=14;spacingLeft=8;dashed=1;dashPattern=1 1;fontSource=https%3A%2F%2Ffonts.googleapis.com%2Fcss%3Ffamily%3DRoboto%2BMono;spacing=0;spacingBottom=4;" parent="uIzgDBzPALOjonshk2yQ-1" vertex="1">
          <mxGeometry x="54.62075620767496" width="180" height="40" as="geometry" />
        </mxCell>
        <mxCell id="uIzgDBzPALOjonshk2yQ-3" value="" style="group;" parent="uIzgDBzPALOjonshk2yQ-1" vertex="1" connectable="0">
          <mxGeometry width="45" height="40" as="geometry" />
        </mxCell>
        <mxCell id="uIzgDBzPALOjonshk2yQ-4" value="" style="shape=image;verticalLabelPosition=bottom;verticalAlign=top;aspect=fixed;imageAspect=0;image=data:image/svg+xml,PHN2ZyB4bWxucz0iaHR0cDovL3d3dy53My5vcmcvMjAwMC9zdmciIHZpZXdCb3g9IjAgMCAyNCAyNCIgd2lkdGg9IjI0IiBoZWlnaHQ9IjI0Ij48ZGVmcz48c3R5bGU+LmNscy0xe2ZpbGw6I2ZmZjtvcGFjaXR5OjA7fS5jbHMtMntmaWxsOiMyMzFmMjA7fTwvc3R5bGU+PC9kZWZzPjx0aXRsZT5maWxlPC90aXRsZT48ZyBpZD0iTGF5ZXJfMiIgZGF0YS1uYW1lPSJMYXllciAyIj48ZyBpZD0iZmlsZSI+PGcgaWQ9ImZpbGUtMiIgZGF0YS1uYW1lPSJmaWxlIj48cmVjdCBjbGFzcz0iY2xzLTEiIHdpZHRoPSIyNCIgaGVpZ2h0PSIyNCIvPjxwYXRoIGNsYXNzPSJjbHMtMiIgZD0iTTE5Ljc0LDcuMzNsLTQuNDQtNUExLDEsMCwwLDAsMTQuNTYsMmgtOEEyLjUzLDIuNTMsMCwwLDAsNCw0LjV2MTVBMi41MywyLjUzLDAsMCwwLDYuNTYsMjJIMTcuNDRBMi41MywyLjUzLDAsMCwwLDIwLDE5LjVWOEExLDEsMCwwLDAsMTkuNzQsNy4zM1pNMTQsNGwzLjc0LDRoLTNBLjc5Ljc5LDAsMCwxLDE0LDcuMTVaIi8+PC9nPjwvZz48L2c+PC9zdmc+;" parent="uIzgDBzPALOjonshk2yQ-3" vertex="1">
          <mxGeometry x="7.5" y="5" width="30" height="30" as="geometry" />
        </mxCell>
        <mxCell id="uIzgDBzPALOjonshk2yQ-5" value="" style="whiteSpace=wrap;html=1;dashed=1;dashPattern=1 1;fontFamily=Roboto Mono;fontSource=https%3A%2F%2Ffonts.googleapis.com%2Fcss%3Ffamily%3DRoboto%2BMono;strokeWidth=1;fillColor=none;align=left;verticalAlign=middle;noLabel=1;connectable=1;allowArrows=1;snapToPoint=1;" parent="uIzgDBzPALOjonshk2yQ-3" vertex="1">
          <mxGeometry width="45" height="40" as="geometry" />
        </mxCell>
        <mxCell id="uIzgDBzPALOjonshk2yQ-6" value="" style="group" parent="7BcbjyJo5ydgNHTcu2xo-1" vertex="1" connectable="0">
          <mxGeometry x="-1280" y="775" width="234.62075620767496" height="40" as="geometry" />
        </mxCell>
        <mxCell id="uIzgDBzPALOjonshk2yQ-7" value="&lt;font color=&quot;#172b4d&quot;&gt;&lt;span style=&quot;font-size: 11px ; line-height: 1&quot;&gt;sheet&lt;br&gt;&lt;/span&gt;&lt;/font&gt;" style="whiteSpace=wrap;html=1;fontFamily=Roboto Mono;align=left;fontSize=14;spacingLeft=8;dashed=1;dashPattern=1 1;fontSource=https%3A%2F%2Ffonts.googleapis.com%2Fcss%3Ffamily%3DRoboto%2BMono;spacing=0;spacingBottom=4;" parent="uIzgDBzPALOjonshk2yQ-6" vertex="1">
          <mxGeometry x="54.62075620767496" width="180" height="40" as="geometry" />
        </mxCell>
        <mxCell id="uIzgDBzPALOjonshk2yQ-8" value="" style="group;" parent="uIzgDBzPALOjonshk2yQ-6" vertex="1" connectable="0">
          <mxGeometry width="45" height="40" as="geometry" />
        </mxCell>
        <mxCell id="uIzgDBzPALOjonshk2yQ-9" value="" style="whiteSpace=wrap;html=1;dashed=1;dashPattern=1 1;fontFamily=Roboto Mono;fontSource=https%3A%2F%2Ffonts.googleapis.com%2Fcss%3Ffamily%3DRoboto%2BMono;strokeWidth=1;fillColor=none;align=left;verticalAlign=middle;noLabel=1;connectable=1;allowArrows=1;snapToPoint=1;" parent="uIzgDBzPALOjonshk2yQ-8" vertex="1">
          <mxGeometry width="45" height="40" as="geometry" />
        </mxCell>
        <mxCell id="uIzgDBzPALOjonshk2yQ-10" value="" style="shape=image;html=1;verticalAlign=top;verticalLabelPosition=bottom;imageAspect=0;aspect=fixed;image=https://cdn2.iconfinder.com/data/icons/social-media-2259/512/sheets-128.png;dashed=1;dashPattern=1 1;fontFamily=Roboto Mono;fontSource=https%3A%2F%2Ffonts.googleapis.com%2Fcss%3Ffamily%3DRoboto%2BMono;strokeWidth=2;" parent="uIzgDBzPALOjonshk2yQ-8" vertex="1">
          <mxGeometry x="4.5" y="2" width="36" height="36" as="geometry" />
        </mxCell>
        <mxCell id="uIzgDBzPALOjonshk2yQ-11" value="" style="group" parent="7BcbjyJo5ydgNHTcu2xo-1" vertex="1" connectable="0">
          <mxGeometry x="-478.6199999999999" y="650.28" width="234.62075620767496" height="40" as="geometry" />
        </mxCell>
        <mxCell id="uIzgDBzPALOjonshk2yQ-12" value="&lt;font color=&quot;#172b4d&quot;&gt;&lt;span style=&quot;font-size: 11px ; line-height: 1&quot;&gt;Briiefcase&lt;br&gt;&lt;/span&gt;&lt;/font&gt;" style="whiteSpace=wrap;html=1;fontFamily=Roboto Mono;align=left;fontSize=14;spacingLeft=8;dashed=1;dashPattern=1 1;fontSource=https%3A%2F%2Ffonts.googleapis.com%2Fcss%3Ffamily%3DRoboto%2BMono;spacing=0;spacingBottom=4;" parent="uIzgDBzPALOjonshk2yQ-11" vertex="1">
          <mxGeometry x="54.62075620767496" width="180" height="40" as="geometry" />
        </mxCell>
        <mxCell id="uIzgDBzPALOjonshk2yQ-13" value="" style="group;" parent="uIzgDBzPALOjonshk2yQ-11" vertex="1" connectable="0">
          <mxGeometry width="45" height="40" as="geometry" />
        </mxCell>
        <mxCell id="uIzgDBzPALOjonshk2yQ-14" value="" style="whiteSpace=wrap;html=1;dashed=1;dashPattern=1 1;fontFamily=Roboto Mono;fontSource=https%3A%2F%2Ffonts.googleapis.com%2Fcss%3Ffamily%3DRoboto%2BMono;strokeWidth=1;fillColor=none;align=left;verticalAlign=middle;noLabel=1;connectable=1;allowArrows=1;snapToPoint=1;" parent="uIzgDBzPALOjonshk2yQ-13" vertex="1">
          <mxGeometry width="45" height="40" as="geometry" />
        </mxCell>
        <mxCell id="uIzgDBzPALOjonshk2yQ-15" value="" style="shape=image;html=1;verticalAlign=top;verticalLabelPosition=bottom;imageAspect=0;aspect=fixed;image=https://cdn3.iconfinder.com/data/icons/dompicon-glyph-file-format-2/256/file-csv-format-type-128.png;fontFamily=Roboto Mono;fontSource=https%3A%2F%2Ffonts.googleapis.com%2Fcss%3Ffamily%3DRoboto%2BMono;fontSize=18;align=left;dashed=1;dashPattern=1 1;strokeWidth=2;" parent="uIzgDBzPALOjonshk2yQ-13" vertex="1">
          <mxGeometry x="4.5" y="2" width="36" height="36" as="geometry" />
        </mxCell>
        <mxCell id="uIzgDBzPALOjonshk2yQ-16" value="" style="group" parent="7BcbjyJo5ydgNHTcu2xo-1" vertex="1" connectable="0">
          <mxGeometry x="-1280" y="900" width="234.62075620767496" height="40" as="geometry" />
        </mxCell>
        <mxCell id="uIzgDBzPALOjonshk2yQ-17" value="&lt;font color=&quot;#172b4d&quot;&gt;&lt;span style=&quot;font-size: 11px ; line-height: 1&quot;&gt;JSON&lt;br&gt;&lt;/span&gt;&lt;/font&gt;" style="whiteSpace=wrap;html=1;fontFamily=Roboto Mono;align=left;fontSize=14;spacingLeft=8;dashed=1;dashPattern=1 1;fontSource=https%3A%2F%2Ffonts.googleapis.com%2Fcss%3Ffamily%3DRoboto%2BMono;spacing=0;spacingBottom=4;" parent="uIzgDBzPALOjonshk2yQ-16" vertex="1">
          <mxGeometry x="54.62075620767496" width="180" height="40" as="geometry" />
        </mxCell>
        <mxCell id="uIzgDBzPALOjonshk2yQ-18" value="" style="group;" parent="uIzgDBzPALOjonshk2yQ-16" vertex="1" connectable="0">
          <mxGeometry width="45" height="40" as="geometry" />
        </mxCell>
        <mxCell id="uIzgDBzPALOjonshk2yQ-19" value="" style="whiteSpace=wrap;html=1;dashed=1;dashPattern=1 1;fontFamily=Roboto Mono;fontSource=https%3A%2F%2Ffonts.googleapis.com%2Fcss%3Ffamily%3DRoboto%2BMono;strokeWidth=1;fillColor=none;align=left;verticalAlign=middle;noLabel=1;connectable=1;allowArrows=1;snapToPoint=1;" parent="uIzgDBzPALOjonshk2yQ-18" vertex="1">
          <mxGeometry width="45" height="40" as="geometry" />
        </mxCell>
        <mxCell id="uIzgDBzPALOjonshk2yQ-20" value="" style="dashed=0;outlineConnect=0;html=1;align=center;labelPosition=center;verticalLabelPosition=bottom;verticalAlign=top;shape=mxgraph.weblogos.json;dashPattern=1 1;fontFamily=Roboto Mono;fontSource=https%3A%2F%2Ffonts.googleapis.com%2Fcss%3Ffamily%3DRoboto%2BMono;strokeWidth=2;" parent="uIzgDBzPALOjonshk2yQ-18" vertex="1">
          <mxGeometry x="7.5" y="3" width="30" height="34" as="geometry" />
        </mxCell>
        <mxCell id="uIzgDBzPALOjonshk2yQ-21" value="" style="group" parent="7BcbjyJo5ydgNHTcu2xo-1" vertex="1" connectable="0">
          <mxGeometry x="-1280" y="960" width="234.62075620767496" height="40" as="geometry" />
        </mxCell>
        <mxCell id="uIzgDBzPALOjonshk2yQ-22" value="&lt;font color=&quot;#172b4d&quot;&gt;&lt;span style=&quot;font-size: 11px ; line-height: 1&quot;&gt;JSON SCHEMA&lt;br&gt;&lt;/span&gt;&lt;/font&gt;" style="whiteSpace=wrap;html=1;fontFamily=Roboto Mono;align=left;fontSize=14;spacingLeft=8;dashed=1;dashPattern=1 1;fontSource=https%3A%2F%2Ffonts.googleapis.com%2Fcss%3Ffamily%3DRoboto%2BMono;spacing=0;spacingBottom=4;" parent="uIzgDBzPALOjonshk2yQ-21" vertex="1">
          <mxGeometry x="54.62075620767496" width="180" height="40" as="geometry" />
        </mxCell>
        <mxCell id="uIzgDBzPALOjonshk2yQ-23" value="" style="group" parent="uIzgDBzPALOjonshk2yQ-21" vertex="1" connectable="0">
          <mxGeometry width="45" height="40" as="geometry" />
        </mxCell>
        <mxCell id="uIzgDBzPALOjonshk2yQ-24" value="" style="whiteSpace=wrap;html=1;dashed=1;dashPattern=1 1;fontFamily=Roboto Mono;fontSource=https%3A%2F%2Ffonts.googleapis.com%2Fcss%3Ffamily%3DRoboto%2BMono;strokeWidth=1;fillColor=none;align=left;verticalAlign=middle;noLabel=1;connectable=1;allowArrows=1;snapToPoint=1;" parent="uIzgDBzPALOjonshk2yQ-23" vertex="1">
          <mxGeometry width="45" height="40" as="geometry" />
        </mxCell>
        <mxCell id="uIzgDBzPALOjonshk2yQ-25" value="" style="shape=note;whiteSpace=wrap;html=1;backgroundOutline=1;darkOpacity=0.05;fontSize=17;size=6;strokeWidth=1;connectable=1;allowArrows=0;editable=1;fontFamily=Roboto Mono;fontSource=https%3A%2F%2Ffonts.googleapis.com%2Fcss%3Ffamily%3DRoboto%2BMono;align=left;verticalAlign=middle;movable=1;resizable=1;rotatable=1;deletable=1;strokeColor=default;fillColor=#E6E6E6;" parent="uIzgDBzPALOjonshk2yQ-23" vertex="1">
          <mxGeometry x="12.5" y="2" width="24" height="36" as="geometry" />
        </mxCell>
        <mxCell id="uIzgDBzPALOjonshk2yQ-26" value="&lt;span style=&quot;font-size: 6px&quot;&gt;&lt;b&gt;SCHEMA&lt;/b&gt;&lt;/span&gt;" style="whiteSpace=wrap;html=1;spacingBottom=2;fontSize=8;spacing=0;strokeColor=default;fontFamily=Roboto Mono;fontSource=https%3A%2F%2Ffonts.googleapis.com%2Fcss%3Ffamily%3DRoboto%2BMono;connectable=1;allowArrows=0;editable=1;align=center;verticalAlign=middle;movable=1;resizable=1;rotatable=1;deletable=1;fontColor=#808080;fillColor=#F5F5F5;" parent="uIzgDBzPALOjonshk2yQ-23" vertex="1">
          <mxGeometry x="6.5" y="27" width="32" height="10" as="geometry" />
        </mxCell>
        <mxCell id="uIzgDBzPALOjonshk2yQ-27" value="" style="shape=image;verticalLabelPosition=bottom;verticalAlign=top;aspect=fixed;imageAspect=0;image=data:image/png,iVBORw0KGgoAAAANSUhEUgAAAXwAAAF8CAYAAADM5wDKAAAAAXNSR0IArs4c6QAAQABJREFUeAHtfQe4ZEXR9qLknOMCu8uC5CRRJCqCoiKKYEKyJAUMiBg+RECJogRF8PvIiKCIWUAyikgSJEhelpwlZ/7/fWXHO3d2Zk7qrqruU/U8de/MOd0V3q5T06dPd58xY5wcAUfAEXAEHAFHwBFwBBwBR8ARcAQcAUfAEXAEHAFHwBFwBBwBR8ARcAQcAUfAEXAEHAFHwBFwBBwBR8ARcAQcAUfAEXAEHAFHwBFwBBwBR8ARcAQcAUfAEXAEHAFHwBFwBBwBR8ARcAQcAUfAEcgWgWmy9ax9js0FlxcHL9bFM+Pz58FOjkAVBN6Nwp8BTwRPC/43+CHwHeB/gW8EPwx2SgwBT/jpNNisMHXJKcwLsTe583wvPYgDY3sP+ndHYAgCn8O548FFueFRlLkOfC34GvDfwY+BnQwjUNSohk3P2jT20lfr4uXxeaEaHnvCrwFai6vMBt/Zk+/XeSgDy30odDX4L+ArwbwTeAPs5Ag4Al0IjMfnncA/Az8C/n+B+AHIcXIEyiLwcRQMFXuU8xz4fPCXwcuBnRyBViLwNni9HvgH4HvAIS+yblme8AGuU2kEvouS3fET+vP9kP8T8MbgacFOjkDWCDDJM+A5/hn6YuonzxN+1uEU3LnTheKSsfo4+ATw+mAnRyAbBBaGJ/uB7wT3S8oxj3nCzyaMRBz5k0KMMv45++dr4AXBTo5AkgisBat/AX4dHDOpD5PtCT/J0FEz+grFWGUcvwo+Dbwy2MkRMI8AZz1tAb4SPCwRS53zhG8+ZEwZyOmVUrFZpOci2LKhKXTcGEegC4EP4TOnoRUFsuR5T/hdDeQfCxG43lj88lq5GPyuQsu9gCMghMAG0HMVWDKRl9XlCV8oCDJRY63D0h3n5wHjCZng7G4kiMCisPkccHdQWvvsCT/BwFI0+Sbj8fwy7DsIzC1DnBwBEQSmh5Z9wc+DrSX4Xns84YuERDZKrCf8TnzfDcTXzwZ1d8QsAivBslQuCl4cnvDNhpJJw1KK7TeB4DFg7+2bDKW0jXo7zOdc+lfAnV5GCv894acdd9LWp5TwO9ffLQBpWWmgXF++CHC3SW4G1QmwlP57ws83LmN4lmLC5/XI4dVtYgDiMtuFAOcBS22DEOOHxBN+u+K1qbepJvzOtXMEAOA+VU6OQGUE9kENzVWynSBu8t8TfuVmb3WF1BM+r5VfgX1cv9VhXM15jtefCG6SaK3U9YRfre3bXjqHhM9rj+ti5mh7Y7r/xQiwZ/BbsJWE3dQOT/jFbe4lRhDIJeHzuuHbuOYZcc0/EQEf7xqJgznxkcu4PzhyyD85Ao5AogisCrt5Pc+VqP1RzPaE/xass+Pf+eA1o6DsQh0BR0ADgRWh9HdgH9Ofgr4n/Lfe3/lH4LHGFEz8nyPgCOSDADde4xYo0+bjUn1P2p7wuU0Cx+x9N776MeQ1HQHrCHwABh5p3UgJ+9qe8E8AyBtIAO06HAFHQBWBPaF9W1ULXLkqAt+A9qazYKzX91k6qiGWnPKcZun0uzZfQousklyrBDS4reNaHwaGBwbE0UU5Ajkg8ASceKSPIxwJmGUK9zmdzKEZYekZ4HeCmfxbR3wlX9uIe+PwRQ9zJ+r4Y7D7VvBkMD+/AOaK4H70HA7+sN8JP+YI1EBgJtSZAF4OzBltG4DZY04tjxwLm78AdsocAa6ivRzc73bP6rF7YC8DdEvwQmAnR8ASAgvAmF3Al4K5ZbHV66jXLn9fLhord/omHOxteIvf2Xv/HpjziJ0cgVQQmAhDDwc/DbZ4XXXbdBts5Cw9p0wRWBJ+8RVp3Y1u7TO3Yf4o+G1gJ0cgVQRmg+HcfJBDjtausW57vp4qwG53MQJ/Nhp8vA3+JXitYhe8hCOQFAKzwtr9wS+CuxOtlc98/rUg2CkzBD4Ff6wEWbcdl8Ku1TLD2t1xBHoRmIAD3LqkO/atfD6u11j/njYC08F8Pvi0EmC0g1Pf+CPk5Ai0CYFPwFnGvqVr8VXYM75NjZC7r5xBYCnAOHwzb+6gu3+OwAAE5sfxP4EtXZP/O8BWP5wYAlxocT/YQnCxJ+FzfxMLIGVzOb+dd6gd5rTiHIh+HQC2Mo2T1+ZiOQBb5AOBz5l2hHM/NeDgs7DhI+BLDNjiJthAgFMClwevDH4HmOPci4LnA/PFHVzkNGja4Gs49zKYC+ueBHMLjVvAnJhwAZgdnBSIQzyngAf5KekDFyjuLanQdYVH4AaI1O7dc07yquFdc4mJIcDOFbfgZs/2MvAr4BixeSHkpjStdxPYa2EWD388/bWIACFV4tLvGBdUFZm8qN+VKoBudxAE2Iv/PvhBcJXYaVJ22SCWywnZDKo4rNLE5xB1fchVrs2DazrKQADtFtwrF5gCAuxhbwG+EhwiEVWRwd7ybODUaGcYXMXPGGVvTQ00t/ctBHj7zHHNGEFRVubl3hitRIArpTmeXjZOQpc7JmHUT1LErdMO6ySMX2tNX91A4GzYWvTb6fgKcPsK5bh7CPrnTBh+jqFLDn11knz3/x8kjF9rTf86PO9uROnPN7UW+fY5zimTB4M5c0Y6zrr1vQH9G4NTp0/DgW6/pD9zZIAjBE4JIXAJbJUOlG59uyeElZtaH4GJqHo9uLvttT5/q74bpmoy2V6rjKnvUmsqJIYbMy1Oa0/z4nxqp7wR4MwSTrnVSvDden8GO3LqlW6ujKt32NAAqRAXsnRfDNKfb04FKLezNgJMCBxCkY6tfvquhB0z1PbEZkXOctLc/+pMm7A0tyqlBRplvV2jbMFI5S6JJNfF2kDg2zDjOLCFa4cv8fgwmOs9ciJuucC7Fi1ipzFLshC0oYHlQhdN4pQ8pzwR+Dbc2t+Ia3y4yFWqTxmxJ7QZnPGkRUtCcS77FmlhKKa3s5dIv9tfiWPriXnqiiQR2BPKJOKnjI7HYcsyks4r6BqvjPfiCj67yhoI3K8cKHyps1NeCHDVrJUx+2dgSxv2ZpoVfpb58YtVZu28QjhPbzgnmuN/sYKgSO7r0J3jMFme0VLOK/akubFWUdtLnOfss3XLmZ18Ke6gKYHpIB2cKZQd5ZacFkELaU5P43gqf3Cc8kBgFrhxLpi9TW3i5mK809Ac25bEgNOrNSnlFcsDccst4Y8d6KnMiedl1LgWIQSOgp6lhXQNU8M7x63B5w8rlNk5/thq0uyaymPpzi3hLxQLqJJyc5seV9LtLIttCq92NuAZ7xi3BZ9nwBZJE+aWVNZHF19Akx3llvDnUm4hH85RboBA6jmEc0IgWU3FcJFXtguBhoAz/5BzEqf4etTsKLeEr90ryA3P7AK+pEMHoZyF7TH2hR0/KWlzbsUWVnaIE0Cyo9wSlPaDltyWuGcX8CUc4irLz5coF7vIIVBwWGwlhuVrP4/TfmgcpWlyS/ja424zR2klFyqFAGd4/RisvcryeNiwn5TTRvUspmyX5my/aK7nlvC1x92yfLIfLfrsCf4sTFpL2SzuIbOHsg0W1I9TNsITvnIDlFGvPaTCOwxtG8rg5GWmRoDvgT106sOiRy6Gtu3A/vB/zJgJoshPrYwLsrKj3Hr4Fh60zJtdlLTDoW/ATc1tMfiWNC6s4gIrJ/2En+WPbm4J30IjaU8n82RRHYHxqLJ39WrBanD/pw+Anw0mMW1BXE+j/TyMeydlR7klfAu3YdrTybILUgGHOCNGayju39D9fvCDAn6momJJA4byHcXZUW4J30IPX3s6WXZBGtmhtSF/q8g6BolnUuEwjr9DYTRCFhL+y6NNyuNbbgnfwvinhQU7eUSnjBeHy6jpq4WzcS7te6bdB5cy4D53Js2Ockv4FhqJ48FOaSDA3vU6SqYeDb0nKum2rtZCwueW2NmRJ/zwTeoJPzymMSRycdV3YwguIfMClPlSiXJtLWIh4Wf5AN0TfvhLamJ4kS4xAgI7QObSEeQWibwdBbjVcZazQIqcL3GeP8RLlCgXuwgfpmdHuSX8Zwy00HywYQ4DdrgJgxHgArn9B5+Odoa9xg+Ds0wmgVAbBzlaM6a6XXiq+0sun3NL+FYaycItaS4xGsMPbo62SAzBBTK3x/k7Csq0/fQ7jADwpBE7gprhCT8onP8Vtsx/P/kHawjw7utrCkYdCZ3nKuhNTaWVhP9YasCVsdcTfhmUqpdZtnoVryGEAB+Wzi2kq6PmSnzQ+JHp6E/pv4WEz6FhC1O8g7dbbgn/0eAI1RPoPfx6uMWuNQ8UfDG2kh75jEku7OJ7aZ2KEbCQ8B8vNjPNErkl/EeMNIPG7A8jrps246uwjrtiShG3+vg0+GEphRnosXDtZDmck0Fs9HWBD255oWnya9BvYefOvgC19CB3wnwBLBkXh7UU67pu8/mKZPsM0nVOXQes18uth0+8HzIAOl+P5vPxDTRElwlfx+eZu77H/ngDFHwztpLM5FsYziGk2W5kl2PCf8DIRWAleI3AoWoGp2DuImgBt/j4FDjLB38RcbQyndkTfsRGDi16UmiBNeVZGIusaXp21fh+2BkEvfoydP1LUF8uqqwkfAujBFHaNMce/qQoSFUX6gm/OmYxanC76p1iCB4g83c4fvyAc354OAJW7oqtjBIMR6vG2RwT/r01cIhRxRN+DFSry5Ts3XP+9q7VTfQaUxCw0sOf7C2SDgJrwNRBT98ljz+dDmTZWsre/SuC8bBjtkjKOPa8YFsNygVcLzGtjLuuJQQCc0LIoMaUPq75UuwQWKYu40eCsXBh6mAp27+QYFsNywPeu1cOhDrqubpxWKNKnXtXHeO9ThAEODPnZbBEW7NnOg7sVB+BdVFVoq2KdFxR3wX7NXMcwyfqtxuB3l+GotcQXFUrNTOHzwkm6bmaheaJRrzIuh094ceNMk/4cfEdJJ1DaTsPOhn4+HWQd1xgmW0UZyXh35Uz+Lkm/FuMNJonfJ2G+ArUziSg+k3o2B3M/07NEJjQrHqw2p7wg0EpJ+ifcqqGavKEPxSeKCfnhdTdokieWuhPcejvUx/2IzUQsHKt3F3Ddq+ijMD80F/0cEbi/CRlHNqo/mChtn8CerjdslMYBKxMtGCHwSlBBCwEkM/plQ0c7rbI98VK/JhLPSOQRVBH2yxCbVYUF9mvncl1DJ9he5NO7I7S+nZ8W2zUEf8SE4E9IJxJPzZdAwUcznEKg8C4MGIaS7mtsQTjAnJO+Jw9YYGsjE1awCKmDdz6eO+YCrpkUw97i05hEFg8jJjGUjzhN4ZQT4CVhL+oHgSt0rwTvJ1PwOOfQ8dfBfS0SYWVu2BP+AlHnZWEPzZhDFMxfToYuo+AsdyXZ18BPW1T4QlfqMVzHtK5BxhaeAjjPfz4wfxZqJD4YT0Geu6L707rNFhJ+FbW77QuAEI5zA2tip7Mxz7/+1DOuJy+CLDTwpeNxG5Hvit5rr4W+MGmCFwKAbHbr0j+s7BhmqaOWK+fcw+f2HM2hTZxEy+neAhsDtESL874LvRYuGOMh6SeZAvXCBdr8kfBKWEEPgbbi37ZY59/JGH8UjD9bwJt/AB0zJgCGIna+KJAGxZd58cmil0ls3Pv4V9fCY04hTlzhPPxncIjsAFErhle7FQSD8QRbrXsFB4BDpPNFF5sZYk3VK7hFUwiwNvwol/32Of5cgen8Aj8ESJjt91d0DFteNNd4hQElsX/2G1YRv4qbWiR3Hv4bEMLK2494Ye/mlaCyE3Di51K4gE48vpUR/1AKAQWCCWogZxXUffmBvWTqdqGhH+jgdbgsI5TWAS+ElZcX2l34OiZfc/4wVAIWEj4TPavhXLIshxP+DKt4wk/LM6cc791WJF9pbF3/0bfM34wFAIWEr6FZ32h8Bwqpw0J38KQjif8oWFY+eReqMHVtTHpdgg/K6YCl/0fBCxcG615YNuGhH8rwooPbTTJQlBr+h9S9+wQ9rmQAgfI4r76bw4454fDIWDhnQL/COeObUltSPgvoAkmKTfD3Mr6c1LPZM+kH5P41iMfu4+J8Ihs7YTPH3ULz/lGEIn4qQ0Jn/DdEhHDMqI519ipOQKcHsnhnNh0CBT42H1slN+Sr53wOe2WncJWkCd8mWb2hB8G549DDB/YxqQHIfzUmApc9igE5hz1Tf5La3r3hLYtCf82+TgapdET/ig4an/5Yu2a5SseiaKcl+0kg8AcMmoGavGEPxCadE9wN0VN0g5qTd9D6V4HglYPJWyAnCdx/IQB5/xwHARiP48pstoTfhFCCZ7nFDtNmk1TeSa6JXr33ECrNeO5RuJCO+H/0wgObkZgBB6GvDJ7asQo83xgX9ombhwc5vYGMdqmI5M7Ns4LdpJDgJsKdvDX+P+MnKs2NLVlDJ9oa/by+YLtNmEdOrr3hMDYO46eDB1PhDbc5Q1FgNeFJnFLhVZRm5LQnYotyzfpWNgCVhGC2qpnQc0datcuV5Fzsfmw1kkWAe1rwhO+bHuLauN8W03yF2jUQ/+zqBb7ofd50MHFVk6yCGhfE7fIuquvzXv4cm2g3ZuR8zSspi+EFddX2vf7HvWDsRHQfs+AJ/zYLawo33v4iuDXVL0x6i1Ts27Zan9Hwb+ULezlgiKgnfC11+cEBbOMsDb18LVv2bWDu0w8WCvjvXtrLRLWHs1r4lm48lBYd+xLa1PC5/zqxxWbRDO4Fd2urXocam5Wu3a5ig+g2C/LFfVSmSGgvRhTBc42JXwCfK8Kym8pjT2tUNG1KKp3hdTY8XkcdHB+v5MOAprbT/NtZq2jtvU6mfDXUGrl2MmLbcl35846hTkDggu+HgFz0VlKNAOM3SGywS9B/omRdbj44QhwsZUWecLXQl5Q7yRBXb2qQvZm5ofwd4HXBq8KXgK8GHjQXcS/ce4q8AXgs8HWxy63hI3zgWPSGRD+ZEwFLrsQAc27K811OYXAeIEwCOwOMRpLuKlzhYYuTED9fcHXgJv4wIvst+B1wVaJs2aa+Fim7opWnW+RXQsLtPOgWFi9RTi31tUPKQbYcjVRZ0/+D2DeIQwK3rrH2eNfHmyJmIjr+lO23mWWHG6xLXwTXNk2C11O+8UrLW52OddXUQywiRXd5IshThewlz3+74KnB1sgPkgNfXH3ytvKgqNuw3+2G+ltG4nvnJLp1AIEOPYtEVD9dIytgC97H7cI28p9wZeqYGOMotxMi88b+uEX6tiDkN+2yQox2iqUzFcjt3e/uGntlsixZ46ECopQcrgbotaDIs4KKUvfQ8FlyxYOVI5DKXw+sHkgeXXEsOcde9+cn0CHVgzUwST3OhpbFE/OHdRB/rUt4XMc/PFBYEQ+/lwF+e+oUDZk0dkh7FzwXiGFVpC1Y4WydYoy0ftUzDrIxavDOzpp4l1eK6ltCZ+NrJHwX4Ze3rqWJfZCtYgx8QPwwcIG8Efu3ZF1ngf5D0fW4eKrIaBxPXrCr9ZGSZfWmHtdtRdzJhD+ozLKX4f+wwVt2F5A148FdLiKagg8Wq14kNIaOoMY3lRIG3v4TzUFrUb9x2rU2Q51tHsiX4EN3wbHJi4Y2yayEu6dcnFkHS6+OgJcCS5Nda5HaRuj6Gtjwn86CpLDhdYJagblx8AcDtKk/aH8C5ENeC/kLxxZh+YwWWTXkhY/ScH61r7Kso0Jv+rwSoh4fKimkKtRj0MdnFqmSRzT/2BEA2L37vmjeUpE+110fQQ0ti3XyAH1EQpYs40JX2Ma2L0N2uws1P1qg/ohqjJOfgZuuj1EP1tmxcEt+p0IeOwcyNK4swvoQraiNBK+Rg4w0YBtTPjcQVKamgb1ETD4EGmje/QxMXPKZuh58h+FzJl7dIX+enxogS4vGAJNr406hrxQp5LXSROBnWF2v9V3MY+tEgiqoxVs78XlvEC+dMRcGNmn1q6q7ACcwH9OzeyNs5jfZ0kAEzcxEALbCAfXa9A3QyDbKcZC0g/1EJcPat8Ax7y4Q9lK7J3iIPBXiI0ZA72yQ16PcRBxqcEQ+KRwcN0UzPIRQdpJn9tELD9iTu1P+6Bm78UY8jvtnKu2dV5RCoFjoChkuxfJam3Cb+MYPoNBkv4WQdmekPm/EeSWFTkjCp4Bnq5shQHlthtwPNThX0CQP6wNhWY8OX+PJ7qvZE/4fWHJ86D0Tol/iQTjLpD760iyy4hdEYW4GrcurY6Ky9atXLKe75tTEijlYtcI62eHxaklCEg/tJ0QEdeZIJtz9YtuYWOdfxW6mfjr0HGoFMsuyuXKWqc0EJgGZnKqZMx46JbN14G2kto4pDOnYEvfC133RNTHMeoPgydH1DFMNId0OOWRF2wVYg+Lz1JikuaQV0y/cpTNZHytoGPzCuoypaqNCX8BwRa4QEAXN4Ji0teaW7w2dO9U0c8tUD7mw1TOjDq1ok1eXBeBywTVLyKoy1UpI8B55N23dzE/by7oK/fd4X7/Mf0ZJPtJ6K3Sa7oosp3nQr5TWgisBnMHxVfo47umBY1b2wSB24UCiz1ujrFL0nehLPTFUVbeT0s6ugTKxf5h2qykLV7MDgIcFuTdatl4a1LuCDtuuyUxEZgNwvnWoybBUrauRi+TQ3QcRiprY8hyTOIc3imiQ1EgpN5eWQ9APrdbdkoPgVNgcm97xvh+cXrQuMV1EPiAUEAxSGM/lBzk/zw4ca+gn90XJLcxGDY3f3qcfyyybQdDvlOaCGwNs7vjKdZnX5uRZnxUtvpIoYB6DnpmrmxduAocD30FHOuCGSb3G0Pc+LSATROH6PdTthHgDDrOPBsWX6HOrWAbCreuKQIcI5wEDhUww+Sc1tTYAPX3EPK1Fwf+0AxaUHVVZJskZ3oEaCIX0QeBsyLHSCdeh3VM+pjlh1JDYB2hQGJAbWQEHKmLp3MRdf5zTnXviuY1BPDf1gjubkZ9BDYViBPG6dX1TfSaKSBwIozsJKSY/++CHt5NWCA+pL4THNPfQbJ7x9LPjmzHs5Dv294ChMSJD9wfBA+Kq5DHV0wcKzd/AAIcG+Q0yZDBMkjWvgNs0Dq8KhRrjOdz2+P3TXH6HfjP74MwC3G87LTQKSb5P8MIxJ7J1Yk3dgKdMkTgS/Cp08gx/z8PPXMbxG8vIf97sX0KevlwTGKxG4fsnPJAYEm4EbuDwFjlA+JF84DMveggwLHk+8C9ySjG96M7Sg3+586aMXwukvmagN47DOLtJjVD4ByBuGHsnt7MTK9tDYHtYFBRUgpxngu6xltzvssezs+XGhsNgWcVGV/v8tM/5oGA1FYLXDD47jwgcy+40OdecJXkUbcsH0pap/fAwNjbGtTFr2493vqPtQ6821cLgT+jVt24qFLvXuiZo5aFXskUAl+BNVUavknZNU15PtgYqQdiTbCsUvf8wa76mcQR2Bj2V4mFJmU5hdkpYQT4MIYrXpsEQdm6KSWd6YAJ58mX9c16uU/CF6d8EbgcrknF4AH5wpi3Z9xE7CKhQOEQySqJwclpklLTVGNerM/Aj5kSw97NrYYAx/IlhyF3rGael7aAAH+pYyaabtlnWnC4hg27CWLUjVfIzyfU8NurpIfAqYKxymdC26cHUXst3kYwOF6FrgkJQ/17QaxCJvqOLJ97n3DwVTCdD+VfFIxV3lHsWsE+L6qEAJP96+BOQoj9/xglP0OpXQCCHhfEK2R73BkKBJeTBAKSd+2dOD0YyEyTBDotM5Jj9t8BdxpK4j/31J4vA5w/KoxbqLb5ZgbYuwvlEZgRRW8Dh4qfsnJ+Dp2zljfTS8ZGYEkouBxctgFDlds9tmOC8k9VwK9JO/CWe3FBfFzVaAT4oPyL4K+BJdthbejjGHuT2KlT93boTG1iBkzOizgcwXdTvgKu04hN6lwDnbyryIW4udz94CaYSNa9JBfgE/SDyf43XbHyEj5/VtCPo7p0S8Ych4q/D55d0FdXBQS4r/qJYAaaZIN3dPFBbY7bqnKRi+T0tw6edf77LAo0ViBaBnJ4Pd0Hfg3Mqa43gDmUcTh4LzAfYO4LPgn8KLi3zdjr3hosQTNDyV3gXhukvnMo9yDwQmCnCAhwe4QNwIeC+aBOqmEH6dkfNuRKP4Jjg/y2cpzrB7jPv1MzBLjv/IFgJvkQbctEKJUE14UuyckZ/fDhj9zF4M+DlwP7w12AUJU4TLIUeEvwIeBLwZLTsfo1bPcxDuVwpWquxIdT94C7fbb22Xc3bB59c0DEnyO08/eam1Zawrcj2N8k1p+APX8C865oB/B64LFgU0O/Gr9KBIBATAAvMYX54JWJnv9nAluk52EUH9zcZdG4gDZtAFnsuWjERhk3NkGhC8oU9DJ9EVhgCn4xhiUnQ/bifbWGP8g7FMYpE6tl4h3UQ+D7h/Djlh0oaxsfbnwYzKf5nK/+BzCfdms8ZG3yy92p+xnY3hZie3X8tvT/QdhlqseUWEAsCHtvi9y2swhiwiGkhyP7IxH/L8EHDlfzB2xNcJK0PqyWAEtCh+UXm8QIDl60dxtsv8NiOAuZ/BEZD+bdwxfAx4J5F3EWOBeaF47cDI55vTBxsectScwzoZ5DxMSmrGyui0mS2BBlnbRc7lL4kfO4/aDg2shg+y0/yNiSx7l4553gbcEcbz4XfAv4ZfCgGFwH51In3m1fBx7kY6jjv1ICij/SoXzQluMJX7Exefs7l1IQW1B7oiL2vRfe9TUA4XOIDcBHgVn/dXCv3KLvfBCXMs0A4zlUUORniPPvVQTqp0I+hsBpmAxP+EoNyYcs48BtJi7I4rj5sACVOrd3xYb4IMrfEch2rv1IkThUxTexSbTRX5QBmh76LxPyNSaenvAVGpEPgjhryGnMmI8AhJgBXkY2x2jnr9AYXChURm7ZMr+toNtSUd7ZlPWxSbk3oWdtA47PDRs4MaSJL9p1PeELNyCnUC0NdhpBgKsuNS+EKgl3LGzlw8PQ9nJKbkrE2XGhMRgk7/8MATMRtnCa4yBbrR/3hC/YeJOhiwHjNBoB9q6fBGtdLB8fbc7Qb3tFspMPeFMhJg2uBJVoL3aQrD3nWgs2vSjkf2iMPeELNdw90DMO7NQfgW1wOHRwl5H3NPTywWNZYm+zjNyqZThs0XSWUFkfmpTjPG6pZMcflfc0MTZiXQ5FSv3oVY2lYeU94aPhhgEU4hwf7nEowGk4An/E6RB4V5Hxk+EmTXX2zIg2Wp+XPx6+99vcrAreVcoeMBX6tg6kOF3TE37EC5jBzXnYXIHoVIzA4ijCLSaqJIWmZd9VbNaoEqdEtI89RqvPdzij6taIvve240XQxVlA1ukIGNhru+XvnvAjNtg/IHs+6xFrzL4vR2yP3gvxzhq+c0FVr5yQ30+rYVPsKtNCwZ8j+92NIYc/54ntVCD500CO1NTUbozqfvaEjwarC15Rvc0DBVWbxHDp/A0R26S7zb5VA9jtI9v2OuRbe7AvuUCOd3gr1GgXzSp8BnQFuDu2rH72hB+xoR6D7MXBTtUQWB3FYz8Q40PScdXM+k/plfE39sXMB8NWaB8YEtvfbvlbWnG8oh17C+PUjVmVz57wIzcUe6szVwweLz5mzNGR2+XSmiBzeOOFyLZxIdg4sDZ9BAbE/uHtTlYcLkuRtoDRvDPr9sXqZ0/4Ag3FhUVO1RDghlwPg2NdODtUM2dUaYnx7ONHaZT/sipUxv5h625b7imUwkPa3pbYCAdeBnf7YvmzJ3yhxvpGb6T490IEPhmpbTiPfLZC7YMLsC1jX9SvQMfYwSZEPUO9knsc3Q19c0f1KI7wd0Lss+DYsRBSvid8oQbjmPGHwE7VELgIxUMGPGWdUc2EqUrzGUNom/rJO2YqzfEPzAoVnF3Wz54Yx/jju1J8t4JreAckprjFgid8NFyMQO4nk72BZYOHXt4COS+dvd1+eNY99r6GkHHogQ/k6+ovW4979izU0NYq1TlD6nfgsvaFKPeZKgYaKcs7oPuEcQqBNWV4whduuDuhz9reIDDJNB0C60IFPIcqQowVnxLQpmG+fV+wZY4W8qnj77GCvoVSxfUBkgvQOliF+u8JXzjI2XDng9mbciqHAIcZHgCHCPpDy6ksLMXpgyHsKZLBIY8FCq1pXkB6mwDubz9dc7NFJTAO/w4uajPL5z3hKzXgkaKhmr6yTwZqp1BDarz4pWZnxI4VLhCUnH7J/XgWAadE08PYC8GWk3kZ2zzhKzbiZ1OKeAO2Xtawra4J7IPUeHfMXj4fQEtOv3wd+jYM3A4S4k6HkjIJ1XoZT/iKDcmHcqtJRGsmOjibo0lP9POBcdge8qQu8B8Etp3ixoMfAUv5QD37glOjA2GwJEYxdXnCV27MydA/f2pXgKK9J9Rsr1dRL/SGXJT3Wk17ql7UHD7i7JBQNDcE3QauakeT8udB3zShHBCSsx30NPHZWl1P+AYa9FLY4A9xAUIJ4o/jM+CqF1KsN0pdUMOWqrZ3yh9fAp8yRWZEoSsE7ab9XFw1Bzgl4ipadhQ6+OfwP2rC574jsYjzoH8Lnq+LuRw/RVofRh8E3i9F44VtZrsfDK462+aUSHaeA7kbR5LdK3YHHDgczORZlzgl9TTwu+sKqFGPdyec1cQf6lSID5XPAlucScRnOveAOXONi7+I6ytg/jgV0b+KCjQ5L337xm1Ku38AOp8XxPHFpvA4/Lc4Q4C9hw+D+SDQaTgCbGcOR3AMugzxomCbc/glNM0LgdzzJ2bnpttmJiHOWKpLR6Mip2BK0s5Q9lNJhQ118W77EvC6DeWEqM68wJXPF4P/Cr4ePAnsVAEBjr2yV/Y18IVg/joSWG1+AjYsDHYqRoA9xrLt9cNicY1KnF/BlrI2Dyr3JnStWtNaxvsgubGOn1zTVs1qByvg1Iv/tbCBP8wWO6eabRNEN+dUfwT8KzB7gb3gS36/CPp52+1UjMDlKFKmbVYpFtWoBIdaytgRqgw7KVVpO1QIpb+snH9C58xVDVUuvwn080e1rI8hy3HK6s/AdX/QUdWpKgIc/vkf8NPgkI1ZRdaXqxrd0vK8MN4oaKebBLCZCzqkH+5tWsGvD6GsdEfmOeh8RwUbLRTlM8D7wVWu1VBlOWQTalGgBSyTs2FOWMxbu5fBoRq1rBzOz18G7FSMwIkoMgzXLxWLCFKCz16G2RH63C3Qx7HmIuI4NB/yhdZfJK/Jc4Yin2Kd/5ECTnzwunUsh1xudQSYeK8CFwV46PNXQ6cP7RS3Fx/MPzWgfdir5TROCfoMlISOgSJ5RQvJeAfEGRxFckKfZ+JMjdaBwdJDORdC59ypAdUGe5l4vwcOfWEUyZOeTZFqW35uQNv8WtCh2aCLd2ZFbRryPH/o+IPXj9hR4eykkPrKyLoOOmfoZ5DhY7SXs77K+BeqzBHQV+YOzTBs+Zu2DVyUnNHzLPQtkj+sjT3k9N9+D3C3aCy5moBfoHiohFBWzsl9TFwSxx5SsIV3E0v0scf6IT4zK4t303K8i9jZOiBu3wgCm+MjhwqaNnzZ+qePqPZPQxCYgHP8gezgygVa0w0pH+NUlamiHTtD/H9flzNM9hwXDiG3qgz6nxpx9e+T4Kq+1i3Pu1GnxBD4FOyVGu+jnrUTw0fL3I91tQuH4KRpJijk7JS6yaBuvQehcwHwKuCHFfTT7mPAKdJ3YXRd3KvWOyhFgNzmtxBgQqna4HXLX+Ggl0aAvcyfgznLSoNOg9K67dyk3n3QqzEbhzZfC54enBpxkeML4Ca4l637J+iR3nkgtfYwbe+0sK7fuHHZAKhabjPTaLhxHQTYTlXbNuXyHLfncFqKdCyMlsD+CeiRmi2WYjskY/NEWCo1T/+aZFBpt6F8biA5JiyRsIbp+HiizT0X7H4ePMy3UOe2TRQjN7sPAhyXCxUYRXK6H871McUPGUHgBMGYKIqZmOdTnG/fCZGvCrXRjdDjQzkd1DP4z71COCMk5oXVkc2FGk72EdgIJnbaLNf/N8BHzl9PkTgcez9Yom04kcApMwS+BX8kgoczdjiM5GQbgbfBPK3ZMhJxyJlIS9lugqHWfQJnJXBiDPDHxSkzBLg8Wupp/2GZYZerOz+EYxJJRUMHFyCmTLxTlsDNr9WUo6TAdqnpeFwun+qtdAGEWZ3m2gmJpCKt4+TEW2lB2M9tiCVwe3fiWLn5QxCQnI6X4k6EQ6DL8hQf1E0CSyQWKR3/gj+zgFOmvWC8BF5PQ48P56QcKQW2czreoF0bQwfYeQW2+GkbCBwKM0K3vZY8Tj9eyQasjay4WqhN/tDISq+cBAK/FAqmF6GHs4OcbCOwMszTStCh9X7eNtSlrFtCsD0OKGVRZoU4W6FNdKmQs9yzpcobj4TMcjU9CPwD32/vOZbi19/AaK5KTZ3eL+jA9YK6zKhqW8K/TBD5LQR1uar6CJxVv6qJmtyYbQcTljQ3QnLh4h3NzXUJ1hHgQ5pXwKFvp/vJ40Oht1sHxO0bs7RQPPSLkabH3oDtG2bShnzG1r19dlNshtUnbj6TLpPAKXLjnygwLBhCnluzyBg/bwKBGwRjImR8HWwCvTBGrCvYBg+FMTk9KW0b0mEL3SLYTBsJ6nJV9RFIcViHs1n2r++yuZobC1r0qKAuU6ramPAnCbbA+oK6XFV9BH5ev6pKTW6d8GkwFyjlQmsJOuIJXxBsbVWPCBrAIOYCHyfbCEyCeX+zbeIo6/bEt7tHHUn/y6qCLvD5WiupjT18yYQ/B6Jq2VZGVnpO/ywRk/ki9pMTsbWsmeNQcJ6yhQOU475araQ2JnzudSNJq0kqc121ETgHNbnbqWXiw8ZdLBtY0zbJ3j1N9IRfs6FSrMYl6JL0Tkllrqs2Ag+jpuQ6jTqG7oBK3B4kN5K+RqRzgJn2amMPX7qxVzHT2m5IEQKWZ+scD+PPL3Ig0fMrCNvNqbGtpDYmfC68kiTpYJb0LTdd3GvpNYNOTYJN+xi0K5RJ3EPHSQCBNiZ86XFaPrgdK9CWrqI5Ak9ChMXXVHLcni/0zpXG5+qYNb/amPBnVGiE5RR0usp6CFgb1uHD5AvquZJErYVg5UzClk4vrM+MujYm/NkU0Pf33CqAXlMl32Ug/ZxnmKlM+DnTBAXnpH9gFFzsr7KNCX/O/lBEPaoR1FEdylg4V7H+3pB/kjtIaritcW1o3OVrYDuVzjYm/HmnQiH+gcXiq3ANARGwtNXCVvAr5x4ph3SkqbUvJ2pjwp9fOrqgbwEFna6yPgIfrV81eM3ZIZFJP1eSXGHbwVDjLr+jW/V/GxP+ggqIe8JXAL2mSk5//ETNurGq5bi6toOVxh33XB3lbfvfxoS/sEIja/RiFNxMXiW36P2eQS/Whk0rG7QrhEka14b38EO0XCIyFlGwk7flTrYRmADzOCXT6lvK9rANX23rNHr4Gj8ytQHyis0QuB/VQ751qKys1s4MaNZcIrVngZablOKibPxww68chyJuU8Cdiy+nA7eO2jakw3faaswKYGDN2rroSsfhk2Cq9S0wOLNkh3QgLW2pxt0v31Hhz9VKN1G6BbmEu2yPKnQ5jaGkdFtKzvKvKcZE1Ri7B7bm1knjy0iq4hCi/GpyIWZHU27BU4TsuKICEc/7kE5EcGuK3hT1Dq5ZV6MaOywf0lAcUafWGgOtO/2IUBaLblvC19ykqbX7dxSHoUqJCdB6Jji1a2AvFbTiKZ0hnuihkhcdejbTk6kFe9Nm4EWuRW3DWgvnMnr5kPY8cIoPQTeE3SuWcTKBMpozolq5+r1tSUhzE7NpErgA22Li/8JR6w9ph7VFLr18T/jDWjnCubYl/CUjYFhWpCf8skjFLfdliN86roro0j8NDRpbhIR2TDPhLx7amRTkecKXayXOLHDSRWADqD9U14Qg2jnuvVsQSbpCOB9eiyZoKXa9Mghw3m2I6Vx1ZSwt46ZrGYAAp8U+Cq7bftbqPQJftB54DoC48mEuftLEtXVrY9rUw9cczuGV8Hrly8ErhEKAM6R+Ac5hGKSDCTswn+p8SfS/Zg+fkC2RKG61zW5TwtfuYXvCrx2mjSseBQlrNZZiT8CX7JlUyaI3UFoz6WtO4qgEVKjCbUr4y4QCraacl2vW82rNEOADzt2biTBbe3lYtolZ68oZ9kq5YlFKad/1R3FqmNA2JXztHv5LwxrCz0VBgAnxhCiS7QhNvZev2RHS7gSKR1GbEr5243rClw1vvqz+l+DcX2fHd97yhy1V0rwutHOCeJu1JeHPBGQXF0d3RCHHKV8d+eqfBBD4P+hYSkCPBRVcW5AqPa9ouPZdv6Lreat+J9zTnP71TN7wmvNub+X2lo41joOnuhnYdcptNdZc9EY0qC09fO1b3ucitqGLHo3A2vh62OhD2X/jtNM9E/VSs4dPyLRzg2iztSXha++b4glfJqz5uryzwVzQ0zbaFQ7PmqDT/1a2OZeN6ErB2JaEr/0r/myp1vBCTRDgXkWng1t1i94FGF/MvVPX91Q+8gUomuQJXxP9SLq1e/hPRfLLxY4gsB8+pj4nfcSbep/47GLaelXVannCF4S+DT183uYvLIhpP1VP9Dvox4IhsB4kfSeYtHqC7kE17fFozkTbqp75arW0Ez5n6rRmCLANCX9ltVAeUfzkyEf/FBgB7o/zM7DmVrvXQ/+q4PeDOWNGk/bRVF5Dt3ZniMl+uRp2J1mlDQl/FQMt4wk/TiMwfjlur3kH9wD0bwbm1NsrwdrbOLCD815wKvS4AUM5bbsV5Alfppk94cfB+RsQu3Ec0aWksje/BfiRrtJc8HVS13eNjyn18h/TAKhHJ+/OnDJB4Fb4Ib0QpldfauOqKTT9BjCSO5D2Yi35/XMDgJoZx29Ttm2lAbZZO7ysMk6Ml6usgeL21EOAFx63YJVMAv10vaee+V5rAAIL4PjD4H5YSx3jUNIw4tAK7wCk7OnVc9ow4wydm0sRow5mL8IGzWdAhpojbVO4B3qnUTX/W3hwnHZLjljPYcg/K7frHdBfZpETh1a04u416F4UnAJxAzUtnDp6W/HgNvcxfAsPbHnBdY/xpnABWrbx6zBO847pVej/BLjMFMwjUe5ysAZNC6V7ayiuodPC9eGdshoNZ63KCTCo8wuu9Z89rdx/WKXafV0o0h63/0pFZ8ejPLfW0Ig/rvCes6K9GsX/ooRPd5scpuG46wyLwDUGAmlyWJdaK20eeH6/cnteCP3cwqEq7YIK3clF8vO+VY1VKH+WIj6dtrhAwW9XGRAB9qr5MKbToFr/fQZAmEb9rXJbcmrtIg1c4Y+FRgw+BL3cTdMyHQHjNLDp1vmoZYBC2ZbzUMNEgMQXn2jTA9oGZKCfY9EfVPZjN+h/sIENO6Iuh3akaSEo/Iy00or6eOemTfPDAGKVNeWc8Fcw0nJNkoQRF1TN4KKYQ1UtGDPmDOg/u6ENHNr7akMZdat/GRXrDEXV1Ve1noWET5tTWbtQFd//ls854S//Xy91P3jCr48/pz5yfFdzSILJaI/6Loyq+RN8u3TUEZkvXNy0mYyqWlom1aoVvlL2M3VyTvjeww9/QUhL/DEULimttEsfx3i3B3OfnBBEeTuBOe9cmixvtzBJGowB+rLv4Q/wO4vDt8KL7ocyWp+5da9TdQQ47qzVZh29x1Q3u1QNDrF0dEj+X6OUdTqFOIVUEot+um7Ucd21NkWAi064QKZfo0ofG9vUmRbWXwI+ayeAO2ADt+aIQW+H0OvA0rF4TgxnAslkspXGo1ffC7DB8rOOQFDnJ2YpA8HDYOKtuwdQtfiaDsX/Du69GCW/c/+ltauZXbk0V4FLLyKjX/wxtUi/glGSbTxIV9YdtFzH8Jc2EtF8CxIDy6k8Ageh6Orli0cpeSSkxl4/cQN0fD+K9YOF8nr/0uDTqmfuVtU+opydRafEEOD0t0G/4JLHf5MYbtrmbgQD3lRuOz77mVEICA4ZdToFUnH5InTytZ/WaFcYJIXBMD1cFZ0t5drDn2ikxaz0WozAMdSMeXD2VLDmEBiHPLYDvwyWICZfJjpJ4mLEUNNMQ9pt5VrRnBUWEs++snJN+FbGKe/qi7of7IfAiTjYZOuCfjKrHjscFfj8QJK4h8sZkgqh6/NgC6vQu92+s/uL4mcf0lEEv67qSag47LZN6tymdR1oWb2dDbQXh3JmUMJ9Puh9QhgDbhVhidj55J2V1LU5SM+/LIHithQjMD2K8NZ8UINKHs/69rC4KUqVIEbcW16yXXp1MV7WLGVtvELbCGPAu09rd/g3C2PQGwf8/opBXGCS0yAEOH7fryGljzFwuB7AaTACxEd7CibjgkM5Fuh8GCEZpx+z4HSXDecK+z8I64W7bMrqo7Vf+BDgLhZCSAAZHJPkPGunwQjsj1PaUzC5wOpbg00UPcMZIlz8I0XjpRSV1GNlHN9KDikJW/linvDLY1W1JMeEnQYjwIVN+w0+LXKGPbwdwVKzcoqcmoQCUphcD10/KDJI+Dx/fC2QJ3wLrVDSBiuNdVtJe9tYbBY4fRr47crO/wj6r1S2oVf9sQI2vQod24Kt3YFa6eEv2tsouXzPsYdvpbH4AMqpPwJH4bD21Nn7YMPX+punelTiruM78NBifFrp4S+kGgGuvBICv0NpXjTa7PN5+zfbBwy0DWPjff3NM3M01o6a18BDy5MJtDfNY2ycbiYK3JBCBK5FCe1kzwdvOd49FYJfUGBunH8IrN0+JxfYaeE04+cKcEisXoG85Sw4N8QGPlsI6XMdWX8eYp+fMobAAwYC5mpjmFgx50wDbfMobOAPTwrEYa/nwXWSVr86Bybg9DkB/e2HQZljFoe7Emg6eRO5D8trBgLmBHnXzWv8qIF24cW+lXmkRhvIqZplklRRGY6Pa60kHu3R8G+HBvK3CI9h5x8ZbqKftYLAnAaChYG0hxVAjNjBjdF4EQ27yCTO/doIHlXNoN1N8dm8qlKl8qF+4JrgxVlMTgkgMAE2NmnoUHXXTQArSRO5OVgobOvKeQY2LCLpdEBd3GvnQXBd3y8LaEtsUXyYXtfPkPVmi+2oy2+OwGpGgiWVMeLmiBdL+KCRNkn9rmt94Mh583WSGuumQhNhaB0fQ9dZPBXA2mznxgaCxcf/RiJwVnycbKBNroINOcya4rqBqomNb9ZKiaaHsW+Aq/oZuvzyKYFW1tYcLoJuX2fv/qL02VfYjgB/AD5qL4TjQ/zPgd8cMSvZT4fA8rMrWv/7iuW1i3P83EKnKcshndwS/iza0Qr9dxmwwYIJy8GIPQ0YcgRs+KcBO0KZsB0E/bWkMP7YnVmyrKViXAWtTbw7zY484Ydv0rvDi0xS4mGwWntFJ398v5MkeoONfgmnPgQuGqrhHQ3vbFLcxO9+2K1NFjqPwTHwhB8c0jH3hheZnMT1YTG3UNCmXWGAlZ0wQ2LxFIRtBL5ogFAu1voU+OQB560ftpDwU1izULkdc0v401VGIHwFC8Ea3qtqEg+qVjxK6VMhdVBCjKJQWOi/oW8T8JfAD0/RzVk8vwKvAv75lGMp/uNqeW2aXtsA11+MwLdQJPTT+qryFi82M+sS6xpog8dhw7xZozzaOXbcuMYgl2GIj8OXqtdd6PI7joY4j2/aY6yhUbTgz5OhnUpM3r4G7P0KbHjCgB1SJnC8nguzciELvuQ2+vGf2MjNKW1/OKWM46dtpfFw/P3KznNV6SnKNrj6ZghYmJbJO4bsSDtBhgaUY5iaxIdpbaZd4LxmTHEa4u5tboBMfPeEH6khNS/OGC7xgtekNif8aQD8pzXBh+4jwSlOQ1SGzZz6F2GR9p1yDgv1pmrY3BK+dg+fc6TbSuvB8bGKzk+C7gMV9bvqsAg8FlZcZWl8WUx2lFvCZ8/ASQcB7e13vwC3vf112j6GVu2H7ll23nJL+M/GiLwKMrN80FPS/81KlotR7DwI/V0MwS5TDQHt4VFP+GpNX17xc+WLRinZ1oTPOeBLRUG0WCjfH7xXcTEvkRgCTyvbq51LorifWw9fO0hmjNJK9oWuo2jiAdA9WVG/q46DAF9Yo0nadxhRfM8t4fMF1Zo0r6ZyRd2rKem+GXqPUtLtauMiwDs3TdLuPEbx3RN+WFjbmvCXCwtjaWl7oKT2zKzSxnrBSghobnrHodksV8znlvD5q6wZKNy8bY5KYZ1H4YkKbpwOnZcr6HWVMgho/pBzSqj2mp4oKOeW8PnLfG8UpMoL1Uh+5a2LU3LhOGIHSuVsrH0GnvUTOSCguS+Whb18orRhbgmfIN0TBanyQlcqXzSLktw3XPrtQP8DnRaW32fRgEadmEvRrvsUdUdVnWPCvyMqYsXC25bwpWcm3YQmOLa4GbxE4gisqmj/nYq6o6rOMeHfGBWxYuGrFxfJqoR0DPFB7RtZIejO9CKwIA6s2XtQ8Lt2pzGaq9IXazRHugRrJ3wG6nxd9uT+UXL63GkA88rcAXX/xmwHDLgZnxbl9NJ7LQzF9HKmDJMQH+Bq8Q5i3tpQxFWJsbHmK/0WsOGuWxERAb5acDI4djwNks/ZOdLDlBHhHC06xx4+G+xvo90U/7aluEZdhZME1PNBrfbCOgE3W69iNyCwqCIKXMynObVb0fV0Ve8P0wf9gkscfxP6l00XvsqWnxUZ7xsg/+2VrfIKqSGwEAx+GixxjQ7ScVRqoFWxN8cePv3/QxUQIpTl+ONXI8i1KvLqiIbxwuRbrPxBbUSQDYjmNXMieE5lWy5W1u/qayDA4HkIPOhXXOI432+7TA3bU6yydESsT0gRELe5MgL7RYyhstf787Bh5sqWewUTCPwQVpRt6Fjl+CyhLUMRHPsMjSPH7DUX4EC9kwACW0EH7+BCx09VeWcI+OoqIiGwooEAYsDtG8k/a2I5P77qBVZU/hPWnHR7giPwQUjk6wSLYkHi/CbBvXOBoghcYyCQuAnU5qJe6yjjrTD3IAl1Yf5axw3XKogAf9A59BkqZprI8bn3gg0fS9VORoLpJdixXiwnDcndJhDeHMqZ35BfbkpYBPiMjdNsOZutSZIOWXfbsC66NA0EuLFXyF5nkwDj4qSPaYAgrPNc6GuCE9dRbChss6uTQ4Cr0DmLrkmMhK57G+zR3J1TDv0WaPqioeBij+ZAMHs4udIccIwXUJ2LkmO5Pm6fa2SMGbM1XOPdW53YiFmHzxGcMkFgFvhhLciugk2auwHGbtoloKDKnRWfc/wxc0xiY25Z/nIw7k/gmEm7ruzzLQPnttVDYGeDwcZpaMeBF6rnkvlaS8LCW8CDLsS7ce54MKfkzQt2yg8BxsBJYP6gD4oDzeOcdz8O7JQZAlxRfANYM7gG6eYwxkngFcC50YxwiA/OTwP/Anw0eHvweLBTvghsBNd+CbYwt37QdcfjX8i3CdyzdQGBpVkB/QKRQz185rCoN5cjkBgCHLY5AHwXuF9sWzvGIaZpwE4ZI8AhFGuB188e/jAx+fMCWg88E9jJEbCEwFgYwwfsPwLfC+4Xx1aP8fkSZwu1jtr2C8fFQTeCJybW0pyq+A/w9VP+34r/nAnzONjJEYiNwNxQsBp49S5eOLbSSPJ5Lb0XfHkk+abFti3hszHWBrOxc5h3+zT8uHMK39H1mceeATs5AlUR4AvpOYOsO7lPqCrEcPldYJtvyGe4gWKYZmlufqzb3scA3K9jgOcys0XgN/DM+oPWJtfLUdm2nDtWiMAZKNEkeFKo+0AhCl7AERhB4CZ8TCGu69h4Nnx724ir7fzUZgB2QpNf185md68dgVYhcAG8/QyYkyFaTW1O+C+h5T8A5ni3kyPgCOSJwBVw66PgV/N0r5pXbU74RIrj3O8D8+1YTo6AI5AXApfAnfeDX8jLrfretD3hE7lJ4I3Bj4CdHAFHIA8EOIyzGdiTfVd7esJ/CwzOa+dK3Mld2PhHR8ARSBMBTsjgDpgctnXqQsAT/ggYXBLOpO9j+iOY+CdHIDUEDoXB24BfS81wt1cHgXmglmN/daZ+Wavj0zJ1YihVrSlPy+QmhDumCrzbrYvAdFDP1XjWEnhVezzh68ZRatpTTficdLFWamC7vfYQ2DlBcvoAAALSSURBVB0mcRywaqK1Ut4Tvr2YsmxRign/YgCa6zslLMdKtratCM+4UZmVJF7FDk/42YZlFMdSSvivA4Fvgv05ZJRQaLfQmeH+T8BVkq2Fsp7w2x23Vb1PJeHfDsfeVdU5L+8IVEVgQ1TgLB4LybyMDZ7wq7Zwu8tbT/js1R8O5pvUnBwBEQT4MpJDwJwVUCbpapZ5UAQRV5ILApYT/t8AMvfkd3IEVBBYAlr53k7NhF6k2xO+Smgkq9RiwucK+O3BbXx3R7KBlLPhXKzF1xEWJV+N857wc4688L5ZSvh8uc83wHwhi5MjYA6BjWHR5WCNxD5Ipyd8c2Fi2iALCZ+v7TwAPKdppNw4R2AKAnzp+G/Ab4AHJWKp4/7Qdkqj+L9SCGgm/FtgIV8/yGdkTo5AcgiMg8Xc1+MJsFSC79VzD3Q7OQJlEZBO+E/CsOPAa5Q10Ms5AtYR4BSyrcB8vyxfwtCblGN+5y6gTo5AWQQkEj63QTgezCHQacsa5uUcgRQR4MZsu4K5V7fEtM6/pAiS26yGQIyEz9cKXg8+ELw62GfbAASn9iEwG1zeEnwymL2eGD39n0OukyNQFoFQCZ9vkjsTvB14QbCTI+AI9CAwEd+5vespYI69h/gB2A9ynByBsgjUTficQvkb8BfBK4O9Fw8QLJI3jMVWecumBfBvTTC3fSXzdrjKnGQuQ18GfBfYyREogwAT/goFBTlEw71srgFz9SuHDW8G87iTcQQ84RtvoC7zuCvgcmAmfi4xX3XK934/Anzbz55gPhxzcgTKItCd8LktOPeNYnLvZk4EeAHslCACnvATbLQuk9l+i4PHgxcCcw4zp7qx18UFLE6OQBUEOJvs32Am+MlgDis6OQKOgCPgCDgCjoAj4Ag4Ao6AI+AIOAKOgCPgCDgCjoAj4Ag4Ao6AI+AIOAKOgCPgCDgCjoAj4Ag4Ao6AI+AIlEbg/wO6JY343rb0wQAAAABJRU5ErkJggg==;connectable=1;allowArrows=0;editable=1;dashed=1;dashPattern=1 1;fontFamily=Roboto Mono;fontSource=https%3A%2F%2Ffonts.googleapis.com%2Fcss%3Ffamily%3DRoboto%2BMono;strokeWidth=2;movable=1;resizable=1;rotatable=1;deletable=1;fontColor=#F5F5F5;" parent="uIzgDBzPALOjonshk2yQ-23" vertex="1">
          <mxGeometry x="16" y="6.5" width="17" height="17" as="geometry" />
        </mxCell>
        <mxCell id="uIzgDBzPALOjonshk2yQ-28" value="" style="group" parent="7BcbjyJo5ydgNHTcu2xo-1" vertex="1" connectable="0">
          <mxGeometry x="-1280" y="710" width="234.62075620767496" height="40" as="geometry" />
        </mxCell>
        <mxCell id="uIzgDBzPALOjonshk2yQ-29" value="&lt;font color=&quot;#172b4d&quot;&gt;&lt;span style=&quot;font-size: 11px ; line-height: 1&quot;&gt;excel&lt;br&gt;&lt;/span&gt;&lt;/font&gt;" style="whiteSpace=wrap;html=1;fontFamily=Roboto Mono;align=left;fontSize=14;spacingLeft=8;dashed=1;dashPattern=1 1;fontSource=https%3A%2F%2Ffonts.googleapis.com%2Fcss%3Ffamily%3DRoboto%2BMono;spacing=0;spacingBottom=4;" parent="uIzgDBzPALOjonshk2yQ-28" vertex="1">
          <mxGeometry x="54.62075620767496" width="180" height="40" as="geometry" />
        </mxCell>
        <mxCell id="uIzgDBzPALOjonshk2yQ-30" value="" style="group" parent="uIzgDBzPALOjonshk2yQ-28" vertex="1" connectable="0">
          <mxGeometry width="45" height="40" as="geometry" />
        </mxCell>
        <mxCell id="uIzgDBzPALOjonshk2yQ-31" value="" style="whiteSpace=wrap;html=1;dashed=1;dashPattern=1 1;fontFamily=Roboto Mono;fontSource=https%3A%2F%2Ffonts.googleapis.com%2Fcss%3Ffamily%3DRoboto%2BMono;strokeWidth=1;fillColor=none;align=left;verticalAlign=middle;noLabel=1;connectable=1;allowArrows=1;snapToPoint=1;" parent="uIzgDBzPALOjonshk2yQ-30" vertex="1">
          <mxGeometry width="45" height="40" as="geometry" />
        </mxCell>
        <mxCell id="uIzgDBzPALOjonshk2yQ-32" value="" style="shape=image;html=1;verticalAlign=top;verticalLabelPosition=bottom;imageAspect=0;aspect=fixed;image=https://cdn4.iconfinder.com/data/icons/logos-and-brands/512/119_Excel_logo_logos-128.png;dashed=1;dashPattern=1 1;fontFamily=Roboto Mono;fontSource=https%3A%2F%2Ffonts.googleapis.com%2Fcss%3Ffamily%3DRoboto%2BMono;strokeWidth=2;" parent="uIzgDBzPALOjonshk2yQ-30" vertex="1">
          <mxGeometry x="4.5" y="2" width="36" height="36" as="geometry" />
        </mxCell>
        <mxCell id="uIzgDBzPALOjonshk2yQ-33" value="" style="group" parent="7BcbjyJo5ydgNHTcu2xo-1" vertex="1" connectable="0">
          <mxGeometry x="-480.00000000000045" y="580" width="218.695756207675" height="40" as="geometry" />
        </mxCell>
        <mxCell id="uIzgDBzPALOjonshk2yQ-34" value="&lt;b style=&quot;font-size: 11px;&quot;&gt;&lt;font face=&quot;Verdana&quot; style=&quot;font-size: 11px;&quot;&gt;OD&lt;/font&gt;&lt;/b&gt;" style="ellipse;whiteSpace=wrap;html=1;aspect=fixed;fillColor=#e51400;strokeColor=#B20000;fontColor=#ffffff;fontSize=11;dashed=1;dashPattern=1 1;fontFamily=Roboto Mono;fontSource=https%3A%2F%2Ffonts.googleapis.com%2Fcss%3Ffamily%3DRoboto%2BMono;align=center;verticalAlign=middle;" parent="uIzgDBzPALOjonshk2yQ-33" vertex="1">
          <mxGeometry y="5" width="30" height="30" as="geometry" />
        </mxCell>
        <mxCell id="uIzgDBzPALOjonshk2yQ-35" value="&lt;font color=&quot;#172b4d&quot; face=&quot;Roboto Mono&quot;&gt;&lt;span style=&quot;font-size: 11px&quot;&gt;OD&lt;/span&gt;&lt;/font&gt;" style="rounded=0;whiteSpace=wrap;html=1;fontFamily=Verdana;align=left;fontSize=14;spacingLeft=8;fontColor=#333333;strokeColor=#B3B3B3;fillColor=#FFFFFF;dashed=1;dashPattern=1 1;fontSource=https%3A%2F%2Ffonts.googleapis.com%2Fcss%3Ffamily%3DRoboto%2BMono;" parent="uIzgDBzPALOjonshk2yQ-33" vertex="1">
          <mxGeometry x="38.695756207675004" width="180" height="40" as="geometry" />
        </mxCell>
        <mxCell id="1KFaV_7iB4pAQhAyHhLh-13" value="" style="group" connectable="0" vertex="1" parent="7BcbjyJo5ydgNHTcu2xo-1">
          <mxGeometry x="-4680" y="580" width="190.4" height="40" as="geometry" />
        </mxCell>
        <mxCell id="1KFaV_7iB4pAQhAyHhLh-14" value="od_ghostlist_YYYY_MM" style="rounded=0;whiteSpace=wrap;html=1;fontFamily=Roboto Mono;align=left;fontSize=11;spacingLeft=8;fontSource=https%3A%2F%2Ffonts.googleapis.com%2Fcss%3Ffamily%3DRoboto%2BMono;fontColor=#333333;strokeColor=#B3B3B3;fillColor=#FFFFFF;" vertex="1" parent="1KFaV_7iB4pAQhAyHhLh-13">
          <mxGeometry x="35.80976071776724" width="154.59023928223277" height="40" as="geometry" />
        </mxCell>
        <mxCell id="1KFaV_7iB4pAQhAyHhLh-15" value="" style="shape=image;html=1;verticalAlign=top;verticalLabelPosition=bottom;labelBackgroundColor=#ffffff;imageAspect=0;aspect=fixed;image=https://cdn3.iconfinder.com/data/icons/dompicon-glyph-file-format-2/256/file-csv-format-type-128.png;fontFamily=Roboto Mono;fontSource=https%3A%2F%2Ffonts.googleapis.com%2Fcss%3Ffamily%3DRoboto%2BMono;fontSize=18;align=left;" vertex="1" parent="1KFaV_7iB4pAQhAyHhLh-13">
          <mxGeometry y="2" width="30.918047856446552" height="30.918047856446552" as="geometry" />
        </mxCell>
        <mxCell id="1KFaV_7iB4pAQhAyHhLh-35" value="" style="group" vertex="1" connectable="0" parent="7BcbjyJo5ydgNHTcu2xo-1">
          <mxGeometry x="-2800" y="542" width="210" height="30" as="geometry" />
        </mxCell>
        <mxCell id="1KFaV_7iB4pAQhAyHhLh-74" value="+ LAST_ACTIVITY: date" style="text;strokeColor=none;fillColor=none;align=left;verticalAlign=top;spacingLeft=4;spacingRight=4;overflow=hidden;rotatable=0;points=[[0,0.5],[1,0.5]];portConstraint=eastwest;" vertex="1" parent="7BcbjyJo5ydgNHTcu2xo-1">
          <mxGeometry x="-1370" y="310" width="295" height="26" as="geometry" />
        </mxCell>
        <mxCell id="1KFaV_7iB4pAQhAyHhLh-79" style="rounded=0;orthogonalLoop=1;jettySize=auto;html=1;exitX=1;exitY=0.5;exitDx=0;exitDy=0;entryX=0.175;entryY=0.5;entryDx=0;entryDy=0;entryPerimeter=0;" edge="1" source="1KFaV_7iB4pAQhAyHhLh-14" target="1KFaV_7iB4pAQhAyHhLh-2" parent="7BcbjyJo5ydgNHTcu2xo-1">
          <mxGeometry relative="1" as="geometry" />
        </mxCell>
        <mxCell id="1KFaV_7iB4pAQhAyHhLh-82" value="" style="group" connectable="0" vertex="1" parent="7BcbjyJo5ydgNHTcu2xo-1">
          <mxGeometry x="-4625" y="1130" width="225" height="40" as="geometry" />
        </mxCell>
        <mxCell id="1KFaV_7iB4pAQhAyHhLh-83" value="od_briefcase_YYYY_MM_DD" style="rounded=0;whiteSpace=wrap;html=1;fontFamily=Roboto Mono;align=left;fontSize=11;spacingLeft=8;fontSource=https%3A%2F%2Ffonts.googleapis.com%2Fcss%3Ffamily%3DRoboto%2BMono;fontColor=#333333;strokeColor=#B3B3B3;fillColor=#FFFFFF;" vertex="1" parent="1KFaV_7iB4pAQhAyHhLh-82">
          <mxGeometry x="42.31720673055477" width="182.68279326944526" height="40" as="geometry" />
        </mxCell>
        <mxCell id="1KFaV_7iB4pAQhAyHhLh-84" value="" style="shape=image;html=1;verticalAlign=top;verticalLabelPosition=bottom;labelBackgroundColor=#ffffff;imageAspect=0;aspect=fixed;image=https://cdn3.iconfinder.com/data/icons/dompicon-glyph-file-format-2/256/file-csv-format-type-128.png;fontFamily=Roboto Mono;fontSource=https%3A%2F%2Ffonts.googleapis.com%2Fcss%3Ffamily%3DRoboto%2BMono;fontSize=18;align=left;" vertex="1" parent="1KFaV_7iB4pAQhAyHhLh-82">
          <mxGeometry y="2" width="30.918047856446552" height="30.918047856446552" as="geometry" />
        </mxCell>
        <mxCell id="1KFaV_7iB4pAQhAyHhLh-85" value="BRIEFCASE (raw)" style="swimlane;fontStyle=0;childLayout=stackLayout;horizontal=1;startSize=26;fillColor=#ffe6cc;horizontalStack=0;resizeParent=1;resizeParentMax=0;resizeLast=0;collapsible=1;marginBottom=0;strokeColor=#d79b00;" vertex="1" collapsed="1" parent="7BcbjyJo5ydgNHTcu2xo-1">
          <mxGeometry x="-3460" y="1361.9" width="210" height="26" as="geometry">
            <mxRectangle x="1760" y="-213" width="265" height="1638" as="alternateBounds" />
          </mxGeometry>
        </mxCell>
        <mxCell id="1KFaV_7iB4pAQhAyHhLh-86" value="" style="html=1;fillColor=#5184F3;strokeColor=none;verticalAlign=top;labelPosition=center;verticalLabelPosition=bottom;align=center;spacingTop=-6;fontSize=11;fontStyle=1;fontColor=#999999;shape=mxgraph.gcp2.hexIcon;prIcon=bigquery;aspect=fixed;" vertex="1" parent="1KFaV_7iB4pAQhAyHhLh-85">
          <mxGeometry y="26" width="210" height="24" as="geometry" />
        </mxCell>
        <mxCell id="1KFaV_7iB4pAQhAyHhLh-87" value="+ BRIEFCASE_ID: uuid" style="text;strokeColor=none;fillColor=none;align=left;verticalAlign=top;spacingLeft=4;spacingRight=4;overflow=hidden;rotatable=0;points=[[0,0.5],[1,0.5]];portConstraint=eastwest;" vertex="1" parent="1KFaV_7iB4pAQhAyHhLh-85">
          <mxGeometry y="50" width="210" height="26" as="geometry" />
        </mxCell>
        <mxCell id="1KFaV_7iB4pAQhAyHhLh-88" value="+ DECISION_MAKER_ID: int" style="text;strokeColor=none;fillColor=none;align=left;verticalAlign=top;spacingLeft=4;spacingRight=4;overflow=hidden;rotatable=0;points=[[0,0.5],[1,0.5]];portConstraint=eastwest;" vertex="1" parent="1KFaV_7iB4pAQhAyHhLh-85">
          <mxGeometry y="76" width="210" height="26" as="geometry" />
        </mxCell>
        <mxCell id="1KFaV_7iB4pAQhAyHhLh-89" value="+ DECISION_MAKER_NAME: str" style="text;strokeColor=none;fillColor=none;align=left;verticalAlign=top;spacingLeft=4;spacingRight=4;overflow=hidden;rotatable=0;points=[[0,0.5],[1,0.5]];portConstraint=eastwest;" vertex="1" parent="1KFaV_7iB4pAQhAyHhLh-85">
          <mxGeometry y="102" width="210" height="26" as="geometry" />
        </mxCell>
        <mxCell id="1KFaV_7iB4pAQhAyHhLh-90" value="+ GRAND_PARENT: int" style="text;strokeColor=none;fillColor=none;align=left;verticalAlign=top;spacingLeft=4;spacingRight=4;overflow=hidden;rotatable=0;points=[[0,0.5],[1,0.5]];portConstraint=eastwest;" vertex="1" parent="1KFaV_7iB4pAQhAyHhLh-85">
          <mxGeometry y="128" width="210" height="26" as="geometry" />
        </mxCell>
        <mxCell id="1KFaV_7iB4pAQhAyHhLh-91" value="+ GRAND_PARENT_NAME: str" style="text;strokeColor=none;fillColor=none;align=left;verticalAlign=top;spacingLeft=4;spacingRight=4;overflow=hidden;rotatable=0;points=[[0,0.5],[1,0.5]];portConstraint=eastwest;" vertex="1" parent="1KFaV_7iB4pAQhAyHhLh-85">
          <mxGeometry y="154" width="210" height="26" as="geometry" />
        </mxCell>
        <mxCell id="1KFaV_7iB4pAQhAyHhLh-92" value="+ CUST_PARENT_ID: int" style="text;strokeColor=none;fillColor=none;align=left;verticalAlign=top;spacingLeft=4;spacingRight=4;overflow=hidden;rotatable=0;points=[[0,0.5],[1,0.5]];portConstraint=eastwest;" vertex="1" parent="1KFaV_7iB4pAQhAyHhLh-85">
          <mxGeometry y="180" width="210" height="26" as="geometry" />
        </mxCell>
        <mxCell id="1KFaV_7iB4pAQhAyHhLh-93" value="+ PARENT_NAME: str" style="text;strokeColor=none;fillColor=none;align=left;verticalAlign=top;spacingLeft=4;spacingRight=4;overflow=hidden;rotatable=0;points=[[0,0.5],[1,0.5]];portConstraint=eastwest;" vertex="1" parent="1KFaV_7iB4pAQhAyHhLh-85">
          <mxGeometry y="206" width="210" height="26" as="geometry" />
        </mxCell>
        <mxCell id="1KFaV_7iB4pAQhAyHhLh-94" value="+ CUSTOMER: int" style="text;strokeColor=none;fillColor=none;align=left;verticalAlign=top;spacingLeft=4;spacingRight=4;overflow=hidden;rotatable=0;points=[[0,0.5],[1,0.5]];portConstraint=eastwest;" vertex="1" parent="1KFaV_7iB4pAQhAyHhLh-85">
          <mxGeometry y="232" width="210" height="26" as="geometry" />
        </mxCell>
        <mxCell id="1KFaV_7iB4pAQhAyHhLh-95" value="+ CUSTOMER_NAME: str" style="text;strokeColor=none;fillColor=none;align=left;verticalAlign=top;spacingLeft=4;spacingRight=4;overflow=hidden;rotatable=0;points=[[0,0.5],[1,0.5]];portConstraint=eastwest;" vertex="1" parent="1KFaV_7iB4pAQhAyHhLh-85">
          <mxGeometry y="258" width="210" height="26" as="geometry" />
        </mxCell>
        <mxCell id="1KFaV_7iB4pAQhAyHhLh-96" value="+ SHIP_TO_ID: int" style="text;strokeColor=none;fillColor=none;align=left;verticalAlign=top;spacingLeft=4;spacingRight=4;overflow=hidden;rotatable=0;points=[[0,0.5],[1,0.5]];portConstraint=eastwest;" vertex="1" parent="1KFaV_7iB4pAQhAyHhLh-85">
          <mxGeometry y="284" width="210" height="26" as="geometry" />
        </mxCell>
        <mxCell id="1KFaV_7iB4pAQhAyHhLh-97" value="+ ADDRESS_KEY: str" style="text;strokeColor=none;fillColor=none;align=left;verticalAlign=top;spacingLeft=4;spacingRight=4;overflow=hidden;rotatable=0;points=[[0,0.5],[1,0.5]];portConstraint=eastwest;" vertex="1" parent="1KFaV_7iB4pAQhAyHhLh-85">
          <mxGeometry y="310" width="210" height="26" as="geometry" />
        </mxCell>
        <mxCell id="1KFaV_7iB4pAQhAyHhLh-98" value="+ SHIP_TO_NAME: str" style="text;strokeColor=none;fillColor=none;align=left;verticalAlign=top;spacingLeft=4;spacingRight=4;overflow=hidden;rotatable=0;points=[[0,0.5],[1,0.5]];portConstraint=eastwest;" vertex="1" parent="1KFaV_7iB4pAQhAyHhLh-85">
          <mxGeometry y="336" width="210" height="26" as="geometry" />
        </mxCell>
        <mxCell id="1KFaV_7iB4pAQhAyHhLh-99" value="+ SITE_ADDRESS_LINE_1: str" style="text;strokeColor=none;fillColor=none;align=left;verticalAlign=top;spacingLeft=4;spacingRight=4;overflow=hidden;rotatable=0;points=[[0,0.5],[1,0.5]];portConstraint=eastwest;" vertex="1" parent="1KFaV_7iB4pAQhAyHhLh-85">
          <mxGeometry y="362" width="210" height="26" as="geometry" />
        </mxCell>
        <mxCell id="1KFaV_7iB4pAQhAyHhLh-100" value="+ SITE_ADDRESS_LINE_2: str" style="text;strokeColor=none;fillColor=none;align=left;verticalAlign=top;spacingLeft=4;spacingRight=4;overflow=hidden;rotatable=0;points=[[0,0.5],[1,0.5]];portConstraint=eastwest;" vertex="1" parent="1KFaV_7iB4pAQhAyHhLh-85">
          <mxGeometry y="388" width="210" height="26" as="geometry" />
        </mxCell>
        <mxCell id="1KFaV_7iB4pAQhAyHhLh-101" value="+ SITE_CITY: str" style="text;strokeColor=none;fillColor=none;align=left;verticalAlign=top;spacingLeft=4;spacingRight=4;overflow=hidden;rotatable=0;points=[[0,0.5],[1,0.5]];portConstraint=eastwest;" vertex="1" parent="1KFaV_7iB4pAQhAyHhLh-85">
          <mxGeometry y="414" width="210" height="26" as="geometry" />
        </mxCell>
        <mxCell id="1KFaV_7iB4pAQhAyHhLh-102" value="+ SITE_STATE: str" style="text;strokeColor=none;fillColor=none;align=left;verticalAlign=top;spacingLeft=4;spacingRight=4;overflow=hidden;rotatable=0;points=[[0,0.5],[1,0.5]];portConstraint=eastwest;" vertex="1" parent="1KFaV_7iB4pAQhAyHhLh-85">
          <mxGeometry y="440" width="210" height="26" as="geometry" />
        </mxCell>
        <mxCell id="1KFaV_7iB4pAQhAyHhLh-103" value="+ SITE_ZIP_CODE: int" style="text;strokeColor=none;fillColor=none;align=left;verticalAlign=top;spacingLeft=4;spacingRight=4;overflow=hidden;rotatable=0;points=[[0,0.5],[1,0.5]];portConstraint=eastwest;" vertex="1" parent="1KFaV_7iB4pAQhAyHhLh-85">
          <mxGeometry y="466" width="210" height="26" as="geometry" />
        </mxCell>
        <mxCell id="1KFaV_7iB4pAQhAyHhLh-104" value="+ ORDER_CREATE_DATE: date" style="text;strokeColor=none;fillColor=none;align=left;verticalAlign=top;spacingLeft=4;spacingRight=4;overflow=hidden;rotatable=0;points=[[0,0.5],[1,0.5]];portConstraint=eastwest;" vertex="1" parent="1KFaV_7iB4pAQhAyHhLh-85">
          <mxGeometry y="492" width="210" height="26" as="geometry" />
        </mxCell>
        <mxCell id="1KFaV_7iB4pAQhAyHhLh-105" value="+ FIRST_ORDER_DATE: date" style="text;strokeColor=none;fillColor=none;align=left;verticalAlign=top;spacingLeft=4;spacingRight=4;overflow=hidden;rotatable=0;points=[[0,0.5],[1,0.5]];portConstraint=eastwest;" vertex="1" parent="1KFaV_7iB4pAQhAyHhLh-85">
          <mxGeometry y="518" width="210" height="26" as="geometry" />
        </mxCell>
        <mxCell id="1KFaV_7iB4pAQhAyHhLh-106" value="+ CUSTOMER_DEPARTMENT: str" style="text;strokeColor=none;fillColor=none;align=left;verticalAlign=top;spacingLeft=4;spacingRight=4;overflow=hidden;rotatable=0;points=[[0,0.5],[1,0.5]];portConstraint=eastwest;" vertex="1" parent="1KFaV_7iB4pAQhAyHhLh-85">
          <mxGeometry y="544" width="210" height="26" as="geometry" />
        </mxCell>
        <mxCell id="1KFaV_7iB4pAQhAyHhLh-107" value="+ CUSTOMER_DEPARTMNET_ORDER: int" style="text;strokeColor=none;fillColor=none;align=left;verticalAlign=top;spacingLeft=4;spacingRight=4;overflow=hidden;rotatable=0;points=[[0,0.5],[1,0.5]];portConstraint=eastwest;" vertex="1" parent="1KFaV_7iB4pAQhAyHhLh-85">
          <mxGeometry y="570" width="210" height="26" as="geometry" />
        </mxCell>
        <mxCell id="1KFaV_7iB4pAQhAyHhLh-108" value="+ CUSTOMER_DESK_TOP: ???" style="text;strokeColor=none;fillColor=none;align=left;verticalAlign=top;spacingLeft=4;spacingRight=4;overflow=hidden;rotatable=0;points=[[0,0.5],[1,0.5]];portConstraint=eastwest;" vertex="1" parent="1KFaV_7iB4pAQhAyHhLh-85">
          <mxGeometry y="596" width="210" height="26" as="geometry" />
        </mxCell>
        <mxCell id="1KFaV_7iB4pAQhAyHhLh-109" value="+ CUSTOMER_RELEASE_FIELD: ???" style="text;strokeColor=none;fillColor=none;align=left;verticalAlign=top;spacingLeft=4;spacingRight=4;overflow=hidden;rotatable=0;points=[[0,0.5],[1,0.5]];portConstraint=eastwest;" vertex="1" parent="1KFaV_7iB4pAQhAyHhLh-85">
          <mxGeometry y="622" width="210" height="26" as="geometry" />
        </mxCell>
        <mxCell id="1KFaV_7iB4pAQhAyHhLh-110" value="+ CONTRACT_INDICATOR: str" style="text;strokeColor=none;fillColor=none;align=left;verticalAlign=top;spacingLeft=4;spacingRight=4;overflow=hidden;rotatable=0;points=[[0,0.5],[1,0.5]];portConstraint=eastwest;" vertex="1" parent="1KFaV_7iB4pAQhAyHhLh-85">
          <mxGeometry y="648" width="210" height="26" as="geometry" />
        </mxCell>
        <mxCell id="1KFaV_7iB4pAQhAyHhLh-111" value="+ CONTACT_NAME: str" style="text;strokeColor=none;fillColor=none;align=left;verticalAlign=top;spacingLeft=4;spacingRight=4;overflow=hidden;rotatable=0;points=[[0,0.5],[1,0.5]];portConstraint=eastwest;" vertex="1" parent="1KFaV_7iB4pAQhAyHhLh-85">
          <mxGeometry y="674" width="210" height="26" as="geometry" />
        </mxCell>
        <mxCell id="1KFaV_7iB4pAQhAyHhLh-112" value="+ TELEPHONE_NUM: int" style="text;strokeColor=none;fillColor=none;align=left;verticalAlign=top;spacingLeft=4;spacingRight=4;overflow=hidden;rotatable=0;points=[[0,0.5],[1,0.5]];portConstraint=eastwest;" vertex="1" parent="1KFaV_7iB4pAQhAyHhLh-85">
          <mxGeometry y="700" width="210" height="26" as="geometry" />
        </mxCell>
        <mxCell id="1KFaV_7iB4pAQhAyHhLh-113" value="+ WEB_USER_ID: str" style="text;strokeColor=none;fillColor=none;align=left;verticalAlign=top;spacingLeft=4;spacingRight=4;overflow=hidden;rotatable=0;points=[[0,0.5],[1,0.5]];portConstraint=eastwest;" vertex="1" parent="1KFaV_7iB4pAQhAyHhLh-85">
          <mxGeometry y="726" width="210" height="26" as="geometry" />
        </mxCell>
        <mxCell id="1KFaV_7iB4pAQhAyHhLh-114" value="+ WEB_USER_EMAIL: str" style="text;strokeColor=none;fillColor=none;align=left;verticalAlign=top;spacingLeft=4;spacingRight=4;overflow=hidden;rotatable=0;points=[[0,0.5],[1,0.5]];portConstraint=eastwest;" vertex="1" parent="1KFaV_7iB4pAQhAyHhLh-85">
          <mxGeometry y="752" width="210" height="26" as="geometry" />
        </mxCell>
        <mxCell id="1KFaV_7iB4pAQhAyHhLh-115" value="+ OD_PRODUCT_CODE: int" style="text;strokeColor=none;fillColor=none;align=left;verticalAlign=top;spacingLeft=4;spacingRight=4;overflow=hidden;rotatable=0;points=[[0,0.5],[1,0.5]];portConstraint=eastwest;" vertex="1" parent="1KFaV_7iB4pAQhAyHhLh-85">
          <mxGeometry y="778" width="210" height="26" as="geometry" />
        </mxCell>
        <mxCell id="1KFaV_7iB4pAQhAyHhLh-116" value="+ PRODUCT_DESCRIPTION: str" style="text;strokeColor=none;fillColor=none;align=left;verticalAlign=top;spacingLeft=4;spacingRight=4;overflow=hidden;rotatable=0;points=[[0,0.5],[1,0.5]];portConstraint=eastwest;" vertex="1" parent="1KFaV_7iB4pAQhAyHhLh-85">
          <mxGeometry y="804" width="210" height="26" as="geometry" />
        </mxCell>
        <mxCell id="1KFaV_7iB4pAQhAyHhLh-117" value="+ UOM: str" style="text;strokeColor=none;fillColor=none;align=left;verticalAlign=top;spacingLeft=4;spacingRight=4;overflow=hidden;rotatable=0;points=[[0,0.5],[1,0.5]];portConstraint=eastwest;" vertex="1" parent="1KFaV_7iB4pAQhAyHhLh-85">
          <mxGeometry y="830" width="210" height="26" as="geometry" />
        </mxCell>
        <mxCell id="1KFaV_7iB4pAQhAyHhLh-118" value="+ WHOLESALER_PRODUCT_CODE: str" style="text;strokeColor=none;fillColor=none;align=left;verticalAlign=top;spacingLeft=4;spacingRight=4;overflow=hidden;rotatable=0;points=[[0,0.5],[1,0.5]];portConstraint=eastwest;" vertex="1" parent="1KFaV_7iB4pAQhAyHhLh-85">
          <mxGeometry y="856" width="210" height="26" as="geometry" />
        </mxCell>
        <mxCell id="1KFaV_7iB4pAQhAyHhLh-119" value="+ PACK_QTY: int" style="text;strokeColor=none;fillColor=none;align=left;verticalAlign=top;spacingLeft=4;spacingRight=4;overflow=hidden;rotatable=0;points=[[0,0.5],[1,0.5]];portConstraint=eastwest;" vertex="1" parent="1KFaV_7iB4pAQhAyHhLh-85">
          <mxGeometry y="882" width="210" height="26" as="geometry" />
        </mxCell>
        <mxCell id="1KFaV_7iB4pAQhAyHhLh-120" value="+ QTY_SOLD: int" style="text;strokeColor=none;fillColor=none;align=left;verticalAlign=top;spacingLeft=4;spacingRight=4;overflow=hidden;rotatable=0;points=[[0,0.5],[1,0.5]];portConstraint=eastwest;" vertex="1" parent="1KFaV_7iB4pAQhAyHhLh-85">
          <mxGeometry y="908" width="210" height="26" as="geometry" />
        </mxCell>
        <mxCell id="1KFaV_7iB4pAQhAyHhLh-121" value="+ CORE_PLAN_ID: int" style="text;strokeColor=none;fillColor=none;align=left;verticalAlign=top;spacingLeft=4;spacingRight=4;overflow=hidden;rotatable=0;points=[[0,0.5],[1,0.5]];portConstraint=eastwest;" vertex="1" parent="1KFaV_7iB4pAQhAyHhLh-85">
          <mxGeometry y="934" width="210" height="26" as="geometry" />
        </mxCell>
        <mxCell id="1KFaV_7iB4pAQhAyHhLh-122" value="+ NET_SALES: float" style="text;strokeColor=none;fillColor=none;align=left;verticalAlign=top;spacingLeft=4;spacingRight=4;overflow=hidden;rotatable=0;points=[[0,0.5],[1,0.5]];portConstraint=eastwest;" vertex="1" parent="1KFaV_7iB4pAQhAyHhLh-85">
          <mxGeometry y="960" width="210" height="26" as="geometry" />
        </mxCell>
        <mxCell id="1KFaV_7iB4pAQhAyHhLh-123" value="+ CONTRACT_NET_SALES: float" style="text;strokeColor=none;fillColor=none;align=left;verticalAlign=top;spacingLeft=4;spacingRight=4;overflow=hidden;rotatable=0;points=[[0,0.5],[1,0.5]];portConstraint=eastwest;" vertex="1" parent="1KFaV_7iB4pAQhAyHhLh-85">
          <mxGeometry y="986" width="210" height="26" as="geometry" />
        </mxCell>
        <mxCell id="1KFaV_7iB4pAQhAyHhLh-124" value="+ LIST_PRICE: float" style="text;strokeColor=none;fillColor=none;align=left;verticalAlign=top;spacingLeft=4;spacingRight=4;overflow=hidden;rotatable=0;points=[[0,0.5],[1,0.5]];portConstraint=eastwest;" vertex="1" parent="1KFaV_7iB4pAQhAyHhLh-85">
          <mxGeometry y="1012" width="210" height="26" as="geometry" />
        </mxCell>
        <mxCell id="1KFaV_7iB4pAQhAyHhLh-125" value="+ PROGRAM_PRICE: float" style="text;strokeColor=none;fillColor=none;align=left;verticalAlign=top;spacingLeft=4;spacingRight=4;overflow=hidden;rotatable=0;points=[[0,0.5],[1,0.5]];portConstraint=eastwest;" vertex="1" parent="1KFaV_7iB4pAQhAyHhLh-85">
          <mxGeometry y="1038" width="210" height="26" as="geometry" />
        </mxCell>
        <mxCell id="1KFaV_7iB4pAQhAyHhLh-126" value="+ RETAIL_LIST_PRICE: float" style="text;strokeColor=none;fillColor=none;align=left;verticalAlign=top;spacingLeft=4;spacingRight=4;overflow=hidden;rotatable=0;points=[[0,0.5],[1,0.5]];portConstraint=eastwest;" vertex="1" parent="1KFaV_7iB4pAQhAyHhLh-85">
          <mxGeometry y="1064" width="210" height="26" as="geometry" />
        </mxCell>
        <mxCell id="1KFaV_7iB4pAQhAyHhLh-127" value="+ PARENT_ORDER_ID: int" style="text;strokeColor=none;fillColor=none;align=left;verticalAlign=top;spacingLeft=4;spacingRight=4;overflow=hidden;rotatable=0;points=[[0,0.5],[1,0.5]];portConstraint=eastwest;" vertex="1" parent="1KFaV_7iB4pAQhAyHhLh-85">
          <mxGeometry y="1090" width="210" height="26" as="geometry" />
        </mxCell>
        <mxCell id="1KFaV_7iB4pAQhAyHhLh-128" value="+ [ORDER_ID | SUBORDER_ID]: str" style="text;strokeColor=none;fillColor=none;align=left;verticalAlign=top;spacingLeft=4;spacingRight=4;overflow=hidden;rotatable=0;points=[[0,0.5],[1,0.5]];portConstraint=eastwest;" vertex="1" parent="1KFaV_7iB4pAQhAyHhLh-85">
          <mxGeometry y="1116" width="210" height="26" as="geometry" />
        </mxCell>
        <mxCell id="1KFaV_7iB4pAQhAyHhLh-129" value="+ ORDER_SOURCE_NAME: str" style="text;strokeColor=none;fillColor=none;align=left;verticalAlign=top;spacingLeft=4;spacingRight=4;overflow=hidden;rotatable=0;points=[[0,0.5],[1,0.5]];portConstraint=eastwest;" vertex="1" parent="1KFaV_7iB4pAQhAyHhLh-85">
          <mxGeometry y="1142" width="210" height="26" as="geometry" />
        </mxCell>
        <mxCell id="1KFaV_7iB4pAQhAyHhLh-130" value="+ ORDER_SOURCE_CODE: str" style="text;strokeColor=none;fillColor=none;align=left;verticalAlign=top;spacingLeft=4;spacingRight=4;overflow=hidden;rotatable=0;points=[[0,0.5],[1,0.5]];portConstraint=eastwest;" vertex="1" parent="1KFaV_7iB4pAQhAyHhLh-85">
          <mxGeometry y="1168" width="210" height="26" as="geometry" />
        </mxCell>
        <mxCell id="1KFaV_7iB4pAQhAyHhLh-131" value="+ PRODUCT_CATEGORY_NAME: str" style="text;strokeColor=none;fillColor=none;align=left;verticalAlign=top;spacingLeft=4;spacingRight=4;overflow=hidden;rotatable=0;points=[[0,0.5],[1,0.5]];portConstraint=eastwest;" vertex="1" parent="1KFaV_7iB4pAQhAyHhLh-85">
          <mxGeometry y="1194" width="210" height="26" as="geometry" />
        </mxCell>
        <mxCell id="1KFaV_7iB4pAQhAyHhLh-132" value="+ ITEM_DEPARTMENT_ID: int" style="text;strokeColor=none;fillColor=none;align=left;verticalAlign=top;spacingLeft=4;spacingRight=4;overflow=hidden;rotatable=0;points=[[0,0.5],[1,0.5]];portConstraint=eastwest;" vertex="1" parent="1KFaV_7iB4pAQhAyHhLh-85">
          <mxGeometry y="1220" width="210" height="26" as="geometry" />
        </mxCell>
        <mxCell id="1KFaV_7iB4pAQhAyHhLh-133" value="+ ITEM_DEPARTMENT_NM: str" style="text;strokeColor=none;fillColor=none;align=left;verticalAlign=top;spacingLeft=4;spacingRight=4;overflow=hidden;rotatable=0;points=[[0,0.5],[1,0.5]];portConstraint=eastwest;" vertex="1" parent="1KFaV_7iB4pAQhAyHhLh-85">
          <mxGeometry y="1246" width="210" height="26" as="geometry" />
        </mxCell>
        <mxCell id="1KFaV_7iB4pAQhAyHhLh-134" value="+ ITEM_CLASS_ID: int" style="text;strokeColor=none;fillColor=none;align=left;verticalAlign=top;spacingLeft=4;spacingRight=4;overflow=hidden;rotatable=0;points=[[0,0.5],[1,0.5]];portConstraint=eastwest;" vertex="1" parent="1KFaV_7iB4pAQhAyHhLh-85">
          <mxGeometry y="1272" width="210" height="26" as="geometry" />
        </mxCell>
        <mxCell id="1KFaV_7iB4pAQhAyHhLh-135" value="+ ITEM_CLASS_NM: str" style="text;strokeColor=none;fillColor=none;align=left;verticalAlign=top;spacingLeft=4;spacingRight=4;overflow=hidden;rotatable=0;points=[[0,0.5],[1,0.5]];portConstraint=eastwest;" vertex="1" parent="1KFaV_7iB4pAQhAyHhLh-85">
          <mxGeometry y="1298" width="210" height="26" as="geometry" />
        </mxCell>
        <mxCell id="1KFaV_7iB4pAQhAyHhLh-136" value="+ ITEM_SUBCLASS_ID: int" style="text;strokeColor=none;fillColor=none;align=left;verticalAlign=top;spacingLeft=4;spacingRight=4;overflow=hidden;rotatable=0;points=[[0,0.5],[1,0.5]];portConstraint=eastwest;" vertex="1" parent="1KFaV_7iB4pAQhAyHhLh-85">
          <mxGeometry y="1324" width="210" height="26" as="geometry" />
        </mxCell>
        <mxCell id="1KFaV_7iB4pAQhAyHhLh-137" value="+ ITEM_SUBCLASS_NM: str" style="text;strokeColor=none;fillColor=none;align=left;verticalAlign=top;spacingLeft=4;spacingRight=4;overflow=hidden;rotatable=0;points=[[0,0.5],[1,0.5]];portConstraint=eastwest;" vertex="1" parent="1KFaV_7iB4pAQhAyHhLh-85">
          <mxGeometry y="1350" width="210" height="26" as="geometry" />
        </mxCell>
        <mxCell id="1KFaV_7iB4pAQhAyHhLh-138" value="+ RECYCLED_FLAG: bool" style="text;strokeColor=none;fillColor=none;align=left;verticalAlign=top;spacingLeft=4;spacingRight=4;overflow=hidden;rotatable=0;points=[[0,0.5],[1,0.5]];portConstraint=eastwest;" vertex="1" parent="1KFaV_7iB4pAQhAyHhLh-85">
          <mxGeometry y="1376" width="210" height="26" as="geometry" />
        </mxCell>
        <mxCell id="1KFaV_7iB4pAQhAyHhLh-139" value="+ PRIMARY_SUPPLIER_ID: int" style="text;strokeColor=none;fillColor=none;align=left;verticalAlign=top;spacingLeft=4;spacingRight=4;overflow=hidden;rotatable=0;points=[[0,0.5],[1,0.5]];portConstraint=eastwest;" vertex="1" parent="1KFaV_7iB4pAQhAyHhLh-85">
          <mxGeometry y="1402" width="210" height="26" as="geometry" />
        </mxCell>
        <mxCell id="1KFaV_7iB4pAQhAyHhLh-140" value="+ PRIMARY_SUPPLIER_NAME: str" style="text;strokeColor=none;fillColor=none;align=left;verticalAlign=top;spacingLeft=4;spacingRight=4;overflow=hidden;rotatable=0;points=[[0,0.5],[1,0.5]];portConstraint=eastwest;" vertex="1" parent="1KFaV_7iB4pAQhAyHhLh-85">
          <mxGeometry y="1428" width="210" height="26" as="geometry" />
        </mxCell>
        <mxCell id="1KFaV_7iB4pAQhAyHhLh-141" value="+ ORDER_SUPPLIER_MINORITY_BUSINESS_CODE: str" style="text;strokeColor=none;fillColor=none;align=left;verticalAlign=top;spacingLeft=4;spacingRight=4;overflow=hidden;rotatable=0;points=[[0,0.5],[1,0.5]];portConstraint=eastwest;" vertex="1" parent="1KFaV_7iB4pAQhAyHhLh-85">
          <mxGeometry y="1454" width="210" height="26" as="geometry" />
        </mxCell>
        <mxCell id="1KFaV_7iB4pAQhAyHhLh-142" value="+ ORDER_SUPPLIER_MINORITY_BUSINESS_DESC: str" style="text;strokeColor=none;fillColor=none;align=left;verticalAlign=top;spacingLeft=4;spacingRight=4;overflow=hidden;rotatable=0;points=[[0,0.5],[1,0.5]];portConstraint=eastwest;" vertex="1" parent="1KFaV_7iB4pAQhAyHhLh-85">
          <mxGeometry y="1480" width="210" height="26" as="geometry" />
        </mxCell>
        <mxCell id="1KFaV_7iB4pAQhAyHhLh-143" value="+ ORDER_SUPPLIER_CATEGORY_CODE: str" style="text;strokeColor=none;fillColor=none;align=left;verticalAlign=top;spacingLeft=4;spacingRight=4;overflow=hidden;rotatable=0;points=[[0,0.5],[1,0.5]];portConstraint=eastwest;" vertex="1" parent="1KFaV_7iB4pAQhAyHhLh-85">
          <mxGeometry y="1506" width="210" height="26" as="geometry" />
        </mxCell>
        <mxCell id="1KFaV_7iB4pAQhAyHhLh-144" value="+ORDER_SUPPLIER_CATEGORY_DESC&#xa;: str" style="text;strokeColor=none;fillColor=none;align=left;verticalAlign=top;spacingLeft=4;spacingRight=4;overflow=hidden;rotatable=0;points=[[0,0.5],[1,0.5]];portConstraint=eastwest;" vertex="1" parent="1KFaV_7iB4pAQhAyHhLh-85">
          <mxGeometry y="1532" width="210" height="26" as="geometry" />
        </mxCell>
        <mxCell id="1KFaV_7iB4pAQhAyHhLh-145" value="+ ORDER_COMPLETE_DATE: date" style="text;strokeColor=none;fillColor=none;align=left;verticalAlign=top;spacingLeft=4;spacingRight=4;overflow=hidden;rotatable=0;points=[[0,0.5],[1,0.5]];portConstraint=eastwest;" vertex="1" parent="1KFaV_7iB4pAQhAyHhLh-85">
          <mxGeometry y="1558" width="210" height="26" as="geometry" />
        </mxCell>
        <mxCell id="1KFaV_7iB4pAQhAyHhLh-146" value="+ INV_LOCATION: int" style="text;strokeColor=none;fillColor=none;align=left;verticalAlign=top;spacingLeft=4;spacingRight=4;overflow=hidden;rotatable=0;points=[[0,0.5],[1,0.5]];portConstraint=eastwest;" vertex="1" parent="1KFaV_7iB4pAQhAyHhLh-85">
          <mxGeometry y="1584" width="210" height="26" as="geometry" />
        </mxCell>
        <mxCell id="1KFaV_7iB4pAQhAyHhLh-147" value="+ LOCATION_NM: str" style="text;strokeColor=none;fillColor=none;align=left;verticalAlign=top;spacingLeft=4;spacingRight=4;overflow=hidden;rotatable=0;points=[[0,0.5],[1,0.5]];portConstraint=eastwest;" vertex="1" parent="1KFaV_7iB4pAQhAyHhLh-85">
          <mxGeometry y="1610" width="210" height="26" as="geometry" />
        </mxCell>
        <mxCell id="1KFaV_7iB4pAQhAyHhLh-148" value="+ CUST_CREATE_DT: date" style="text;strokeColor=none;fillColor=none;align=left;verticalAlign=top;spacingLeft=4;spacingRight=4;overflow=hidden;rotatable=0;points=[[0,0.5],[1,0.5]];portConstraint=eastwest;" vertex="1" parent="1KFaV_7iB4pAQhAyHhLh-85">
          <mxGeometry y="1636" width="210" height="26" as="geometry" />
        </mxCell>
        <mxCell id="1KFaV_7iB4pAQhAyHhLh-149" style="edgeStyle=orthogonalEdgeStyle;rounded=0;orthogonalLoop=1;jettySize=auto;html=1;entryX=0.175;entryY=0.5;entryDx=0;entryDy=0;startArrow=classic;startFill=1;exitX=1;exitY=0.5;exitDx=0;exitDy=0;entryPerimeter=0;" edge="1" source="1KFaV_7iB4pAQhAyHhLh-85" target="1KFaV_7iB4pAQhAyHhLh-170" parent="7BcbjyJo5ydgNHTcu2xo-1">
          <mxGeometry relative="1" as="geometry" />
        </mxCell>
        <mxCell id="1KFaV_7iB4pAQhAyHhLh-150" style="rounded=0;orthogonalLoop=1;jettySize=auto;html=1;entryX=0;entryY=0.5;entryDx=0;entryDy=0;endArrow=classic;endFill=1;startArrow=none;edgeStyle=orthogonalEdgeStyle;" edge="1" source="1KFaV_7iB4pAQhAyHhLh-151" target="1KFaV_7iB4pAQhAyHhLh-85" parent="7BcbjyJo5ydgNHTcu2xo-1">
          <mxGeometry relative="1" as="geometry" />
        </mxCell>
        <mxCell id="1KFaV_7iB4pAQhAyHhLh-151" value="" style="dashed=0;outlineConnect=0;html=1;align=center;labelPosition=center;verticalLabelPosition=bottom;verticalAlign=top;shape=mxgraph.weblogos.json_2" vertex="1" parent="7BcbjyJo5ydgNHTcu2xo-1">
          <mxGeometry x="-3580" y="1359.8" width="80" height="30.2" as="geometry" />
        </mxCell>
        <mxCell id="1KFaV_7iB4pAQhAyHhLh-154" value="" style="group" connectable="0" vertex="1" parent="7BcbjyJo5ydgNHTcu2xo-1">
          <mxGeometry x="-2550" y="1164" width="340" height="36" as="geometry" />
        </mxCell>
        <mxCell id="1KFaV_7iB4pAQhAyHhLh-155" value="_odBriefcaseJsonRawToBigQuery" style="rounded=0;whiteSpace=wrap;html=1;fontFamily=Roboto Mono;fontSize=11;strokeColor=#56517e;align=left;fontStyle=2;fontSource=https%3A%2F%2Ffonts.googleapis.com%2Fcss%3Ffamily%3DRoboto%2BMono;spacingLeft=40;fillColor=#d0cee2;" vertex="1" parent="1KFaV_7iB4pAQhAyHhLh-154">
          <mxGeometry y="-2.5" width="241.29032258064515" height="36" as="geometry" />
        </mxCell>
        <mxCell id="1KFaV_7iB4pAQhAyHhLh-156" value="" style="shape=image;html=1;verticalAlign=top;verticalLabelPosition=bottom;labelBackgroundColor=#ffffff;imageAspect=0;aspect=fixed;image=https://cdn4.iconfinder.com/data/icons/ionicons/512/icon-ios7-bolt-128.png" vertex="1" parent="1KFaV_7iB4pAQhAyHhLh-154">
          <mxGeometry x="8.408602150537634" y="3" width="25" height="25" as="geometry" />
        </mxCell>
        <mxCell id="1KFaV_7iB4pAQhAyHhLh-159" style="edgeStyle=orthogonalEdgeStyle;rounded=0;orthogonalLoop=1;jettySize=auto;html=1;exitX=1;exitY=0.5;exitDx=0;exitDy=0;entryX=0;entryY=0.5;entryDx=0;entryDy=0;" edge="1" source="1KFaV_7iB4pAQhAyHhLh-155" target="1KFaV_7iB4pAQhAyHhLh-179" parent="7BcbjyJo5ydgNHTcu2xo-1">
          <mxGeometry x="-3550" y="920" as="geometry">
            <mxPoint x="-1482.3999999999996" y="1203" as="targetPoint" />
          </mxGeometry>
        </mxCell>
        <mxCell id="1KFaV_7iB4pAQhAyHhLh-160" value="&lt;font style=&quot;font-size: 12px&quot;&gt;TRUNC&lt;/font&gt;" style="edgeLabel;html=1;align=center;verticalAlign=middle;resizable=0;points=[];" vertex="1" connectable="0" parent="1KFaV_7iB4pAQhAyHhLh-159">
          <mxGeometry x="0.5713" y="-3" relative="1" as="geometry">
            <mxPoint x="-57" y="-5" as="offset" />
          </mxGeometry>
        </mxCell>
        <mxCell id="1KFaV_7iB4pAQhAyHhLh-161" value="" style="group" connectable="0" vertex="1" parent="7BcbjyJo5ydgNHTcu2xo-1">
          <mxGeometry x="-2560" y="1283" width="250" height="36" as="geometry" />
        </mxCell>
        <mxCell id="1KFaV_7iB4pAQhAyHhLh-162" value="&lt;font style=&quot;font-size: 11px&quot;&gt;_odBriefcaseJsonRawToSkinny&lt;/font&gt;" style="rounded=0;whiteSpace=wrap;html=1;fontFamily=Roboto Mono;fontSize=11;strokeColor=#56517e;align=left;fontStyle=2;fontSource=https%3A%2F%2Ffonts.googleapis.com%2Fcss%3Ffamily%3DRoboto%2BMono;spacingLeft=40;fillColor=#d0cee2;" vertex="1" parent="1KFaV_7iB4pAQhAyHhLh-161">
          <mxGeometry width="250" height="36" as="geometry" />
        </mxCell>
        <mxCell id="1KFaV_7iB4pAQhAyHhLh-163" value="" style="shape=image;html=1;verticalAlign=top;verticalLabelPosition=bottom;labelBackgroundColor=#ffffff;imageAspect=0;aspect=fixed;image=https://cdn4.iconfinder.com/data/icons/ionicons/512/icon-ios7-bolt-128.png" vertex="1" parent="1KFaV_7iB4pAQhAyHhLh-161">
          <mxGeometry x="7.666666666666667" y="3" width="25" height="25" as="geometry" />
        </mxCell>
        <mxCell id="1KFaV_7iB4pAQhAyHhLh-164" value="" style="group" vertex="1" connectable="0" parent="7BcbjyJo5ydgNHTcu2xo-1">
          <mxGeometry x="-2100" y="1280" width="690" height="40" as="geometry" />
        </mxCell>
        <mxCell id="1KFaV_7iB4pAQhAyHhLh-165" value="ea-great-data-lakes.od_account_activity.od_historical_account_activity" style="fontFamily=Roboto Mono;align=left;fontSize=14;spacingLeft=8;dashed=1;dashPattern=1 1;fontSource=https%3A%2F%2Ffonts.googleapis.com%2Fcss%3Ffamily%3DRoboto%2BMono;spacing=0;spacingBottom=4;" vertex="1" parent="1KFaV_7iB4pAQhAyHhLh-164">
          <mxGeometry x="77.01244897959184" width="612.9875510204082" height="40" as="geometry" />
        </mxCell>
        <mxCell id="1KFaV_7iB4pAQhAyHhLh-166" value="" style="group" vertex="1" connectable="0" parent="1KFaV_7iB4pAQhAyHhLh-164">
          <mxGeometry width="63.56448979591838" height="40" as="geometry" />
        </mxCell>
        <mxCell id="1KFaV_7iB4pAQhAyHhLh-167" value="" style="whiteSpace=wrap;html=1;dashed=1;dashPattern=1 1;fontFamily=Roboto Mono;fontSource=https%3A%2F%2Ffonts.googleapis.com%2Fcss%3Ffamily%3DRoboto%2BMono;strokeWidth=1;fillColor=none;align=left;verticalAlign=middle;noLabel=1;connectable=1;allowArrows=1;snapToPoint=1;" vertex="1" parent="1KFaV_7iB4pAQhAyHhLh-166">
          <mxGeometry x="0.09857142857141897" width="63.36734693877552" height="40" as="geometry" />
        </mxCell>
        <mxCell id="1KFaV_7iB4pAQhAyHhLh-168" value="" style="html=1;verticalAlign=top;labelPosition=center;verticalLabelPosition=bottom;align=center;spacingTop=-6;fontSize=11;fontStyle=1;shape=mxgraph.gcp2.hexIcon;prIcon=bigquery;aspect=fixed;dashed=1;dashPattern=1 1;fontFamily=Roboto Mono;fontSource=https%3A%2F%2Ffonts.googleapis.com%2Fcss%3Ffamily%3DRoboto%2BMono;fillColor=#0066CC;" vertex="1" parent="1KFaV_7iB4pAQhAyHhLh-166">
          <mxGeometry width="45.14" height="40" as="geometry" />
        </mxCell>
        <mxCell id="1KFaV_7iB4pAQhAyHhLh-157" style="edgeStyle=orthogonalEdgeStyle;rounded=0;orthogonalLoop=1;jettySize=auto;html=1;exitX=1;exitY=0.5;exitDx=0;exitDy=0;entryX=0;entryY=0.5;entryDx=0;entryDy=0;" edge="1" source="1KFaV_7iB4pAQhAyHhLh-162" target="1KFaV_7iB4pAQhAyHhLh-167" parent="7BcbjyJo5ydgNHTcu2xo-1">
          <mxGeometry x="-3550" y="920" as="geometry">
            <mxPoint x="-1765" y="1206" as="targetPoint" />
          </mxGeometry>
        </mxCell>
        <mxCell id="1KFaV_7iB4pAQhAyHhLh-158" value="APPEND" style="edgeLabel;html=1;align=center;verticalAlign=middle;resizable=0;points=[];" vertex="1" connectable="0" parent="1KFaV_7iB4pAQhAyHhLh-157">
          <mxGeometry x="0.0965" y="1" relative="1" as="geometry">
            <mxPoint as="offset" />
          </mxGeometry>
        </mxCell>
        <mxCell id="1KFaV_7iB4pAQhAyHhLh-153" style="edgeStyle=orthogonalEdgeStyle;rounded=0;orthogonalLoop=1;jettySize=auto;html=1;exitX=1;exitY=0.5;exitDx=0;exitDy=0;startArrow=none;startFill=0;entryX=0;entryY=0.5;entryDx=0;entryDy=0;" edge="1" source="1KFaV_7iB4pAQhAyHhLh-171" target="1KFaV_7iB4pAQhAyHhLh-162" parent="7BcbjyJo5ydgNHTcu2xo-1">
          <mxGeometry x="-3550" y="920" as="geometry">
            <mxPoint x="-1637.5" y="1096" as="sourcePoint" />
          </mxGeometry>
        </mxCell>
        <mxCell id="1KFaV_7iB4pAQhAyHhLh-172" style="edgeStyle=orthogonalEdgeStyle;rounded=0;orthogonalLoop=1;jettySize=auto;html=1;exitX=1;exitY=0.5;exitDx=0;exitDy=0;entryX=0;entryY=0.5;entryDx=0;entryDy=0;fontSize=12;fontColor=#FF0B03;" edge="1" source="1KFaV_7iB4pAQhAyHhLh-171" target="1KFaV_7iB4pAQhAyHhLh-155" parent="7BcbjyJo5ydgNHTcu2xo-1">
          <mxGeometry x="-3550" y="920" as="geometry">
            <Array as="points">
              <mxPoint x="-2950" y="1375" />
              <mxPoint x="-2950" y="1241" />
              <mxPoint x="-2630" y="1241" />
              <mxPoint x="-2630" y="1180" />
            </Array>
          </mxGeometry>
        </mxCell>
        <mxCell id="1KFaV_7iB4pAQhAyHhLh-173" value="" style="group" connectable="0" vertex="1" parent="7BcbjyJo5ydgNHTcu2xo-1">
          <mxGeometry x="-3972" y="1390" width="245" height="36" as="geometry" />
        </mxCell>
        <mxCell id="1KFaV_7iB4pAQhAyHhLh-174" value="&lt;font style=&quot;font-size: 11px&quot;&gt;_odBriefcaseCsvRawToJsonRaw&lt;/font&gt;" style="rounded=0;whiteSpace=wrap;html=1;fontFamily=Roboto Mono;fontSize=11;strokeColor=#56517e;align=left;fontStyle=2;fontSource=https%3A%2F%2Ffonts.googleapis.com%2Fcss%3Ffamily%3DRoboto%2BMono;spacingLeft=40;fillColor=#d0cee2;" vertex="1" parent="1KFaV_7iB4pAQhAyHhLh-173">
          <mxGeometry width="245.00000000000006" height="36" as="geometry" />
        </mxCell>
        <mxCell id="1KFaV_7iB4pAQhAyHhLh-175" value="" style="shape=image;html=1;verticalAlign=top;verticalLabelPosition=bottom;labelBackgroundColor=#ffffff;imageAspect=0;aspect=fixed;image=https://cdn4.iconfinder.com/data/icons/ionicons/512/icon-ios7-bolt-128.png" vertex="1" parent="1KFaV_7iB4pAQhAyHhLh-173">
          <mxGeometry x="8.166666666666668" y="3" width="25" height="25" as="geometry" />
        </mxCell>
        <mxCell id="1KFaV_7iB4pAQhAyHhLh-176" value="" style="group" vertex="1" connectable="0" parent="7BcbjyJo5ydgNHTcu2xo-1">
          <mxGeometry x="-2110" y="1160" width="720" height="40" as="geometry" />
        </mxCell>
        <mxCell id="1KFaV_7iB4pAQhAyHhLh-177" value="ea-great-data-lakes.od_account_activity.od_daily_account_activity" style="fontFamily=Roboto Mono;align=left;fontSize=14;spacingLeft=8;dashed=1;dashPattern=1 1;fontSource=https%3A%2F%2Ffonts.googleapis.com%2Fcss%3Ffamily%3DRoboto%2BMono;spacing=0;spacingBottom=4;" vertex="1" parent="1KFaV_7iB4pAQhAyHhLh-176">
          <mxGeometry x="80.36" width="579.64" height="40" as="geometry" />
        </mxCell>
        <mxCell id="1KFaV_7iB4pAQhAyHhLh-178" value="" style="group" vertex="1" connectable="0" parent="1KFaV_7iB4pAQhAyHhLh-176">
          <mxGeometry width="66.32816326530613" height="40" as="geometry" />
        </mxCell>
        <mxCell id="1KFaV_7iB4pAQhAyHhLh-179" value="" style="whiteSpace=wrap;html=1;dashed=1;dashPattern=1 1;fontFamily=Roboto Mono;fontSource=https%3A%2F%2Ffonts.googleapis.com%2Fcss%3Ffamily%3DRoboto%2BMono;strokeWidth=1;fillColor=none;align=left;verticalAlign=middle;noLabel=1;connectable=1;allowArrows=1;snapToPoint=1;" vertex="1" parent="1KFaV_7iB4pAQhAyHhLh-178">
          <mxGeometry x="0.10285714285713284" width="66.12244897959184" height="40" as="geometry" />
        </mxCell>
        <mxCell id="1KFaV_7iB4pAQhAyHhLh-180" value="" style="html=1;verticalAlign=top;labelPosition=center;verticalLabelPosition=bottom;align=center;spacingTop=-6;fontSize=11;fontStyle=1;shape=mxgraph.gcp2.hexIcon;prIcon=bigquery;aspect=fixed;dashed=1;dashPattern=1 1;fontFamily=Roboto Mono;fontSource=https%3A%2F%2Ffonts.googleapis.com%2Fcss%3Ffamily%3DRoboto%2BMono;fillColor=#0066CC;" vertex="1" parent="1KFaV_7iB4pAQhAyHhLh-178">
          <mxGeometry width="45.14" height="40" as="geometry" />
        </mxCell>
        <mxCell id="1KFaV_7iB4pAQhAyHhLh-181" style="edgeStyle=orthogonalEdgeStyle;rounded=0;orthogonalLoop=1;jettySize=auto;html=1;entryX=0;entryY=0.5;entryDx=0;entryDy=0;" edge="1" source="1KFaV_7iB4pAQhAyHhLh-189" target="1KFaV_7iB4pAQhAyHhLh-174" parent="7BcbjyJo5ydgNHTcu2xo-1">
          <mxGeometry relative="1" as="geometry" />
        </mxCell>
        <mxCell id="1KFaV_7iB4pAQhAyHhLh-182" style="rounded=0;orthogonalLoop=1;jettySize=auto;html=1;entryX=0.5;entryY=0;entryDx=0;entryDy=0;" edge="1" source="1KFaV_7iB4pAQhAyHhLh-83" target="1KFaV_7iB4pAQhAyHhLh-184" parent="7BcbjyJo5ydgNHTcu2xo-1">
          <mxGeometry relative="1" as="geometry">
            <mxPoint x="-4208.38" y="1235" as="targetPoint" />
            <Array as="points">
              <mxPoint x="-4200" y="1150" />
            </Array>
          </mxGeometry>
        </mxCell>
        <mxCell id="1KFaV_7iB4pAQhAyHhLh-183" value="" style="group;" connectable="0" vertex="1" parent="7BcbjyJo5ydgNHTcu2xo-1">
          <mxGeometry x="-4345" y="1214" width="234.62075620767496" height="40" as="geometry" />
        </mxCell>
        <mxCell id="1KFaV_7iB4pAQhAyHhLh-184" value="&lt;font color=&quot;#172b4d&quot;&gt;&lt;span style=&quot;font-size: 11px ; line-height: 1&quot;&gt;cloudDrop sftp&lt;/span&gt;&lt;/font&gt;" style="whiteSpace=wrap;html=1;fontFamily=Roboto Mono;align=left;fontSize=14;spacingLeft=8;dashed=1;dashPattern=1 1;fontSource=https%3A%2F%2Ffonts.googleapis.com%2Fcss%3Ffamily%3DRoboto%2BMono;spacing=0;spacingBottom=4;" vertex="1" parent="1KFaV_7iB4pAQhAyHhLh-183">
          <mxGeometry x="54.62075620767496" width="180" height="40" as="geometry" />
        </mxCell>
        <mxCell id="1KFaV_7iB4pAQhAyHhLh-185" value="" style="group;" connectable="0" vertex="1" parent="1KFaV_7iB4pAQhAyHhLh-183">
          <mxGeometry width="45" height="40" as="geometry" />
        </mxCell>
        <mxCell id="1KFaV_7iB4pAQhAyHhLh-186" value="" style="whiteSpace=wrap;html=1;dashed=1;dashPattern=1 1;fontFamily=Roboto Mono;fontSource=https%3A%2F%2Ffonts.googleapis.com%2Fcss%3Ffamily%3DRoboto%2BMono;strokeWidth=1;fillColor=none;align=left;verticalAlign=middle;noLabel=1;connectable=1;allowArrows=1;snapToPoint=1;" vertex="1" parent="1KFaV_7iB4pAQhAyHhLh-185">
          <mxGeometry width="45" height="40" as="geometry" />
        </mxCell>
        <mxCell id="1KFaV_7iB4pAQhAyHhLh-187" value="" style="shape=image;verticalLabelPosition=bottom;verticalAlign=top;aspect=fixed;imageAspect=0;image=data:image/svg+xml,PHN2ZyB4bWxucz0iaHR0cDovL3d3dy53My5vcmcvMjAwMC9zdmciIGlkPSJQcm9kdWN0X0ljb25zIiBkYXRhLW5hbWU9IlByb2R1Y3QgSWNvbnMiIHZpZXdCb3g9IjQuNjcwMDAwMDc2MjkzOTQ1IDIgMTQuNjU5OTk5ODQ3NDEyMTEgMjAiIHdpZHRoPSIxNC42NTk5OTk4NDc0MTIxMSIgaGVpZ2h0PSIyMCI+PGRlZnM+PHN0eWxlPi5jbHMtMXtmaWxsOiNhZWNiZmE7fS5jbHMtMSwuY2xzLTIsLmNscy0ze2ZpbGwtcnVsZTpldmVub2RkO30uY2xzLTJ7ZmlsbDojNjY5ZGY2O30uY2xzLTN7ZmlsbDojNDI4NWY0O308L3N0eWxlPjwvZGVmcz48dGl0bGU+SWNvbl8yNHB4X0NvbG9yX1NRTDwvdGl0bGU+PGcgaWQ9IlNoYXBlIj48cG9seWdvbiBjbGFzcz0iY2xzLTEiIHBvaW50cz0iNC42NyAxMC40NCA0LjY3IDEzLjQ1IDEyIDE3LjM1IDEyIDE0LjM0IDQuNjcgMTAuNDQiLz48cG9seWdvbiBjbGFzcz0iY2xzLTEiIHBvaW50cz0iNC42NyAxNS4wOSA0LjY3IDE4LjEgMTIgMjIgMTIgMTguOTkgNC42NyAxNS4wOSIvPjxwb2x5Z29uIGNsYXNzPSJjbHMtMiIgcG9pbnRzPSIxMiAxNy4zNSAxOS4zMyAxMy40NSAxOS4zMyAxMC40NCAxMiAxNC4zNCAxMiAxNy4zNSIvPjxwb2x5Z29uIGNsYXNzPSJjbHMtMiIgcG9pbnRzPSIxMiAyMiAxOS4zMyAxOC4xIDE5LjMzIDE1LjA5IDEyIDE4Ljk5IDEyIDIyIi8+PHBvbHlnb24gY2xhc3M9ImNscy0zIiBwb2ludHM9IjE5LjMzIDguOTEgMTkuMzMgNS45IDEyIDIgMTIgNS4wMSAxOS4zMyA4LjkxIi8+PHBvbHlnb24gY2xhc3M9ImNscy0yIiBwb2ludHM9IjEyIDIgNC42NyA1LjkgNC42NyA4LjkxIDEyIDUuMDEgMTIgMiIvPjxwb2x5Z29uIGNsYXNzPSJjbHMtMSIgcG9pbnRzPSI0LjY3IDUuODcgNC42NyA4Ljg5IDEyIDEyLjc5IDEyIDkuNzcgNC42NyA1Ljg3Ii8+PHBvbHlnb24gY2xhc3M9ImNscy0yIiBwb2ludHM9IjEyIDEyLjc5IDE5LjMzIDguODkgMTkuMzMgNS44NyAxMiA5Ljc3IDEyIDEyLjc5Ii8+PC9nPjwvc3ZnPg==;" vertex="1" parent="1KFaV_7iB4pAQhAyHhLh-185">
          <mxGeometry x="11.25" y="5" width="22.5" height="30" as="geometry" />
        </mxCell>
        <mxCell id="1KFaV_7iB4pAQhAyHhLh-193" value="Check 1" style="rhombus;whiteSpace=wrap;html=1;" vertex="1" parent="7BcbjyJo5ydgNHTcu2xo-1">
          <mxGeometry x="-4240" y="1426.9999999999998" width="80" height="80" as="geometry" />
        </mxCell>
        <mxCell id="1KFaV_7iB4pAQhAyHhLh-194" style="edgeStyle=orthogonalEdgeStyle;rounded=0;orthogonalLoop=1;jettySize=auto;html=1;exitX=0.5;exitY=1;exitDx=0;exitDy=0;entryX=0.5;entryY=0;entryDx=0;entryDy=0;" edge="1" source="1KFaV_7iB4pAQhAyHhLh-184" target="1KFaV_7iB4pAQhAyHhLh-191" parent="7BcbjyJo5ydgNHTcu2xo-1">
          <mxGeometry relative="1" as="geometry" />
        </mxCell>
        <mxCell id="1KFaV_7iB4pAQhAyHhLh-195" value="Check 2" style="rhombus;whiteSpace=wrap;html=1;" vertex="1" parent="7BcbjyJo5ydgNHTcu2xo-1">
          <mxGeometry x="-3920" y="1427" width="80" height="80" as="geometry" />
        </mxCell>
        <mxCell id="1KFaV_7iB4pAQhAyHhLh-190" style="edgeStyle=orthogonalEdgeStyle;rounded=0;orthogonalLoop=1;jettySize=auto;html=1;exitX=0.5;exitY=1;exitDx=0;exitDy=0;entryX=0;entryY=0.5;entryDx=0;entryDy=0;fontSize=26;" edge="1" source="1KFaV_7iB4pAQhAyHhLh-191" target="1KFaV_7iB4pAQhAyHhLh-197" parent="7BcbjyJo5ydgNHTcu2xo-1">
          <mxGeometry relative="1" as="geometry">
            <Array as="points">
              <mxPoint x="-4200" y="1360" />
              <mxPoint x="-4330" y="1360" />
              <mxPoint x="-4330" y="1409" />
            </Array>
          </mxGeometry>
        </mxCell>
        <mxCell id="1KFaV_7iB4pAQhAyHhLh-196" value="" style="group" connectable="0" vertex="1" parent="7BcbjyJo5ydgNHTcu2xo-1">
          <mxGeometry x="-4300" y="1391" width="240" height="36" as="geometry" />
        </mxCell>
        <mxCell id="1KFaV_7iB4pAQhAyHhLh-197" value="&lt;font style=&quot;font-size: 11px&quot;&gt;_odBriefcaseCsvToCsvRaw&lt;/font&gt;" style="rounded=0;whiteSpace=wrap;html=1;fontFamily=Roboto Mono;fontSize=11;strokeColor=#56517e;align=left;fontStyle=2;fontSource=https%3A%2F%2Ffonts.googleapis.com%2Fcss%3Ffamily%3DRoboto%2BMono;spacingLeft=40;fillColor=#d0cee2;" vertex="1" parent="1KFaV_7iB4pAQhAyHhLh-196">
          <mxGeometry width="240.00000000000006" height="36" as="geometry" />
        </mxCell>
        <mxCell id="1KFaV_7iB4pAQhAyHhLh-198" value="" style="shape=image;html=1;verticalAlign=top;verticalLabelPosition=bottom;labelBackgroundColor=#ffffff;imageAspect=0;aspect=fixed;image=https://cdn4.iconfinder.com/data/icons/ionicons/512/icon-ios7-bolt-128.png" vertex="1" parent="1KFaV_7iB4pAQhAyHhLh-196">
          <mxGeometry x="8.000000000000002" y="3" width="23.46938775510204" height="23.46938775510204" as="geometry" />
        </mxCell>
        <mxCell id="1KFaV_7iB4pAQhAyHhLh-202" style="edgeStyle=orthogonalEdgeStyle;rounded=0;orthogonalLoop=1;jettySize=auto;html=1;exitX=1;exitY=0.5;exitDx=0;exitDy=0;entryX=0.175;entryY=0.5;entryDx=0;entryDy=0;entryPerimeter=0;" edge="1" parent="7BcbjyJo5ydgNHTcu2xo-1" source="1KFaV_7iB4pAQhAyHhLh-197" target="1KFaV_7iB4pAQhAyHhLh-188">
          <mxGeometry relative="1" as="geometry">
            <Array as="points">
              <mxPoint x="-4030" y="1409" />
              <mxPoint x="-4030" y="1233" />
            </Array>
          </mxGeometry>
        </mxCell>
        <mxCell id="1KFaV_7iB4pAQhAyHhLh-203" value="" style="group" vertex="1" connectable="0" parent="7BcbjyJo5ydgNHTcu2xo-1">
          <mxGeometry x="-4337.7699999999995" y="1304" width="227.39075620767483" height="42" as="geometry" />
        </mxCell>
        <mxCell id="1KFaV_7iB4pAQhAyHhLh-191" value="&lt;font color=&quot;#172b4d&quot; face=&quot;Roboto Mono&quot;&gt;&lt;span style=&quot;font-size: 11px&quot;&gt;eagdl-&lt;br&gt;EA_BUCKET_DROP&lt;/span&gt;&lt;/font&gt;" style="rounded=0;whiteSpace=wrap;html=1;fontFamily=Verdana;align=left;fontSize=14;spacingLeft=8;fontColor=#333333;strokeColor=#B3B3B3;fillColor=#FFFFFF;" vertex="1" parent="1KFaV_7iB4pAQhAyHhLh-203">
          <mxGeometry x="47.39075620767484" y="1" width="180" height="40" as="geometry" />
        </mxCell>
        <mxCell id="1KFaV_7iB4pAQhAyHhLh-192" value="" style="html=1;fillColor=#5184F3;strokeColor=none;verticalAlign=top;labelPosition=center;verticalLabelPosition=bottom;align=center;spacingTop=-6;fontSize=11;fontStyle=1;fontColor=#999999;shape=mxgraph.gcp2.hexIcon;prIcon=cloud_storage;aspect=fixed;" vertex="1" parent="1KFaV_7iB4pAQhAyHhLh-203">
          <mxGeometry width="47.39" height="42" as="geometry" />
        </mxCell>
        <mxCell id="1KFaV_7iB4pAQhAyHhLh-201" value="" style="group" vertex="1" connectable="0" parent="7BcbjyJo5ydgNHTcu2xo-1">
          <mxGeometry x="-4010" y="1212" width="227.39075620767517" height="42" as="geometry" />
        </mxCell>
        <mxCell id="1KFaV_7iB4pAQhAyHhLh-188" value="" style="html=1;fillColor=#5184F3;strokeColor=none;verticalAlign=top;labelPosition=center;verticalLabelPosition=bottom;align=center;spacingTop=-6;fontSize=11;fontStyle=1;fontColor=#999999;shape=mxgraph.gcp2.hexIcon;prIcon=cloud_storage;aspect=fixed;" vertex="1" parent="1KFaV_7iB4pAQhAyHhLh-201">
          <mxGeometry width="47.39" height="42" as="geometry" />
        </mxCell>
        <mxCell id="1KFaV_7iB4pAQhAyHhLh-189" value="&lt;font color=&quot;#172b4d&quot; face=&quot;Roboto Mono&quot;&gt;&lt;span style=&quot;font-size: 11px&quot;&gt;eagdl-OD_ACCOUNT_ACTIVITY_RAW&lt;/span&gt;&lt;/font&gt;" style="rounded=0;whiteSpace=wrap;html=1;fontFamily=Verdana;align=left;fontSize=14;spacingLeft=8;fontColor=#333333;strokeColor=#B3B3B3;fillColor=#FFFFFF;" vertex="1" parent="1KFaV_7iB4pAQhAyHhLh-201">
          <mxGeometry x="47.39075620767517" width="180" height="40" as="geometry" />
        </mxCell>
        <mxCell id="1KFaV_7iB4pAQhAyHhLh-152" value="" style="rounded=0;orthogonalLoop=1;jettySize=auto;html=1;exitX=1;exitY=0.75;exitDx=0;exitDy=0;edgeStyle=orthogonalEdgeStyle;" edge="1" source="1KFaV_7iB4pAQhAyHhLh-174" target="1KFaV_7iB4pAQhAyHhLh-151" parent="7BcbjyJo5ydgNHTcu2xo-1">
          <mxGeometry relative="1" as="geometry" />
        </mxCell>
        <mxCell id="1KFaV_7iB4pAQhAyHhLh-169" value="" style="group" connectable="0" vertex="1" parent="7BcbjyJo5ydgNHTcu2xo-1">
          <mxGeometry x="-3210" y="1353.9" width="227.39075620767494" height="42" as="geometry" />
        </mxCell>
        <mxCell id="1KFaV_7iB4pAQhAyHhLh-170" value="" style="html=1;fillColor=#5184F3;strokeColor=none;verticalAlign=top;labelPosition=center;verticalLabelPosition=bottom;align=center;spacingTop=-6;fontSize=11;fontStyle=1;fontColor=#999999;shape=mxgraph.gcp2.hexIcon;prIcon=cloud_storage;aspect=fixed;" vertex="1" parent="1KFaV_7iB4pAQhAyHhLh-169">
          <mxGeometry width="47.39" height="42" as="geometry" />
        </mxCell>
        <mxCell id="1KFaV_7iB4pAQhAyHhLh-171" value="&lt;font color=&quot;#172b4d&quot; face=&quot;Roboto Mono&quot;&gt;&lt;span style=&quot;font-size: 11px&quot;&gt;eagdl-OD_ACCOUNT_ACTIVITY_JSON&lt;/span&gt;&lt;/font&gt;" style="rounded=0;whiteSpace=wrap;html=1;fontFamily=Verdana;align=left;fontSize=14;spacingLeft=8;fontColor=#333333;strokeColor=#B3B3B3;fillColor=#FFFFFF;" vertex="1" parent="1KFaV_7iB4pAQhAyHhLh-169">
          <mxGeometry x="47.39075620767494" y="1" width="180" height="40" as="geometry" />
        </mxCell>
        <mxCell id="1KFaV_7iB4pAQhAyHhLh-269" value="" style="dashed=0;outlineConnect=0;html=1;align=center;labelPosition=center;verticalLabelPosition=bottom;verticalAlign=top;shape=mxgraph.weblogos.json_2" vertex="1" parent="7BcbjyJo5ydgNHTcu2xo-1">
          <mxGeometry x="-3590" y="1280" width="80" height="30.2" as="geometry" />
        </mxCell>
        <mxCell id="1KFaV_7iB4pAQhAyHhLh-270" value="" style="rounded=0;orthogonalLoop=1;jettySize=auto;html=1;exitX=1;exitY=0.25;exitDx=0;exitDy=0;edgeStyle=orthogonalEdgeStyle;" edge="1" parent="7BcbjyJo5ydgNHTcu2xo-1" target="1KFaV_7iB4pAQhAyHhLh-269" source="1KFaV_7iB4pAQhAyHhLh-174">
          <mxGeometry relative="1" as="geometry">
            <mxPoint x="-3717" y="1427" as="sourcePoint" />
            <Array as="points">
              <mxPoint x="-3690" y="1399" />
              <mxPoint x="-3690" y="1295" />
            </Array>
          </mxGeometry>
        </mxCell>
        <mxCell id="1KFaV_7iB4pAQhAyHhLh-272" style="edgeStyle=none;rounded=0;orthogonalLoop=1;jettySize=auto;html=1;exitX=0.5;exitY=1;exitDx=0;exitDy=0;startArrow=classic;startFill=0;endArrow=none;endFill=0;" edge="1" parent="7BcbjyJo5ydgNHTcu2xo-1" source="1KFaV_7iB4pAQhAyHhLh-34" target="1KFaV_7iB4pAQhAyHhLh-269">
          <mxGeometry relative="1" as="geometry">
            <Array as="points">
              <mxPoint x="-2960" y="970" />
              <mxPoint x="-3550" y="970" />
            </Array>
          </mxGeometry>
        </mxCell>
        <mxCell id="1KFaV_7iB4pAQhAyHhLh-1" value="" style="group" connectable="0" vertex="1" parent="7BcbjyJo5ydgNHTcu2xo-1">
          <mxGeometry x="-4312.23" y="581" width="174" height="42" as="geometry" />
        </mxCell>
        <mxCell id="1KFaV_7iB4pAQhAyHhLh-2" value="" style="html=1;fillColor=#5184F3;strokeColor=none;verticalAlign=top;labelPosition=center;verticalLabelPosition=bottom;align=center;spacingTop=-6;fontSize=11;fontStyle=1;fontColor=#999999;shape=mxgraph.gcp2.hexIcon;prIcon=cloud_storage;aspect=fixed;" vertex="1" parent="1KFaV_7iB4pAQhAyHhLh-1">
          <mxGeometry width="36.26295165872571" height="32.13850959414391" as="geometry" />
        </mxCell>
        <mxCell id="1KFaV_7iB4pAQhAyHhLh-3" value="&lt;font color=&quot;#172b4d&quot; face=&quot;Roboto Mono&quot;&gt;&lt;span style=&quot;font-size: 11px&quot;&gt;eagdl-OD_ACCOUNTS_RAW&lt;/span&gt;&lt;/font&gt;" style="rounded=0;whiteSpace=wrap;html=1;fontFamily=Verdana;align=left;fontSize=14;spacingLeft=8;fontColor=#333333;strokeColor=#B3B3B3;fillColor=#FFFFFF;" vertex="1" parent="1KFaV_7iB4pAQhAyHhLh-1">
          <mxGeometry x="36.26353031081181" y="1" width="137.73646968918817" height="40" as="geometry" />
        </mxCell>
        <mxCell id="1KFaV_7iB4pAQhAyHhLh-4" value="" style="group" connectable="0" vertex="1" parent="7BcbjyJo5ydgNHTcu2xo-1">
          <mxGeometry x="-4320" y="772" width="200" height="36" as="geometry" />
        </mxCell>
        <mxCell id="1KFaV_7iB4pAQhAyHhLh-271" value="" style="group" vertex="1" connectable="0" parent="1KFaV_7iB4pAQhAyHhLh-4">
          <mxGeometry width="200" height="36" as="geometry" />
        </mxCell>
        <mxCell id="1KFaV_7iB4pAQhAyHhLh-5" value="&lt;font style=&quot;font-size: 11px&quot;&gt;_odGhostlistCsvToCsvRaw&lt;/font&gt;" style="rounded=0;whiteSpace=wrap;html=1;fontFamily=Roboto Mono;fontSize=11;strokeColor=#56517e;align=left;fontStyle=2;fontSource=https%3A%2F%2Ffonts.googleapis.com%2Fcss%3Ffamily%3DRoboto%2BMono;spacingLeft=40;fillColor=#d0cee2;" vertex="1" parent="1KFaV_7iB4pAQhAyHhLh-271">
          <mxGeometry width="200" height="36" as="geometry" />
        </mxCell>
        <mxCell id="1KFaV_7iB4pAQhAyHhLh-6" value="" style="shape=image;html=1;verticalAlign=top;verticalLabelPosition=bottom;labelBackgroundColor=#ffffff;imageAspect=0;aspect=fixed;image=https://cdn4.iconfinder.com/data/icons/ionicons/512/icon-ios7-bolt-128.png" vertex="1" parent="1KFaV_7iB4pAQhAyHhLh-271">
          <mxGeometry x="6.666666666666666" y="3" width="25" height="25" as="geometry" />
        </mxCell>
        <mxCell id="1KFaV_7iB4pAQhAyHhLh-7" value="" style="group" connectable="0" vertex="1" parent="7BcbjyJo5ydgNHTcu2xo-1">
          <mxGeometry x="-4002.2299999999996" y="767" width="230" height="36" as="geometry" />
        </mxCell>
        <mxCell id="1KFaV_7iB4pAQhAyHhLh-8" value="&lt;font style=&quot;font-size: 11px&quot;&gt;_odGhostlistCsvRawToJsonRaw&lt;/font&gt;" style="rounded=0;whiteSpace=wrap;html=1;fontFamily=Roboto Mono;fontSize=11;strokeColor=#56517e;align=left;fontStyle=2;fontSource=https%3A%2F%2Ffonts.googleapis.com%2Fcss%3Ffamily%3DRoboto%2BMono;spacingLeft=40;fillColor=#d0cee2;" vertex="1" parent="1KFaV_7iB4pAQhAyHhLh-7">
          <mxGeometry width="230.00000000000003" height="36" as="geometry" />
        </mxCell>
        <mxCell id="1KFaV_7iB4pAQhAyHhLh-9" value="" style="shape=image;html=1;verticalAlign=top;verticalLabelPosition=bottom;labelBackgroundColor=#ffffff;imageAspect=0;aspect=fixed;image=https://cdn4.iconfinder.com/data/icons/ionicons/512/icon-ios7-bolt-128.png" vertex="1" parent="1KFaV_7iB4pAQhAyHhLh-7">
          <mxGeometry x="7.666666666666667" y="3" width="25" height="25" as="geometry" />
        </mxCell>
        <mxCell id="1KFaV_7iB4pAQhAyHhLh-10" value="" style="group" connectable="0" vertex="1" parent="7BcbjyJo5ydgNHTcu2xo-1">
          <mxGeometry x="-4082.2349999999997" y="585" width="221.6957562076749" height="40" as="geometry" />
        </mxCell>
        <mxCell id="1KFaV_7iB4pAQhAyHhLh-11" value="od_ghostlist_raw_YYYY_MM" style="rounded=0;whiteSpace=wrap;html=1;fontFamily=Roboto Mono;align=left;fontSize=11;spacingLeft=8;fontSource=https%3A%2F%2Ffonts.googleapis.com%2Fcss%3Ffamily%3DRoboto%2BMono;fontColor=#333333;strokeColor=#B3B3B3;fillColor=#FFFFFF;" vertex="1" parent="1KFaV_7iB4pAQhAyHhLh-10">
          <mxGeometry x="41.69575620767489" width="180" height="40" as="geometry" />
        </mxCell>
        <mxCell id="1KFaV_7iB4pAQhAyHhLh-12" value="" style="shape=image;html=1;verticalAlign=top;verticalLabelPosition=bottom;labelBackgroundColor=#ffffff;imageAspect=0;aspect=fixed;image=https://cdn3.iconfinder.com/data/icons/dompicon-glyph-file-format-2/256/file-csv-format-type-128.png;fontFamily=Roboto Mono;fontSource=https%3A%2F%2Ffonts.googleapis.com%2Fcss%3Ffamily%3DRoboto%2BMono;fontSize=18;align=left;" vertex="1" parent="1KFaV_7iB4pAQhAyHhLh-10">
          <mxGeometry y="2" width="36" height="36" as="geometry" />
        </mxCell>
        <mxCell id="1KFaV_7iB4pAQhAyHhLh-16" style="edgeStyle=orthogonalEdgeStyle;rounded=0;orthogonalLoop=1;jettySize=auto;html=1;exitX=1;exitY=0.5;exitDx=0;exitDy=0;entryX=0;entryY=0.5;entryDx=0;entryDy=0;endArrow=classic;endFill=1;" edge="1" source="1KFaV_7iB4pAQhAyHhLh-77" target="1KFaV_7iB4pAQhAyHhLh-8" parent="7BcbjyJo5ydgNHTcu2xo-1">
          <mxGeometry x="-2962.2299999999996" y="450" as="geometry" />
        </mxCell>
        <mxCell id="1KFaV_7iB4pAQhAyHhLh-18" value="" style="dashed=0;outlineConnect=0;html=1;align=center;labelPosition=center;verticalLabelPosition=bottom;verticalAlign=top;shape=mxgraph.weblogos.json_2" vertex="1" parent="7BcbjyJo5ydgNHTcu2xo-1">
          <mxGeometry x="-3662.2299999999996" y="769.9" width="80" height="30.2" as="geometry" />
        </mxCell>
        <mxCell id="1KFaV_7iB4pAQhAyHhLh-19" value="" style="edgeStyle=orthogonalEdgeStyle;rounded=0;orthogonalLoop=1;jettySize=auto;html=1;" edge="1" source="1KFaV_7iB4pAQhAyHhLh-8" target="1KFaV_7iB4pAQhAyHhLh-18" parent="7BcbjyJo5ydgNHTcu2xo-1">
          <mxGeometry x="-2962.2299999999996" y="450" as="geometry" />
        </mxCell>
        <mxCell id="1KFaV_7iB4pAQhAyHhLh-22" value="" style="group" vertex="1" connectable="0" parent="7BcbjyJo5ydgNHTcu2xo-1">
          <mxGeometry x="-2026.2299999999996" y="808" width="520" height="40" as="geometry" />
        </mxCell>
        <mxCell id="1KFaV_7iB4pAQhAyHhLh-23" value="ea-great-data-lakes.od_accounts.od_current_accounts" style="fontFamily=Roboto Mono;align=left;fontSize=14;spacingLeft=8;dashed=1;dashPattern=1 1;fontSource=https%3A%2F%2Ffonts.googleapis.com%2Fcss%3Ffamily%3DRoboto%2BMono;spacing=0;spacingBottom=4;" vertex="1" parent="1KFaV_7iB4pAQhAyHhLh-22">
          <mxGeometry x="58.03836734693878" width="461.96163265306126" height="40" as="geometry" />
        </mxCell>
        <mxCell id="1KFaV_7iB4pAQhAyHhLh-24" value="" style="group" vertex="1" connectable="0" parent="1KFaV_7iB4pAQhAyHhLh-22">
          <mxGeometry width="47.90367346938776" height="40" as="geometry" />
        </mxCell>
        <mxCell id="1KFaV_7iB4pAQhAyHhLh-25" value="" style="whiteSpace=wrap;html=1;dashed=1;dashPattern=1 1;fontFamily=Roboto Mono;fontSource=https%3A%2F%2Ffonts.googleapis.com%2Fcss%3Ffamily%3DRoboto%2BMono;strokeWidth=1;fillColor=none;align=left;verticalAlign=middle;noLabel=1;connectable=1;allowArrows=1;snapToPoint=1;" vertex="1" parent="1KFaV_7iB4pAQhAyHhLh-24">
          <mxGeometry x="0.07428571428570706" width="47.75510204081633" height="40" as="geometry" />
        </mxCell>
        <mxCell id="1KFaV_7iB4pAQhAyHhLh-26" value="" style="html=1;verticalAlign=top;labelPosition=center;verticalLabelPosition=bottom;align=center;spacingTop=-6;fontSize=11;fontStyle=1;shape=mxgraph.gcp2.hexIcon;prIcon=bigquery;aspect=fixed;dashed=1;dashPattern=1 1;fontFamily=Roboto Mono;fontSource=https%3A%2F%2Ffonts.googleapis.com%2Fcss%3Ffamily%3DRoboto%2BMono;fillColor=#0066CC;" vertex="1" parent="1KFaV_7iB4pAQhAyHhLh-24">
          <mxGeometry width="45.14" height="40" as="geometry" />
        </mxCell>
        <mxCell id="1KFaV_7iB4pAQhAyHhLh-27" style="rounded=0;orthogonalLoop=1;jettySize=auto;html=1;exitX=1;exitY=0.5;exitDx=0;exitDy=0;entryX=0;entryY=0.5;entryDx=0;entryDy=0;" edge="1" source="1KFaV_7iB4pAQhAyHhLh-30" target="1KFaV_7iB4pAQhAyHhLh-25" parent="7BcbjyJo5ydgNHTcu2xo-1">
          <mxGeometry x="-2962.2299999999996" y="450" as="geometry">
            <mxPoint x="-1344.7299999999996" y="670" as="targetPoint" />
          </mxGeometry>
        </mxCell>
        <mxCell id="1KFaV_7iB4pAQhAyHhLh-29" value="" style="group" connectable="0" vertex="1" parent="7BcbjyJo5ydgNHTcu2xo-1">
          <mxGeometry x="-2562.2299999999996" y="815" width="250" height="36" as="geometry" />
        </mxCell>
        <mxCell id="1KFaV_7iB4pAQhAyHhLh-30" value="&lt;font style=&quot;font-size: 11px&quot;&gt;_odGhostlistJsonRawToBigQuery&lt;/font&gt;" style="rounded=0;whiteSpace=wrap;html=1;fontFamily=Roboto Mono;fontSize=11;strokeColor=#56517e;align=left;fontStyle=2;fontSource=https%3A%2F%2Ffonts.googleapis.com%2Fcss%3Ffamily%3DRoboto%2BMono;spacingLeft=40;fillColor=#d0cee2;" vertex="1" parent="1KFaV_7iB4pAQhAyHhLh-29">
          <mxGeometry width="250" height="36" as="geometry" />
        </mxCell>
        <mxCell id="1KFaV_7iB4pAQhAyHhLh-31" value="" style="shape=image;html=1;verticalAlign=top;verticalLabelPosition=bottom;labelBackgroundColor=#ffffff;imageAspect=0;aspect=fixed;image=https://cdn4.iconfinder.com/data/icons/ionicons/512/icon-ios7-bolt-128.png" vertex="1" parent="1KFaV_7iB4pAQhAyHhLh-29">
          <mxGeometry x="7.666666666666667" y="3" width="25" height="25" as="geometry" />
        </mxCell>
        <mxCell id="1KFaV_7iB4pAQhAyHhLh-32" value="" style="group" connectable="0" vertex="1" parent="7BcbjyJo5ydgNHTcu2xo-1">
          <mxGeometry x="-3042.2299999999996" y="811" width="190" height="42" as="geometry" />
        </mxCell>
        <mxCell id="1KFaV_7iB4pAQhAyHhLh-33" value="" style="html=1;fillColor=#5184F3;strokeColor=none;verticalAlign=top;labelPosition=center;verticalLabelPosition=bottom;align=center;spacingTop=-6;fontSize=11;fontStyle=1;fontColor=#999999;shape=mxgraph.gcp2.hexIcon;prIcon=cloud_storage;aspect=fixed;" vertex="1" parent="1KFaV_7iB4pAQhAyHhLh-32">
          <mxGeometry width="39.59747594918325" height="35.09377484418013" as="geometry" />
        </mxCell>
        <mxCell id="1KFaV_7iB4pAQhAyHhLh-34" value="&lt;font color=&quot;#172b4d&quot; face=&quot;Roboto Mono&quot;&gt;&lt;span style=&quot;font-size: 11px&quot;&gt;OD_ACCOUNTS_JSON&lt;/span&gt;&lt;/font&gt;" style="rounded=0;whiteSpace=wrap;html=1;fontFamily=Verdana;align=left;fontSize=14;spacingLeft=8;fontColor=#333333;strokeColor=#B3B3B3;fillColor=#FFFFFF;" vertex="1" parent="1KFaV_7iB4pAQhAyHhLh-32">
          <mxGeometry x="39.59810781065658" y="1" width="150.4018921893434" height="40" as="geometry" />
        </mxCell>
        <mxCell id="1KFaV_7iB4pAQhAyHhLh-17" style="edgeStyle=orthogonalEdgeStyle;rounded=0;orthogonalLoop=1;jettySize=auto;html=1;endArrow=classic;endFill=1;" edge="1" source="1KFaV_7iB4pAQhAyHhLh-5" target="1KFaV_7iB4pAQhAyHhLh-12" parent="7BcbjyJo5ydgNHTcu2xo-1">
          <mxGeometry x="-7300" y="948" as="geometry" />
        </mxCell>
        <mxCell id="1KFaV_7iB4pAQhAyHhLh-75" value="" style="group" connectable="0" vertex="1" parent="7BcbjyJo5ydgNHTcu2xo-1">
          <mxGeometry x="-4047.2299999999996" y="663" width="170" height="42" as="geometry" />
        </mxCell>
        <mxCell id="1KFaV_7iB4pAQhAyHhLh-76" value="" style="html=1;fillColor=#5184F3;strokeColor=none;verticalAlign=top;labelPosition=center;verticalLabelPosition=bottom;align=center;spacingTop=-6;fontSize=11;fontStyle=1;fontColor=#999999;shape=mxgraph.gcp2.hexIcon;prIcon=cloud_storage;aspect=fixed;" vertex="1" parent="1KFaV_7iB4pAQhAyHhLh-75">
          <mxGeometry width="30.823508909916853" height="27.317733155022324" as="geometry" />
        </mxCell>
        <mxCell id="1KFaV_7iB4pAQhAyHhLh-77" value="&lt;font color=&quot;#172b4d&quot; face=&quot;Roboto Mono&quot;&gt;&lt;span style=&quot;font-size: 11px&quot;&gt;eagdl-OD_ACCOUNTS_CSV&lt;/span&gt;&lt;/font&gt;" style="rounded=0;whiteSpace=wrap;html=1;fontFamily=Verdana;align=left;fontSize=14;spacingLeft=8;fontColor=#333333;strokeColor=#B3B3B3;fillColor=#FFFFFF;" vertex="1" parent="1KFaV_7iB4pAQhAyHhLh-75">
          <mxGeometry x="30.820999999999998" y="1" width="139.179" height="40" as="geometry" />
        </mxCell>
        <mxCell id="1KFaV_7iB4pAQhAyHhLh-78" style="edgeStyle=orthogonalEdgeStyle;rounded=0;orthogonalLoop=1;jettySize=auto;html=1;exitX=0.5;exitY=1;exitDx=0;exitDy=0;entryX=0.5;entryY=0;entryDx=0;entryDy=0;" edge="1" source="1KFaV_7iB4pAQhAyHhLh-11" target="1KFaV_7iB4pAQhAyHhLh-77" parent="7BcbjyJo5ydgNHTcu2xo-1">
          <mxGeometry relative="1" as="geometry" />
        </mxCell>
        <mxCell id="1KFaV_7iB4pAQhAyHhLh-28" style="edgeStyle=orthogonalEdgeStyle;rounded=0;orthogonalLoop=1;jettySize=auto;html=1;exitX=1;exitY=0.5;exitDx=0;exitDy=0;entryX=0;entryY=0.5;entryDx=0;entryDy=0;startArrow=none;startFill=0;" edge="1" source="1KFaV_7iB4pAQhAyHhLh-34" target="1KFaV_7iB4pAQhAyHhLh-30" parent="7BcbjyJo5ydgNHTcu2xo-1">
          <mxGeometry x="-2962.2299999999996" y="450" as="geometry">
            <mxPoint x="-1224.7299999999996" y="470" as="sourcePoint" />
            <mxPoint x="-1449.7299999999996" y="655" as="targetPoint" />
          </mxGeometry>
        </mxCell>
        <mxCell id="1KFaV_7iB4pAQhAyHhLh-80" style="edgeStyle=orthogonalEdgeStyle;rounded=0;orthogonalLoop=1;jettySize=auto;html=1;entryX=0;entryY=0.5;entryDx=0;entryDy=0;" edge="1" source="1KFaV_7iB4pAQhAyHhLh-3" target="1KFaV_7iB4pAQhAyHhLh-5" parent="7BcbjyJo5ydgNHTcu2xo-1">
          <mxGeometry relative="1" as="geometry" />
        </mxCell>
        <mxCell id="1KFaV_7iB4pAQhAyHhLh-36" value="GHOSTLIST (raw)" style="shape=table;startSize=30;container=1;collapsible=1;childLayout=tableLayout;fixedRows=1;rowLines=0;fontStyle=1;align=center;resizeLast=1;fontFamily=Roboto Mono;fontSource=https%3A%2F%2Ffonts.googleapis.com%2Fcss%3Ffamily%3DRoboto%2BMono;separatorColor=#B3B3B3;fillColor=#FFE6CC;strokeColor=#36393d;" collapsed="1" vertex="1" parent="7BcbjyJo5ydgNHTcu2xo-1">
          <mxGeometry x="-3522.2299999999996" y="767" width="210" height="30" as="geometry">
            <mxRectangle width="180" height="570" as="alternateBounds" />
          </mxGeometry>
        </mxCell>
        <mxCell id="1KFaV_7iB4pAQhAyHhLh-37" value="" style="shape=partialRectangle;collapsible=0;dropTarget=0;pointerEvents=0;fillColor=none;top=0;left=0;bottom=1;right=0;points=[[0,0.5],[1,0.5]];portConstraint=eastwest;fontFamily=Roboto Mono;fontSource=https%3A%2F%2Ffonts.googleapis.com%2Fcss%3Ffamily%3DRoboto%2BMono;strokeColor=#B3B3B3;" vertex="1" parent="1KFaV_7iB4pAQhAyHhLh-36">
          <mxGeometry y="30" width="180" height="30" as="geometry" />
        </mxCell>
        <mxCell id="1KFaV_7iB4pAQhAyHhLh-38" value="accountId: Number" style="shape=partialRectangle;connectable=0;fillColor=none;top=0;left=0;bottom=0;right=0;align=left;spacingLeft=6;overflow=hidden;fontFamily=Roboto Mono;fontSource=https%3A%2F%2Ffonts.googleapis.com%2Fcss%3Ffamily%3DRoboto%2BMono;fontSize=10;" vertex="1" parent="1KFaV_7iB4pAQhAyHhLh-37">
          <mxGeometry width="180" height="30" as="geometry">
            <mxRectangle width="180" height="30" as="alternateBounds" />
          </mxGeometry>
        </mxCell>
        <mxCell id="1KFaV_7iB4pAQhAyHhLh-39" style="shape=partialRectangle;collapsible=0;dropTarget=0;pointerEvents=0;fillColor=none;top=0;left=0;bottom=1;right=0;points=[[0,0.5],[1,0.5]];portConstraint=eastwest;fontFamily=Roboto Mono;fontSource=https%3A%2F%2Ffonts.googleapis.com%2Fcss%3Ffamily%3DRoboto%2BMono;strokeColor=#B3B3B3;" vertex="1" parent="1KFaV_7iB4pAQhAyHhLh-36">
          <mxGeometry y="60" width="180" height="30" as="geometry" />
        </mxCell>
        <mxCell id="1KFaV_7iB4pAQhAyHhLh-40" value="grandparentId: Number" style="shape=partialRectangle;connectable=0;fillColor=none;top=0;left=0;bottom=0;right=0;align=left;spacingLeft=6;overflow=hidden;fontFamily=Roboto Mono;fontSource=https%3A%2F%2Ffonts.googleapis.com%2Fcss%3Ffamily%3DRoboto%2BMono;fontSize=10;" vertex="1" parent="1KFaV_7iB4pAQhAyHhLh-39">
          <mxGeometry width="180" height="30" as="geometry">
            <mxRectangle width="180" height="30" as="alternateBounds" />
          </mxGeometry>
        </mxCell>
        <mxCell id="1KFaV_7iB4pAQhAyHhLh-41" style="shape=partialRectangle;collapsible=0;dropTarget=0;pointerEvents=0;fillColor=none;top=0;left=0;bottom=1;right=0;points=[[0,0.5],[1,0.5]];portConstraint=eastwest;fontFamily=Roboto Mono;fontSource=https%3A%2F%2Ffonts.googleapis.com%2Fcss%3Ffamily%3DRoboto%2BMono;strokeColor=#B3B3B3;" vertex="1" parent="1KFaV_7iB4pAQhAyHhLh-36">
          <mxGeometry y="90" width="180" height="30" as="geometry" />
        </mxCell>
        <mxCell id="1KFaV_7iB4pAQhAyHhLh-42" value="grandparentName: String" style="shape=partialRectangle;connectable=0;fillColor=none;top=0;left=0;bottom=0;right=0;align=left;spacingLeft=6;overflow=hidden;fontFamily=Roboto Mono;fontSource=https%3A%2F%2Ffonts.googleapis.com%2Fcss%3Ffamily%3DRoboto%2BMono;fontSize=10;" vertex="1" parent="1KFaV_7iB4pAQhAyHhLh-41">
          <mxGeometry width="180" height="30" as="geometry">
            <mxRectangle width="180" height="30" as="alternateBounds" />
          </mxGeometry>
        </mxCell>
        <mxCell id="1KFaV_7iB4pAQhAyHhLh-43" style="shape=partialRectangle;collapsible=0;dropTarget=0;pointerEvents=0;fillColor=none;top=0;left=0;bottom=1;right=0;points=[[0,0.5],[1,0.5]];portConstraint=eastwest;fontFamily=Roboto Mono;fontSource=https%3A%2F%2Ffonts.googleapis.com%2Fcss%3Ffamily%3DRoboto%2BMono;strokeColor=#B3B3B3;" vertex="1" parent="1KFaV_7iB4pAQhAyHhLh-36">
          <mxGeometry y="120" width="180" height="30" as="geometry" />
        </mxCell>
        <mxCell id="1KFaV_7iB4pAQhAyHhLh-44" value="parentId: Number" style="shape=partialRectangle;connectable=0;fillColor=none;top=0;left=0;bottom=0;right=0;align=left;spacingLeft=6;overflow=hidden;fontFamily=Roboto Mono;fontSource=https%3A%2F%2Ffonts.googleapis.com%2Fcss%3Ffamily%3DRoboto%2BMono;fontSize=10;" vertex="1" parent="1KFaV_7iB4pAQhAyHhLh-43">
          <mxGeometry width="180" height="30" as="geometry">
            <mxRectangle width="180" height="30" as="alternateBounds" />
          </mxGeometry>
        </mxCell>
        <mxCell id="1KFaV_7iB4pAQhAyHhLh-45" style="shape=partialRectangle;collapsible=0;dropTarget=0;pointerEvents=0;fillColor=none;top=0;left=0;bottom=1;right=0;points=[[0,0.5],[1,0.5]];portConstraint=eastwest;fontFamily=Roboto Mono;fontSource=https%3A%2F%2Ffonts.googleapis.com%2Fcss%3Ffamily%3DRoboto%2BMono;strokeColor=#B3B3B3;" vertex="1" parent="1KFaV_7iB4pAQhAyHhLh-36">
          <mxGeometry y="150" width="180" height="30" as="geometry" />
        </mxCell>
        <mxCell id="1KFaV_7iB4pAQhAyHhLh-46" value="parentName: String" style="shape=partialRectangle;connectable=0;fillColor=none;top=0;left=0;bottom=0;right=0;align=left;spacingLeft=6;overflow=hidden;fontFamily=Roboto Mono;fontSource=https%3A%2F%2Ffonts.googleapis.com%2Fcss%3Ffamily%3DRoboto%2BMono;fontSize=10;" vertex="1" parent="1KFaV_7iB4pAQhAyHhLh-45">
          <mxGeometry width="180" height="30" as="geometry">
            <mxRectangle width="180" height="30" as="alternateBounds" />
          </mxGeometry>
        </mxCell>
        <mxCell id="1KFaV_7iB4pAQhAyHhLh-47" style="shape=partialRectangle;collapsible=0;dropTarget=0;pointerEvents=0;fillColor=none;top=0;left=0;bottom=1;right=0;points=[[0,0.5],[1,0.5]];portConstraint=eastwest;fontFamily=Roboto Mono;fontSource=https%3A%2F%2Ffonts.googleapis.com%2Fcss%3Ffamily%3DRoboto%2BMono;strokeColor=#B3B3B3;" vertex="1" parent="1KFaV_7iB4pAQhAyHhLh-36">
          <mxGeometry y="180" width="180" height="30" as="geometry" />
        </mxCell>
        <mxCell id="1KFaV_7iB4pAQhAyHhLh-48" value="GL.uniqueId: Number" style="shape=partialRectangle;connectable=0;fillColor=none;top=0;left=0;bottom=0;right=0;align=left;spacingLeft=6;overflow=hidden;fontFamily=Roboto Mono;fontSource=https%3A%2F%2Ffonts.googleapis.com%2Fcss%3Ffamily%3DRoboto%2BMono;fontSize=10;" vertex="1" parent="1KFaV_7iB4pAQhAyHhLh-47">
          <mxGeometry width="180" height="30" as="geometry">
            <mxRectangle width="180" height="30" as="alternateBounds" />
          </mxGeometry>
        </mxCell>
        <mxCell id="1KFaV_7iB4pAQhAyHhLh-49" value="" style="shape=partialRectangle;collapsible=0;dropTarget=0;pointerEvents=0;fillColor=none;top=0;left=0;bottom=1;right=0;points=[[0,0.5],[1,0.5]];portConstraint=eastwest;fontFamily=Roboto Mono;fontSource=https%3A%2F%2Ffonts.googleapis.com%2Fcss%3Ffamily%3DRoboto%2BMono;labelBorderColor=#000000;strokeColor=#B3B3B3;" vertex="1" parent="1KFaV_7iB4pAQhAyHhLh-36">
          <mxGeometry y="210" width="180" height="30" as="geometry" />
        </mxCell>
        <mxCell id="1KFaV_7iB4pAQhAyHhLh-50" value="GL.contactName: String" style="shape=partialRectangle;connectable=0;fillColor=none;top=0;left=0;bottom=0;right=0;align=left;spacingLeft=6;overflow=hidden;fontFamily=Roboto Mono;fontSource=https%3A%2F%2Ffonts.googleapis.com%2Fcss%3Ffamily%3DRoboto%2BMono;fontSize=10;" vertex="1" parent="1KFaV_7iB4pAQhAyHhLh-49">
          <mxGeometry width="180" height="30" as="geometry">
            <mxRectangle width="180" height="30" as="alternateBounds" />
          </mxGeometry>
        </mxCell>
        <mxCell id="1KFaV_7iB4pAQhAyHhLh-51" style="shape=partialRectangle;collapsible=0;dropTarget=0;pointerEvents=0;fillColor=none;top=0;left=0;bottom=1;right=0;points=[[0,0.5],[1,0.5]];portConstraint=eastwest;fontFamily=Roboto Mono;fontSource=https%3A%2F%2Ffonts.googleapis.com%2Fcss%3Ffamily%3DRoboto%2BMono;labelBorderColor=#000000;strokeColor=#B3B3B3;" vertex="1" parent="1KFaV_7iB4pAQhAyHhLh-36">
          <mxGeometry y="240" width="180" height="30" as="geometry" />
        </mxCell>
        <mxCell id="1KFaV_7iB4pAQhAyHhLh-52" value="GL.shiptoNumber: Number" style="shape=partialRectangle;connectable=0;fillColor=none;top=0;left=0;bottom=0;right=0;align=left;spacingLeft=6;overflow=hidden;fontFamily=Roboto Mono;fontSource=https%3A%2F%2Ffonts.googleapis.com%2Fcss%3Ffamily%3DRoboto%2BMono;fontSize=10;" vertex="1" parent="1KFaV_7iB4pAQhAyHhLh-51">
          <mxGeometry width="180" height="30" as="geometry">
            <mxRectangle width="180" height="30" as="alternateBounds" />
          </mxGeometry>
        </mxCell>
        <mxCell id="1KFaV_7iB4pAQhAyHhLh-53" style="shape=partialRectangle;collapsible=0;dropTarget=0;pointerEvents=0;fillColor=none;top=0;left=0;bottom=1;right=0;points=[[0,0.5],[1,0.5]];portConstraint=eastwest;fontFamily=Roboto Mono;fontSource=https%3A%2F%2Ffonts.googleapis.com%2Fcss%3Ffamily%3DRoboto%2BMono;labelBorderColor=#000000;strokeColor=#B3B3B3;" vertex="1" parent="1KFaV_7iB4pAQhAyHhLh-36">
          <mxGeometry y="270" width="180" height="30" as="geometry" />
        </mxCell>
        <mxCell id="1KFaV_7iB4pAQhAyHhLh-54" value="GL.shiptoName: String" style="shape=partialRectangle;connectable=0;fillColor=none;top=0;left=0;bottom=0;right=0;align=left;spacingLeft=6;overflow=hidden;fontFamily=Roboto Mono;fontSource=https%3A%2F%2Ffonts.googleapis.com%2Fcss%3Ffamily%3DRoboto%2BMono;fontSize=10;" vertex="1" parent="1KFaV_7iB4pAQhAyHhLh-53">
          <mxGeometry width="180" height="30" as="geometry">
            <mxRectangle width="180" height="30" as="alternateBounds" />
          </mxGeometry>
        </mxCell>
        <mxCell id="1KFaV_7iB4pAQhAyHhLh-55" style="shape=partialRectangle;collapsible=0;dropTarget=0;pointerEvents=0;fillColor=none;top=0;left=0;bottom=1;right=0;points=[[0,0.5],[1,0.5]];portConstraint=eastwest;fontFamily=Roboto Mono;fontSource=https%3A%2F%2Ffonts.googleapis.com%2Fcss%3Ffamily%3DRoboto%2BMono;labelBorderColor=#000000;strokeColor=#B3B3B3;" vertex="1" parent="1KFaV_7iB4pAQhAyHhLh-36">
          <mxGeometry y="300" width="180" height="30" as="geometry" />
        </mxCell>
        <mxCell id="1KFaV_7iB4pAQhAyHhLh-56" value="GL.addressOne: String" style="shape=partialRectangle;connectable=0;fillColor=none;top=0;left=0;bottom=0;right=0;align=left;spacingLeft=6;overflow=hidden;fontFamily=Roboto Mono;fontSource=https%3A%2F%2Ffonts.googleapis.com%2Fcss%3Ffamily%3DRoboto%2BMono;fontSize=10;" vertex="1" parent="1KFaV_7iB4pAQhAyHhLh-55">
          <mxGeometry width="180" height="30" as="geometry">
            <mxRectangle width="180" height="30" as="alternateBounds" />
          </mxGeometry>
        </mxCell>
        <mxCell id="1KFaV_7iB4pAQhAyHhLh-57" style="shape=partialRectangle;collapsible=0;dropTarget=0;pointerEvents=0;fillColor=none;top=0;left=0;bottom=1;right=0;points=[[0,0.5],[1,0.5]];portConstraint=eastwest;fontFamily=Roboto Mono;fontSource=https%3A%2F%2Ffonts.googleapis.com%2Fcss%3Ffamily%3DRoboto%2BMono;labelBorderColor=#000000;strokeColor=#B3B3B3;" vertex="1" parent="1KFaV_7iB4pAQhAyHhLh-36">
          <mxGeometry y="330" width="180" height="30" as="geometry" />
        </mxCell>
        <mxCell id="1KFaV_7iB4pAQhAyHhLh-58" value="GL.addressTwo: String" style="shape=partialRectangle;connectable=0;fillColor=none;top=0;left=0;bottom=0;right=0;align=left;spacingLeft=6;overflow=hidden;fontFamily=Roboto Mono;fontSource=https%3A%2F%2Ffonts.googleapis.com%2Fcss%3Ffamily%3DRoboto%2BMono;fontSize=10;" vertex="1" parent="1KFaV_7iB4pAQhAyHhLh-57">
          <mxGeometry width="180" height="30" as="geometry">
            <mxRectangle width="180" height="30" as="alternateBounds" />
          </mxGeometry>
        </mxCell>
        <mxCell id="1KFaV_7iB4pAQhAyHhLh-59" style="shape=partialRectangle;collapsible=0;dropTarget=0;pointerEvents=0;fillColor=none;top=0;left=0;bottom=1;right=0;points=[[0,0.5],[1,0.5]];portConstraint=eastwest;fontFamily=Roboto Mono;fontSource=https%3A%2F%2Ffonts.googleapis.com%2Fcss%3Ffamily%3DRoboto%2BMono;labelBorderColor=#000000;strokeColor=#B3B3B3;" vertex="1" parent="1KFaV_7iB4pAQhAyHhLh-36">
          <mxGeometry y="360" width="180" height="30" as="geometry" />
        </mxCell>
        <mxCell id="1KFaV_7iB4pAQhAyHhLh-60" value="GL.city: String" style="shape=partialRectangle;connectable=0;fillColor=none;top=0;left=0;bottom=0;right=0;align=left;spacingLeft=6;overflow=hidden;fontFamily=Roboto Mono;fontSource=https%3A%2F%2Ffonts.googleapis.com%2Fcss%3Ffamily%3DRoboto%2BMono;fontSize=10;" vertex="1" parent="1KFaV_7iB4pAQhAyHhLh-59">
          <mxGeometry width="180" height="30" as="geometry">
            <mxRectangle width="180" height="30" as="alternateBounds" />
          </mxGeometry>
        </mxCell>
        <mxCell id="1KFaV_7iB4pAQhAyHhLh-61" style="shape=partialRectangle;collapsible=0;dropTarget=0;pointerEvents=0;fillColor=none;top=0;left=0;bottom=1;right=0;points=[[0,0.5],[1,0.5]];portConstraint=eastwest;fontFamily=Roboto Mono;fontSource=https%3A%2F%2Ffonts.googleapis.com%2Fcss%3Ffamily%3DRoboto%2BMono;labelBorderColor=#000000;strokeColor=#B3B3B3;" vertex="1" parent="1KFaV_7iB4pAQhAyHhLh-36">
          <mxGeometry y="390" width="180" height="30" as="geometry" />
        </mxCell>
        <mxCell id="1KFaV_7iB4pAQhAyHhLh-62" value="GL.state: String" style="shape=partialRectangle;connectable=0;fillColor=none;top=0;left=0;bottom=0;right=0;align=left;spacingLeft=6;overflow=hidden;fontFamily=Roboto Mono;fontSource=https%3A%2F%2Ffonts.googleapis.com%2Fcss%3Ffamily%3DRoboto%2BMono;fontSize=10;" vertex="1" parent="1KFaV_7iB4pAQhAyHhLh-61">
          <mxGeometry width="180" height="30" as="geometry">
            <mxRectangle width="180" height="30" as="alternateBounds" />
          </mxGeometry>
        </mxCell>
        <mxCell id="1KFaV_7iB4pAQhAyHhLh-63" style="shape=partialRectangle;collapsible=0;dropTarget=0;pointerEvents=0;fillColor=none;top=0;left=0;bottom=1;right=0;points=[[0,0.5],[1,0.5]];portConstraint=eastwest;fontFamily=Roboto Mono;fontSource=https%3A%2F%2Ffonts.googleapis.com%2Fcss%3Ffamily%3DRoboto%2BMono;labelBorderColor=#000000;strokeColor=#B3B3B3;" vertex="1" parent="1KFaV_7iB4pAQhAyHhLh-36">
          <mxGeometry y="420" width="180" height="30" as="geometry" />
        </mxCell>
        <mxCell id="1KFaV_7iB4pAQhAyHhLh-64" value="GL.zipCode: Number" style="shape=partialRectangle;connectable=0;fillColor=none;top=0;left=0;bottom=0;right=0;align=left;spacingLeft=6;overflow=hidden;fontFamily=Roboto Mono;fontSource=https%3A%2F%2Ffonts.googleapis.com%2Fcss%3Ffamily%3DRoboto%2BMono;fontSize=10;" vertex="1" parent="1KFaV_7iB4pAQhAyHhLh-63">
          <mxGeometry width="180" height="30" as="geometry">
            <mxRectangle width="180" height="30" as="alternateBounds" />
          </mxGeometry>
        </mxCell>
        <mxCell id="1KFaV_7iB4pAQhAyHhLh-65" style="shape=partialRectangle;collapsible=0;dropTarget=0;pointerEvents=0;fillColor=none;top=0;left=0;bottom=1;right=0;points=[[0,0.5],[1,0.5]];portConstraint=eastwest;fontFamily=Roboto Mono;fontSource=https%3A%2F%2Ffonts.googleapis.com%2Fcss%3Ffamily%3DRoboto%2BMono;labelBorderColor=#000000;strokeColor=#B3B3B3;" vertex="1" parent="1KFaV_7iB4pAQhAyHhLh-36">
          <mxGeometry y="450" width="180" height="30" as="geometry" />
        </mxCell>
        <mxCell id="1KFaV_7iB4pAQhAyHhLh-66" value="GL.contactEmail: String" style="shape=partialRectangle;connectable=0;fillColor=none;top=0;left=0;bottom=0;right=0;align=left;spacingLeft=6;overflow=hidden;fontFamily=Roboto Mono;fontSource=https%3A%2F%2Ffonts.googleapis.com%2Fcss%3Ffamily%3DRoboto%2BMono;fontSize=10;" vertex="1" parent="1KFaV_7iB4pAQhAyHhLh-65">
          <mxGeometry width="180" height="30" as="geometry">
            <mxRectangle width="180" height="30" as="alternateBounds" />
          </mxGeometry>
        </mxCell>
        <mxCell id="1KFaV_7iB4pAQhAyHhLh-67" style="shape=partialRectangle;collapsible=0;dropTarget=0;pointerEvents=0;fillColor=none;top=0;left=0;bottom=1;right=0;points=[[0,0.5],[1,0.5]];portConstraint=eastwest;fontFamily=Roboto Mono;fontSource=https%3A%2F%2Ffonts.googleapis.com%2Fcss%3Ffamily%3DRoboto%2BMono;labelBorderColor=#000000;strokeColor=#B3B3B3;" vertex="1" parent="1KFaV_7iB4pAQhAyHhLh-36">
          <mxGeometry y="480" width="180" height="30" as="geometry" />
        </mxCell>
        <mxCell id="1KFaV_7iB4pAQhAyHhLh-68" value="GL.contactNumber: Number" style="shape=partialRectangle;connectable=0;fillColor=none;top=0;left=0;bottom=0;right=0;align=left;spacingLeft=6;overflow=hidden;fontFamily=Roboto Mono;fontSource=https%3A%2F%2Ffonts.googleapis.com%2Fcss%3Ffamily%3DRoboto%2BMono;fontSize=10;" vertex="1" parent="1KFaV_7iB4pAQhAyHhLh-67">
          <mxGeometry width="180" height="30" as="geometry">
            <mxRectangle width="180" height="30" as="alternateBounds" />
          </mxGeometry>
        </mxCell>
        <mxCell id="1KFaV_7iB4pAQhAyHhLh-69" style="shape=partialRectangle;collapsible=0;dropTarget=0;pointerEvents=0;fillColor=none;top=0;left=0;bottom=1;right=0;points=[[0,0.5],[1,0.5]];portConstraint=eastwest;fontFamily=Roboto Mono;fontSource=https%3A%2F%2Ffonts.googleapis.com%2Fcss%3Ffamily%3DRoboto%2BMono;labelBorderColor=#000000;strokeColor=#B3B3B3;" vertex="1" parent="1KFaV_7iB4pAQhAyHhLh-36">
          <mxGeometry y="510" width="180" height="30" as="geometry" />
        </mxCell>
        <mxCell id="1KFaV_7iB4pAQhAyHhLh-70" value="GL.contactPhoneAlt: Number" style="shape=partialRectangle;connectable=0;fillColor=none;top=0;left=0;bottom=0;right=0;align=left;spacingLeft=6;overflow=hidden;fontFamily=Roboto Mono;fontSource=https%3A%2F%2Ffonts.googleapis.com%2Fcss%3Ffamily%3DRoboto%2BMono;fontSize=10;" vertex="1" parent="1KFaV_7iB4pAQhAyHhLh-69">
          <mxGeometry width="180" height="30" as="geometry">
            <mxRectangle width="180" height="30" as="alternateBounds" />
          </mxGeometry>
        </mxCell>
        <mxCell id="1KFaV_7iB4pAQhAyHhLh-71" style="shape=partialRectangle;collapsible=0;dropTarget=0;pointerEvents=0;fillColor=none;top=0;left=0;bottom=1;right=0;points=[[0,0.5],[1,0.5]];portConstraint=eastwest;fontFamily=Roboto Mono;fontSource=https%3A%2F%2Ffonts.googleapis.com%2Fcss%3Ffamily%3DRoboto%2BMono;labelBorderColor=#000000;strokeColor=#B3B3B3;" vertex="1" parent="1KFaV_7iB4pAQhAyHhLh-36">
          <mxGeometry y="540" width="180" height="30" as="geometry" />
        </mxCell>
        <mxCell id="1KFaV_7iB4pAQhAyHhLh-72" value="GL.lastActivity: Date" style="shape=partialRectangle;connectable=0;fillColor=none;top=0;left=0;bottom=0;right=0;align=left;spacingLeft=6;overflow=hidden;fontFamily=Roboto Mono;fontSource=https%3A%2F%2Ffonts.googleapis.com%2Fcss%3Ffamily%3DRoboto%2BMono;fontSize=10;" vertex="1" parent="1KFaV_7iB4pAQhAyHhLh-71">
          <mxGeometry width="180" height="30" as="geometry">
            <mxRectangle width="180" height="30" as="alternateBounds" />
          </mxGeometry>
        </mxCell>
        <mxCell id="1KFaV_7iB4pAQhAyHhLh-21" style="rounded=0;orthogonalLoop=1;jettySize=auto;html=1;entryX=0;entryY=0.5;entryDx=0;entryDy=0;endArrow=classic;endFill=1;startArrow=none;" edge="1" source="1KFaV_7iB4pAQhAyHhLh-18" target="1KFaV_7iB4pAQhAyHhLh-36" parent="7BcbjyJo5ydgNHTcu2xo-1">
          <mxGeometry x="-7300" y="948" as="geometry" />
        </mxCell>
        <mxCell id="1KFaV_7iB4pAQhAyHhLh-20" value="" style="rounded=0;orthogonalLoop=1;jettySize=auto;html=1;startArrow=none;startFill=1;entryX=0.175;entryY=0.5;entryDx=0;entryDy=0;entryPerimeter=0;exitX=1;exitY=0.5;exitDx=0;exitDy=0;" edge="1" source="1KFaV_7iB4pAQhAyHhLh-36" target="1KFaV_7iB4pAQhAyHhLh-33" parent="7BcbjyJo5ydgNHTcu2xo-1">
          <mxGeometry x="-2962.2299999999996" y="450" as="geometry">
            <mxPoint x="-3213.4499999999994" y="786.0802364452572" as="sourcePoint" />
          </mxGeometry>
        </mxCell>
      </root>
    </mxGraphModel>
  </diagram>
</mxfile>
